<!-- Generated by readme-aura https://github.com/collectioneur/readme-aura -->
<svg width="860" height="340" viewBox="0 0 860 340" xmlns="http://www.w3.org/2000/svg"><defs><clipPath id="satori_bc-id"><path x="0" y="0" width="860" height="340" d="M18,0 h824 a18,18 0 0 1 18,18 v304 a18,18 0 0 1 -18,18 h-824 a18,18 0 0 1 -18,-18 v-304 a18,18 0 0 1 18,-18"/></clipPath></defs><clipPath id="satori_cp-id"><path x="0" y="0" width="860" height="340" d="M18,0 h824 a18,18 0 0 1 18,18 v304 a18,18 0 0 1 -18,18 h-824 a18,18 0 0 1 -18,-18 v-304 a18,18 0 0 1 18,-18"/></clipPath><mask id="satori_om-id"><rect x="1" y="1" width="858" height="338" fill="#fff"/><path width="860" height="340" fill="none" stroke="#000" stroke-width="2" d="M5.272,5.272 A18,18 0 0 1 18,0 h824 a18,18 0 0 1 18,18 v304 a18,18 0 0 1 -18,18 h-824 a18,18 0 0 1 -18,-18 v-304 A18,18 0 0 1 5.272,5.272"/></mask><path x="0" y="0" width="860" height="340" fill="#0A0B0E" d="M18,0 h824 a18,18 0 0 1 18,18 v304 a18,18 0 0 1 -18,18 h-824 a18,18 0 0 1 -18,-18 v-304 a18,18 0 0 1 18,-18"/><path width="860" height="340" clip-path="url(#satori_bc-id)" fill="none" stroke="#2D313B" stroke-width="2" d="M5.272,5.272 A18,18 0 0 1 18,0 h824 a18,18 0 0 1 18,18 v304 a18,18 0 0 1 -18,18 h-824 a18,18 0 0 1 -18,-18 v-304 A18,18 0 0 1 5.272,5.272"/><clipPath id="satori_cp-id-0" clip-path="url(#satori_cp-id)"><rect x="1" y="0" width="860" height="340"/></clipPath><mask id="satori_om-id-0"><rect x="1" y="0" width="860" height="340" fill="#fff" mask="url(#satori_om-id)"/></mask><svg x="1" y="0" width="860" height="340" preserveAspectRatio="none" clip-path="url(#satori_cp-id-0)" mask="url(#satori_om-id-0)"><defs><radialGradient id="amberGlow" cx="25%" cy="8%" r="65%"><stop offset="0%" stop-color="rgba(245,166,35,0.26)"></stop><stop offset="100%" stop-color="rgba(245,166,35,0)"></stop></radialGradient><radialGradient id="mintGlow" cx="86%" cy="20%" r="54%"><stop offset="0%" stop-color="rgba(94,234,212,0.18)"></stop><stop offset="100%" stop-color="rgba(94,234,212,0)"></stop></radialGradient><pattern id="grid" width="48" height="48" patternUnits="userSpaceOnUse"><path d="M 48 0 L 0 0 0 48" fill="none" stroke="rgba(45,49,59,.72)" stroke-width="1"></path></pattern><linearGradient id="headline" x1="0" x2="1" y1="0" y2="1"><stop offset="0%" stop-color="#F5A623"></stop><stop offset="72%" stop-color="#5EEAD4"></stop></linearGradient></defs><rect width="860" height="340" fill="url(#grid)" opacity=".7"></rect><rect width="860" height="340" fill="url(#amberGlow)"></rect><rect width="860" height="340" fill="url(#mintGlow)"></rect><rect id="scan-line" x="0" y="0" width="860" height="70" fill="rgba(94,234,212,.045)"></rect><line x1="42" y1="279" x2="818" y2="279" stroke="rgba(94,234,212,.3)" stroke-width="1" stroke-dasharray="8 10"></line><circle cx="770" cy="66" r="52" fill="none" stroke="rgba(94,234,212,.24)"></circle><circle cx="770" cy="66" r="86" fill="none" stroke="rgba(245,166,35,.16)"></circle><style>

    @keyframes pulse-dot { 0%, 100% { opacity: 1; transform: scale(1); } 50% { opacity: 0.42; transform: scale(1.8); } }
    @keyframes scan { 0% { transform: translateY(-120px); opacity: 0; } 18%, 75% { opacity: .65; } 100% { transform: translateY(360px); opacity: 0; } }
    #live-dot { animation: pulse-dot 1.8s ease-in-out infinite; transform-origin: center; }
    #scan-line { animation: scan 6s linear infinite; }
  
</style>
</svg><mask id="satori_om-id-0-0"><rect x="1" y="0" width="0" height="340" fill="#fff" mask="url(#satori_om-id)"/></mask><mask id="satori_om-id-0-0-0"><rect x="1" y="0" width="0" height="340" fill="#fff" mask="url(#satori_om-id)"/></mask><mask id="satori_om-id-0-0-0-0"><rect x="1" y="0" width="0" height="340" fill="#fff" mask="url(#satori_om-id)"/></mask><mask id="satori_om-id-0-0-0-1"><rect x="1" y="0" width="0" height="340" fill="#fff" mask="url(#satori_om-id)"/></mask><mask id="satori_om-id-0-0-1"><rect x="1" y="0" width="0" height="340" fill="#fff" mask="url(#satori_om-id)"/></mask><mask id="satori_om-id-0-0-1-0"><rect x="1" y="0" width="0" height="340" fill="#fff" mask="url(#satori_om-id)"/></mask><mask id="satori_om-id-0-0-1-1"><rect x="1" y="0" width="0" height="340" fill="#fff" mask="url(#satori_om-id)"/></mask><mask id="satori_om-id-0-0-2"><rect x="1" y="0" width="0" height="340" fill="#fff" mask="url(#satori_om-id)"/></mask><mask id="satori_om-id-0-0-2-0"><rect x="1" y="0" width="0" height="340" fill="#fff" mask="url(#satori_om-id)"/></mask><mask id="satori_om-id-0-0-3"><rect x="1" y="0" width="0" height="340" fill="#fff" mask="url(#satori_om-id)"/></mask><mask id="satori_om-id-0-0-3-0"><rect x="1" y="0" width="0" height="340" fill="#fff" mask="url(#satori_om-id)"/></mask><mask id="satori_om-id-0-0-3-1"><rect x="1" y="0" width="0" height="340" fill="#fff" mask="url(#satori_om-id)"/></mask><mask id="satori_om-id-0-1"><rect x="1" y="0" width="0" height="340" fill="#fff" mask="url(#satori_om-id)"/></mask><mask id="satori_om-id-0-2"><rect x="1" y="0" width="0" height="340" fill="#fff" mask="url(#satori_om-id)"/></mask><mask id="satori_om-id-0-3"><rect x="1" y="0" width="0" height="340" fill="#fff" mask="url(#satori_om-id)"/></mask><mask id="satori_om-id-0-4"><rect x="1" y="0" width="0" height="340" fill="#fff" mask="url(#satori_om-id)"/></mask><mask id="satori_om-id-0-5"><rect x="1" y="0" width="0" height="340" fill="#fff" mask="url(#satori_om-id)"/></mask><mask id="satori_om-id-0-6"><rect x="1" y="0" width="0" height="340" fill="#fff" mask="url(#satori_om-id)"/></mask><mask id="satori_om-id-0-7"><rect x="1" y="0" width="0" height="340" fill="#fff" mask="url(#satori_om-id)"/></mask><mask id="satori_om-id-1"><rect x="1" y="15" width="858" height="311" fill="#fff" mask="url(#satori_om-id)"/></mask><mask id="satori_om-id-1-0"><rect x="49" y="57" width="264" height="31" fill="#fff" mask="url(#satori_om-id)"/></mask><defs><clipPath id="satori_bc-id-1-0-0" clip-path="url(#satori_cp-id)"><path x="49" y="57" width="127" height="31" d="M64.5,57 h96 a15.5,15.5 0 0 1 15.5,15.5 v0 a15.5,15.5 0 0 1 -15.5,15.5 h-96 a15.5,15.5 0 0 1 -15.5,-15.5 v0 a15.5,15.5 0 0 1 15.5,-15.5"/></clipPath></defs><mask id="satori_om-id-1-0-0"><rect x="50" y="58" width="125" height="29" fill="#fff" mask="url(#satori_om-id)"/><path width="127" height="31" fill="none" stroke="#000" stroke-width="2" d="M53.54,61.54 A15.5,15.5 0 0 1 64.5,57 h96 a15.5,15.5 0 0 1 15.5,15.5 v0 a15.5,15.5 0 0 1 -15.5,15.5 h-96 a15.5,15.5 0 0 1 -15.5,-15.5 v0 A15.5,15.5 0 0 1 53.54,61.54"/></mask><path x="49" y="57" width="127" height="31" fill="rgba(94,234,212,.08)" d="M64.5,57 h96 a15.5,15.5 0 0 1 15.5,15.5 v0 a15.5,15.5 0 0 1 -15.5,15.5 h-96 a15.5,15.5 0 0 1 -15.5,-15.5 v0 a15.5,15.5 0 0 1 15.5,-15.5" clip-path="url(#satori_cp-id)" mask="url(#satori_om-id)"/><path width="127" height="31" clip-path="url(#satori_bc-id-1-0-0)" fill="none" stroke="rgba(94,234,212,.55)" stroke-width="2" d="M53.54,61.54 A15.5,15.5 0 0 1 64.5,57 h96 a15.5,15.5 0 0 1 15.5,15.5 v0 a15.5,15.5 0 0 1 -15.5,15.5 h-96 a15.5,15.5 0 0 1 -15.5,-15.5 v0 A15.5,15.5 0 0 1 53.54,61.54"/><clipPath id="satori_cp-id-1-0-0-0" clip-path="url(#satori_cp-id)"><rect x="62" y="68" width="10" height="10"/></clipPath><mask id="satori_om-id-1-0-0-0"><rect x="62" y="68" width="10" height="10" fill="#fff" mask="url(#satori_om-id)"/></mask><svg x="62" y="68" width="10" height="10" preserveAspectRatio="none" clip-path="url(#satori_cp-id-1-0-0-0)" mask="url(#satori_om-id-1-0-0-0)"><circle id="live-dot" cx="5" cy="5" r="4" fill="#5EEAD4" opacity=".85"></circle><circle cx="5" cy="5" r="3" fill="#5EEAD4"></circle></svg><mask id="satori_om-id-1-0-0-0-0"><rect x="62" y="68" width="0" height="10" fill="#fff" mask="url(#satori_om-id)"/></mask><mask id="satori_om-id-1-0-0-0-1"><rect x="62" y="68" width="0" height="10" fill="#fff" mask="url(#satori_om-id)"/></mask><mask id="satori_om-id-1-0-0-1"><rect x="80" y="65" width="83" height="15" fill="#fff" mask="url(#satori_om-id)"/></mask><g mask="url(#satori_om-id)" clip-path="url(#satori_cp-id)"><path fill="#5EEAD4" d="M82.6 77L80.8 77L80.8 68.3L84.2 68.3Q85.2 68.3 85.9 68.6Q86.6 69.0 87.0 69.7Q87.3 70.4 87.3 71.2L87.3 71.2Q87.3 72.1 86.9 72.7Q86.6 73.4 85.9 73.8Q85.2 74.1 84.2 74.1L84.2 74.1L82.6 74.1L82.6 77ZM82.6 69.7L82.6 72.7L83.9 72.7Q84.4 72.7 84.8 72.5Q85.1 72.3 85.3 72.0Q85.5 71.7 85.5 71.2Q85.5 70.8 85.3 70.4Q85.1 70.1 84.8 69.9Q84.4 69.7 83.9 69.7L83.9 69.7L82.6 69.7ZM90.4 77L88.6 77L88.6 68.3L92.0 68.3Q93.0 68.3 93.7 68.6Q94.4 69.0 94.7 69.6Q95.1 70.3 95.1 71.1Q95.1 72.0 94.7 72.6Q94.3 73.2 93.6 73.5L93.6 73.5Q93.6 73.6 93.5 73.6L93.5 73.6L95.4 77L93.4 77L91.8 73.9L90.4 73.9L90.4 77ZM90.4 69.7L90.4 72.4L91.6 72.4Q92.2 72.4 92.5 72.3Q92.9 72.1 93.1 71.8Q93.2 71.5 93.2 71.1L93.2 71.1Q93.2 70.7 93.1 70.4Q92.9 70.1 92.5 69.9Q92.2 69.7 91.6 69.7L91.6 69.7L90.4 69.7ZM100.3 77.1L100.3 77.1Q99.1 77.1 98.2 76.6Q97.3 76.1 96.7 75.1Q96.2 74.1 96.2 72.6L96.2 72.6Q96.2 71.2 96.7 70.2Q97.3 69.2 98.2 68.7Q99.1 68.2 100.3 68.2L100.3 68.2Q101.4 68.2 102.4 68.7Q103.3 69.2 103.8 70.2Q104.4 71.2 104.4 72.6L104.4 72.6Q104.4 74.1 103.8 75.1Q103.3 76.1 102.4 76.6Q101.4 77.1 100.3 77.1ZM100.3 75.5L100.3 75.5Q101.0 75.5 101.5 75.2Q102.0 74.9 102.3 74.2Q102.5 73.6 102.5 72.6L102.5 72.6Q102.5 71.7 102.3 71.0Q102.0 70.4 101.5 70.1Q101.0 69.7 100.3 69.7L100.3 69.7Q99.6 69.7 99.1 70.1Q98.6 70.4 98.3 71.1Q98.0 71.7 98.0 72.6L98.0 72.6Q98.0 73.6 98.3 74.2Q98.6 74.9 99.1 75.2Q99.6 75.5 100.3 75.5ZM107.5 77L105.7 77L105.7 68.3L111.4 68.3L111.4 69.8L107.5 69.8L107.5 72.2L111.0 72.2L111.0 73.6L107.5 73.6L107.5 77ZM112.7 68.3L114.5 68.3L114.5 77L112.7 77L112.7 68.3ZM121.7 77L116.1 77L116.1 68.3L117.9 68.3L117.9 75.5L121.7 75.5L121.7 77ZM128.7 77L122.9 77L122.9 68.3L128.7 68.3L128.7 69.8L124.7 69.8L124.7 71.9L128.4 71.9L128.4 73.3L124.7 73.3L124.7 75.5L128.7 75.5L128.7 77ZM131.4 77.1L131.4 77.1Q131.0 77.1 130.7 76.8Q130.4 76.5 130.4 76.1L130.4 76.1Q130.4 75.7 130.7 75.4Q131.0 75.1 131.4 75.1L131.4 75.1Q131.8 75.1 132.1 75.4Q132.4 75.7 132.4 76.1L132.4 76.1Q132.4 76.5 132.1 76.8Q131.8 77.1 131.4 77.1ZM131.4 72.8L131.4 72.8Q131.0 72.8 130.7 72.5Q130.4 72.2 130.4 71.8L130.4 71.8Q130.4 71.3 130.7 71.0Q131.0 70.7 131.4 70.7L131.4 70.7Q131.8 70.7 132.1 71.0Q132.4 71.3 132.4 71.8L132.4 71.8Q132.4 72.2 132.1 72.5Q131.8 72.8 131.4 72.8Z M142.6 77L137.0 77L137.0 68.3L138.8 68.3L138.8 75.5L142.6 75.5L142.6 77ZM143.8 68.3L145.6 68.3L145.6 77L143.8 77L143.8 68.3ZM152.1 77L149.7 77L146.7 68.3L148.7 68.3L150.1 72.5Q150.3 73.3 150.6 74.2L150.6 74.2Q150.7 74.9 150.9 75.6L150.9 75.6Q151.1 74.9 151.3 74.2L151.3 74.2Q151.5 73.3 151.7 72.5L151.7 72.5L153.1 68.3L155.1 68.3L152.1 77ZM162.0 77L156.1 77L156.1 68.3L162.0 68.3L162.0 69.8L157.9 69.8L157.9 71.9L161.7 71.9L161.7 73.3L157.9 73.3L157.9 75.5L162.0 75.5L162.0 77Z "/></g><mask id="satori_om-id-1-0-1"><rect x="186" y="65" width="127" height="15" fill="#fff" mask="url(#satori_om-id)"/></mask><g mask="url(#satori_om-id)" clip-path="url(#satori_cp-id)"><path fill="#A6ADBB" d="M189.1 67.9L190.1 67.9L187.2 78.3L186.3 78.3L189.1 67.9ZM194.4 67.9L195.4 67.9L192.6 78.3L191.6 78.3L194.4 67.9Z M205.6 77.1L205.6 77.1Q204.5 77.1 203.6 76.6Q202.7 76.0 202.2 75.0Q201.7 74.0 201.7 72.6L201.7 72.6Q201.7 71.3 202.2 70.2Q202.7 69.2 203.6 68.7Q204.5 68.2 205.6 68.2L205.6 68.2Q206.3 68.2 206.9 68.4Q207.5 68.6 207.9 68.9Q208.4 69.3 208.7 69.8Q209.0 70.4 209.2 71.0L209.2 71.0L208.0 71.0Q207.9 70.6 207.7 70.3Q207.4 69.9 207.1 69.7Q206.8 69.4 206.4 69.3Q206.0 69.2 205.6 69.2L205.6 69.2Q204.8 69.2 204.2 69.6Q203.6 70.0 203.2 70.7Q202.8 71.5 202.8 72.6L202.8 72.6Q202.8 73.8 203.2 74.5Q203.6 75.3 204.2 75.7Q204.8 76.1 205.6 76.1L205.6 76.1Q206.4 76.1 206.9 75.8Q207.5 75.5 207.8 74.9L207.8 74.9Q208.1 74.3 208.1 73.6L208.1 73.6L205.9 73.6L205.9 72.6L209.2 72.6L209.2 73.6Q209.2 74.7 208.8 75.4Q208.3 76.2 207.5 76.7Q206.7 77.1 205.6 77.1ZM212.0 68.3L213.1 68.3L213.1 77L212.0 77L212.0 68.3ZM218.5 69.3L215.8 69.3L215.8 68.3L222.4 68.3L222.4 69.3L219.6 69.3L219.6 77L218.5 77L218.5 69.3ZM226.1 77L225 77L225 68.3L226.1 68.3L226.1 72.0L230.7 72.0L230.7 68.3L231.8 68.3L231.8 77L230.7 77L230.7 73.0L226.1 73.0L226.1 77ZM238.3 77.1L238.3 77.1Q237.3 77.1 236.5 76.7Q235.8 76.3 235.3 75.6Q234.9 74.9 234.9 74.0L234.9 74.0L234.9 68.3L236.0 68.3L236.0 73.9Q236.0 74.6 236.3 75.1Q236.6 75.5 237.1 75.8Q237.6 76.1 238.3 76.1L238.3 76.1Q239.0 76.1 239.6 75.8Q240.1 75.5 240.3 75.1Q240.6 74.6 240.6 73.9L240.6 73.9L240.6 68.3L241.7 68.3L241.7 74.0Q241.7 74.9 241.3 75.6Q240.9 76.3 240.1 76.7Q239.4 77.1 238.3 77.1ZM248.0 77L244.8 77L244.8 68.3L247.9 68.3Q248.9 68.3 249.5 68.6Q250.0 68.9 250.3 69.4Q250.6 69.9 250.6 70.6L250.6 70.6Q250.6 71.1 250.4 71.5Q250.2 71.9 249.9 72.1Q249.6 72.3 249.2 72.4L249.2 72.4L249.2 72.5Q249.6 72.5 250.0 72.8Q250.4 73.0 250.7 73.5Q251.0 74.0 251.0 74.7L251.0 74.7Q251.0 75.3 250.7 75.9Q250.4 76.4 249.7 76.7Q249.1 77 248.0 77L248.0 77ZM246.0 73.0L246.0 76.0L248.0 76.0Q249.0 76.0 249.5 75.6Q249.9 75.2 249.9 74.7L249.9 74.7Q249.9 74.2 249.7 73.9Q249.4 73.5 249.0 73.3Q248.6 73.0 248.1 73.0L248.1 73.0L246.0 73.0ZM246.0 69.3L246.0 72.1L247.9 72.1Q248.4 72.1 248.7 71.9Q249.1 71.7 249.3 71.4Q249.6 71.1 249.6 70.6L249.6 70.6Q249.6 70.0 249.2 69.6Q248.8 69.3 247.9 69.3L247.9 69.3L246.0 69.3Z M259.2 77L258.1 77L258.1 68.3L261.1 68.3Q262.1 68.3 262.7 68.6Q263.4 69.0 263.7 69.6Q264.0 70.3 264.0 71.0Q264.0 71.8 263.7 72.5Q263.4 73.1 262.7 73.5Q262.1 73.8 261.1 73.8L261.1 73.8L259.2 73.8L259.2 77ZM259.2 69.2L259.2 72.9L261.0 72.9Q261.7 72.9 262.1 72.6Q262.6 72.4 262.7 72.0Q262.9 71.6 262.9 71.0Q262.9 70.5 262.7 70.1Q262.6 69.7 262.1 69.5Q261.7 69.2 261.0 69.2L261.0 69.2L259.2 69.2ZM267.9 77L266.7 77L266.7 68.3L269.7 68.3Q270.7 68.3 271.4 68.6Q272.1 69.0 272.4 69.6Q272.7 70.2 272.7 71.0Q272.7 71.7 272.4 72.3Q272.1 72.9 271.4 73.3L271.4 73.3Q271.3 73.4 271.1 73.4L271.1 73.4L273.0 77L271.8 77L269.9 73.6Q269.8 73.6 269.7 73.6L269.7 73.6L267.9 73.6L267.9 77ZM267.9 69.2L267.9 72.6L269.7 72.6Q270.4 72.6 270.8 72.4Q271.2 72.2 271.4 71.8Q271.6 71.5 271.6 71.0L271.6 71.0Q271.6 70.4 271.4 70.1Q271.2 69.7 270.8 69.5Q270.4 69.2 269.7 69.2L269.7 69.2L267.9 69.2ZM279 77.1L279 77.1Q277.9 77.1 277.0 76.6Q276.1 76.0 275.6 75.0Q275.1 74.0 275.1 72.6L275.1 72.6Q275.1 71.3 275.6 70.2Q276.1 69.2 277.0 68.7Q277.9 68.2 279 68.2L279 68.2Q280.1 68.2 281.0 68.7Q281.9 69.2 282.4 70.2Q282.9 71.3 282.9 72.6L282.9 72.6Q282.9 74.0 282.4 75.0Q281.9 76.0 281.0 76.6Q280.1 77.1 279 77.1ZM279 76.1L279 76.1Q279.8 76.1 280.4 75.7Q281.0 75.3 281.4 74.5Q281.8 73.8 281.8 72.6L281.8 72.6Q281.8 71.5 281.4 70.7Q281.0 70.0 280.4 69.6Q279.8 69.2 279 69.2L279 69.2Q278.2 69.2 277.6 69.6Q276.9 70.0 276.6 70.8Q276.2 71.5 276.2 72.6L276.2 72.6Q276.2 73.8 276.6 74.5Q276.9 75.3 277.6 75.7Q278.2 76.1 279 76.1ZM286.8 77L285.6 77L285.6 68.3L290.9 68.3L290.9 69.3L286.8 69.3L286.8 72.2L290.5 72.2L290.5 73.2L286.8 73.2L286.8 77ZM293.7 68.3L294.8 68.3L294.8 77L293.7 77L293.7 68.3ZM303.1 77L297.9 77L297.9 68.3L299.1 68.3L299.1 76.0L303.1 76.0L303.1 77ZM311.1 77L305.7 77L305.7 68.3L311.0 68.3L311.0 69.3L306.8 69.3L306.8 72.1L310.8 72.1L310.8 73.1L306.8 73.1L306.8 76.0L311.1 76.0L311.1 77Z "/></g><mask id="satori_om-id-1-1"><rect x="49" y="118" width="633" height="174" fill="#fff" mask="url(#satori_om-id)"/></mask><mask id="satori_om-id-1-1-0"><rect x="49" y="118" width="633" height="56" fill="#fff" mask="url(#satori_om-id)"/></mask><g mask="url(#satori_om-id)" clip-path="url(#satori_cp-id)"><path fill="#F4F4F5" d="M60.6 165L52.6 165L52.6 125.7L60.6 125.7L60.6 141.6L77.7 141.6L77.7 125.7L85.8 125.7L85.8 165L77.7 165L77.7 148.3L60.6 148.3L60.6 165ZM99.8 165L91.9 165L91.9 135.5L99.8 135.5L99.8 165ZM95.9 131.7L95.9 131.7Q94.1 131.7 92.8 130.5Q91.5 129.3 91.5 127.6L91.5 127.6Q91.5 125.9 92.8 124.7Q94.1 123.6 95.9 123.6L95.9 123.6Q97.7 123.6 98.9 124.7Q100.2 125.9 100.2 127.6L100.2 127.6Q100.2 129.3 98.9 130.5Q97.7 131.7 95.9 131.7ZM110.9 175.4L105.5 175.4L107.8 159.1L115.7 159.1L110.9 175.4Z M135.2 125.7L143.2 125.7L143.2 165L135.2 165L135.2 125.7ZM158.1 142.1L152.1 142.1L151.3 125.7L158.9 125.7L158.1 142.1ZM174.7 165L166.8 165L166.8 135.5L174.2 135.5L174.5 141.2Q175.1 139.6 176.0 138.4L176.0 138.4Q177.3 136.7 179.1 135.9Q180.9 135.1 182.9 135.1L182.9 135.1Q186.1 135.1 188.0 137.1L188.0 137.1Q189.6 138.7 190.5 141.7L190.5 141.7Q191.1 139.9 192.1 138.7L192.1 138.7Q193.6 136.8 195.7 136.0Q197.7 135.1 200.0 135.1L200.0 135.1Q202.7 135.1 204.8 136.3Q206.9 137.4 208.1 139.7Q209.4 141.9 209.4 145.1L209.4 145.1L209.4 165L201.5 165L201.5 146.6Q201.5 144.1 200.1 142.9Q198.7 141.7 196.8 141.7L196.8 141.7Q195.3 141.7 194.2 142.3Q193.1 143.0 192.5 144.1Q191.9 145.3 191.9 146.9L191.9 146.9L191.9 165L184.3 165L184.3 146.4Q184.3 144.2 183.0 143.0Q181.7 141.7 179.7 141.7L179.7 141.7Q178.3 141.7 177.2 142.3Q176.0 143.0 175.4 144.2Q174.7 145.4 174.7 147.2L174.7 147.2L174.7 165Z M235.5 165L227.5 165L227.5 125.7L239.8 125.7L246.2 143.7Q246.6 145.0 247.1 147.0Q247.6 149.0 248.2 151.3L248.2 151.3Q248.7 153.6 249.1 155.7L249.1 155.7Q249.6 153.6 250.1 151.4L250.1 151.4Q250.6 149.1 251.1 147.0Q251.6 145.0 252.0 143.7L252.0 143.7L258.3 125.7L270.7 125.7L270.7 165L262.6 165L262.6 146.5Q262.6 145.2 262.6 143.3Q262.7 141.3 262.8 139.1Q262.8 136.9 262.9 134.6L262.9 134.6Q262.9 133.6 262.9 132.6L262.9 132.6Q262.6 133.8 262.3 134.9L262.3 134.9Q261.7 137.2 261.1 139.4Q260.5 141.6 259.9 143.4Q259.4 145.3 259.0 146.5L259.0 146.5L252.5 165L245.7 165L239.1 146.5Q238.7 145.3 238.1 143.5Q237.6 141.7 237.0 139.5Q236.3 137.3 235.7 134.9L235.7 134.9Q235.4 133.9 235.2 132.9L235.2 132.9Q235.2 133.7 235.2 134.5L235.2 134.5Q235.3 136.8 235.3 139.0Q235.4 141.3 235.4 143.2Q235.5 145.1 235.5 146.5L235.5 146.5L235.5 165ZM285.0 165.6L285.0 165.6Q282.2 165.6 280.0 164.6Q277.8 163.6 276.5 161.6Q275.2 159.7 275.2 156.7L275.2 156.7Q275.2 154.3 276.1 152.6Q277.0 151.0 278.6 150.0Q280.2 149.0 282.2 148.4Q284.2 147.9 286.4 147.7L286.4 147.7Q288.9 147.4 290.5 147.2Q292.1 147.0 292.8 146.5Q293.5 146.0 293.5 145.1L293.5 145.1L293.5 144.9Q293.5 143.7 293.0 142.8Q292.4 141.9 291.4 141.5Q290.4 141.0 288.9 141.0L288.9 141.0Q287.4 141.0 286.2 141.5Q285.1 141.9 284.4 142.7Q283.7 143.5 283.3 144.4L283.3 144.4L276.1 143.2Q276.8 140.6 278.6 138.8Q280.4 137.1 283.0 136.1Q285.6 135.2 288.9 135.2L288.9 135.2Q291.3 135.2 293.5 135.7Q295.8 136.3 297.5 137.5Q299.3 138.7 300.4 140.6Q301.4 142.5 301.4 145.1L301.4 145.1L301.4 165L293.9 165L293.9 160.9L293.7 160.9Q292.9 162.3 291.8 163.3Q290.6 164.4 288.9 165.0Q287.2 165.6 285.0 165.6ZM287.3 160.0L287.3 160.0Q289.2 160.0 290.6 159.3Q292.0 158.5 292.8 157.3Q293.6 156.0 293.6 154.5L293.6 154.5L293.6 151.3Q293.2 151.5 292.5 151.7Q291.8 151.9 290.9 152.1Q290.0 152.3 289.2 152.4Q288.4 152.5 287.7 152.6L287.7 152.6Q286.3 152.8 285.1 153.3Q284.0 153.8 283.4 154.5Q282.8 155.3 282.8 156.5L282.8 156.5Q282.8 157.7 283.4 158.4Q284.0 159.2 285.0 159.6Q286.0 160.0 287.3 160.0ZM315.3 165L307.4 165L307.4 135.5L315.0 135.5L315.0 140.7L315.3 140.7Q316.1 137.9 318.1 136.5Q320.0 135.1 322.4 135.1L322.4 135.1Q323.0 135.1 323.8 135.2Q324.5 135.3 325.0 135.4L325.0 135.4L325.0 142.5Q324.5 142.3 323.5 142.2Q322.5 142.1 321.6 142.1L321.6 142.1Q319.8 142.1 318.3 142.8Q316.9 143.6 316.1 145.0Q315.3 146.4 315.3 148.2L315.3 148.2L315.3 165ZM345.8 165L336.9 165L326.0 135.5L334.4 135.5L339.4 150.8Q340.3 153.7 340.9 156.6L340.9 156.6Q341.2 157.7 341.4 158.9L341.4 158.9Q341.7 157.7 342.0 156.6L342.0 156.6Q342.6 153.7 343.5 150.8L343.5 150.8L348.4 135.5L356.7 135.5L345.8 165ZM368.0 165L360.1 165L360.1 135.5L368.0 135.5L368.0 165ZM364.1 131.7L364.1 131.7Q362.3 131.7 361.0 130.5Q359.8 129.3 359.8 127.6L359.8 127.6Q359.8 125.9 361.0 124.7Q362.3 123.6 364.1 123.6L364.1 123.6Q365.9 123.6 367.2 124.7Q368.4 125.9 368.4 127.6L368.4 127.6Q368.4 129.3 367.2 130.5Q365.9 131.7 364.1 131.7ZM381.9 147.9L381.9 147.9L381.9 165L374.0 165L374.0 135.5L381.4 135.5L381.5 141.6Q382.7 138.8 384.6 137.2L384.6 137.2Q387.0 135.2 390.7 135.2L390.7 135.2Q393.8 135.2 396.0 136.5Q398.3 137.8 399.6 140.3Q400.8 142.8 400.8 146.3L400.8 146.3L400.8 165L392.9 165L392.9 147.6Q392.9 144.9 391.5 143.3Q390.1 141.8 387.6 141.8L387.6 141.8Q385.9 141.8 384.6 142.5Q383.3 143.2 382.6 144.6Q381.9 146.0 381.9 147.9Z M436.1 165.5L436.1 165.5Q430.9 165.5 426.8 163.2Q422.6 160.8 420.3 156.3Q417.9 151.8 417.9 145.4L417.9 145.4Q417.9 139.0 420.3 134.5Q422.7 129.9 426.8 127.6Q431.0 125.2 436.1 125.2L436.1 125.2Q439.5 125.2 442.4 126.1Q445.2 127.1 447.5 128.9Q449.7 130.6 451.1 133.2Q452.6 135.8 453.0 139.2L453.0 139.2L444.9 139.2Q444.6 137.5 443.9 136.3Q443.1 135.0 442.0 134.1Q440.9 133.3 439.4 132.8Q438.0 132.3 436.3 132.3L436.3 132.3Q433.2 132.3 430.9 133.9Q428.6 135.4 427.3 138.3Q426.0 141.2 426.0 145.4L426.0 145.4Q426.0 149.6 427.3 152.5Q428.6 155.4 430.9 156.9Q433.2 158.4 436.3 158.4L436.3 158.4Q437.9 158.4 439.4 157.9Q440.8 157.5 442.0 156.6Q443.1 155.7 443.9 154.4Q444.6 153.2 444.9 151.6L444.9 151.6L453.0 151.6Q452.7 154.3 451.4 156.8Q450.1 159.3 448.0 161.3Q445.8 163.3 442.8 164.4Q439.8 165.5 436.1 165.5ZM465.8 147.9L465.8 147.9L465.8 165L457.9 165L457.9 125.7L465.7 125.7L465.7 141.2Q466.8 138.7 468.6 137.2L468.6 137.2Q470.9 135.2 474.7 135.2L474.7 135.2Q477.7 135.2 480.0 136.5Q482.3 137.8 483.5 140.3Q484.8 142.8 484.8 146.3L484.8 146.3L484.8 165L476.9 165L476.9 147.6Q476.9 144.9 475.5 143.3Q474.1 141.8 471.5 141.8L471.5 141.8Q469.9 141.8 468.6 142.5Q467.3 143.2 466.6 144.6Q465.8 146.0 465.8 147.9ZM499.0 165.6L499.0 165.6Q496.2 165.6 493.9 164.6Q491.7 163.6 490.4 161.6Q489.2 159.7 489.2 156.7L489.2 156.7Q489.2 154.3 490.1 152.6Q491.0 151.0 492.5 150.0Q494.1 149.0 496.1 148.4Q498.1 147.9 500.3 147.7L500.3 147.7Q502.8 147.4 504.4 147.2Q506.0 147.0 506.7 146.5Q507.4 146.0 507.4 145.1L507.4 145.1L507.4 144.9Q507.4 143.7 506.9 142.8Q506.4 141.9 505.3 141.5Q504.3 141.0 502.8 141.0L502.8 141.0Q501.3 141.0 500.1 141.5Q499.0 141.9 498.3 142.7Q497.6 143.5 497.2 144.4L497.2 144.4L490.0 143.2Q490.8 140.6 492.5 138.8Q494.3 137.1 496.9 136.1Q499.5 135.2 502.8 135.2L502.8 135.2Q505.2 135.2 507.5 135.7Q509.7 136.3 511.5 137.5Q513.3 138.7 514.3 140.6Q515.3 142.5 515.3 145.1L515.3 145.1L515.3 165L507.8 165L507.8 160.9L507.6 160.9Q506.9 162.3 505.7 163.3Q504.5 164.4 502.8 165.0Q501.1 165.6 499.0 165.6ZM501.2 160.0L501.2 160.0Q503.1 160.0 504.5 159.3Q505.9 158.5 506.7 157.3Q507.5 156.0 507.5 154.5L507.5 154.5L507.5 151.3Q507.1 151.5 506.4 151.7Q505.7 151.9 504.8 152.1Q504.0 152.3 503.1 152.4Q502.3 152.5 501.6 152.6L501.6 152.6Q500.2 152.8 499.1 153.3Q498.0 153.8 497.4 154.5Q496.7 155.3 496.7 156.5L496.7 156.5Q496.7 157.7 497.3 158.4Q497.9 159.2 498.9 159.6Q499.9 160.0 501.2 160.0ZM529.2 147.9L529.2 147.9L529.2 165L521.3 165L521.3 135.5L528.7 135.5L528.9 141.6Q530.0 138.8 531.9 137.2L531.9 137.2Q534.3 135.2 538.0 135.2L538.0 135.2Q541.1 135.2 543.4 136.5Q545.6 137.8 546.9 140.3Q548.2 142.8 548.2 146.3L548.2 146.3L548.2 165L540.2 165L540.2 147.6Q540.2 144.9 538.8 143.3Q537.4 141.8 534.9 141.8L534.9 141.8Q533.3 141.8 532.0 142.5Q530.6 143.2 529.9 144.6Q529.2 146.0 529.2 147.9ZM564.9 165.5L564.9 165.5Q561.5 165.5 558.8 163.7Q556.0 162.0 554.4 158.6Q552.9 155.2 552.9 150.3L552.9 150.3Q552.9 145.3 554.5 141.9Q556.1 138.5 558.8 136.8Q561.6 135.2 564.8 135.2L564.8 135.2Q567.3 135.2 569.0 136.0Q570.7 136.8 571.7 138.1Q572.7 139.3 573.2 140.5L573.2 140.5L573.5 140.5L573.5 125.7L581.4 125.7L581.4 165L573.6 165L573.6 160.3L573.2 160.3Q572.7 161.5 571.7 162.7Q570.6 163.9 568.9 164.7Q567.3 165.5 564.9 165.5ZM567.3 159.1L567.3 159.1Q569.3 159.1 570.7 158.0Q572.2 156.9 572.9 154.9Q573.6 153.0 573.6 150.3L573.6 150.3Q573.6 147.6 572.9 145.6Q572.2 143.7 570.8 142.6Q569.3 141.5 567.3 141.5L567.3 141.5Q565.2 141.5 563.8 142.6Q562.4 143.7 561.7 145.7Q561.0 147.7 561.0 150.3L561.0 150.3Q561.0 152.9 561.7 154.9Q562.4 156.9 563.8 158.0Q565.3 159.1 567.3 159.1ZM595.3 165L587.3 165L587.3 135.5L595.3 135.5L595.3 165ZM591.3 131.7L591.3 131.7Q589.5 131.7 588.2 130.5Q587.0 129.3 587.0 127.6L587.0 127.6Q587.0 125.9 588.2 124.7Q589.5 123.6 591.3 123.6L591.3 123.6Q593.1 123.6 594.4 124.7Q595.6 125.9 595.6 127.6L595.6 127.6Q595.6 129.3 594.4 130.5Q593.1 131.7 591.3 131.7ZM609.4 165.6L609.4 165.6Q606.6 165.6 604.4 164.6Q602.2 163.6 600.9 161.6Q599.6 159.7 599.6 156.7L599.6 156.7Q599.6 154.3 600.5 152.6Q601.4 151.0 603.0 150.0Q604.6 149.0 606.5 148.4Q608.5 147.9 610.7 147.7L610.7 147.7Q613.3 147.4 614.8 147.2Q616.4 147.0 617.1 146.5Q617.9 146.0 617.9 145.1L617.9 145.1L617.9 144.9Q617.9 143.7 617.3 142.8Q616.8 141.9 615.8 141.5Q614.7 141.0 613.3 141.0L613.3 141.0Q611.7 141.0 610.6 141.5Q609.5 141.9 608.7 142.7Q608.0 143.5 607.7 144.4L607.7 144.4L600.4 143.2Q601.2 140.6 603.0 138.8Q604.7 137.1 607.4 136.1Q610.0 135.2 613.3 135.2L613.3 135.2Q615.7 135.2 617.9 135.7Q620.1 136.3 621.9 137.5Q623.7 138.7 624.7 140.6Q625.8 142.5 625.8 145.1L625.8 145.1L625.8 165L618.3 165L618.3 160.9L618.0 160.9Q617.3 162.3 616.1 163.3Q614.9 164.4 613.3 165.0Q611.6 165.6 609.4 165.6ZM611.6 160.0L611.6 160.0Q613.5 160.0 614.9 159.3Q616.3 158.5 617.1 157.3Q617.9 156.0 617.9 154.5L617.9 154.5L617.9 151.3Q617.6 151.5 616.9 151.7Q616.2 151.9 615.3 152.1Q614.4 152.3 613.6 152.4Q612.7 152.5 612.1 152.6L612.1 152.6Q610.6 152.8 609.5 153.3Q608.4 153.8 607.8 154.5Q607.2 155.3 607.2 156.5L607.2 156.5Q607.2 157.7 607.8 158.4Q608.3 159.2 609.4 159.6Q610.4 160.0 611.6 160.0ZM639.6 165L631.7 165L631.7 135.5L639.4 135.5L639.4 140.7L639.7 140.7Q640.5 137.9 642.4 136.5Q644.3 135.1 646.8 135.1L646.8 135.1Q647.4 135.1 648.1 135.2Q648.8 135.3 649.4 135.4L649.4 135.4L649.4 142.5Q648.8 142.3 647.8 142.2Q646.8 142.1 645.9 142.1L645.9 142.1Q644.1 142.1 642.7 142.8Q641.2 143.6 640.4 145.0Q639.6 146.4 639.6 148.2L639.6 148.2L639.6 165ZM652.7 175.4L652.7 175.4L654.5 169.5L655.5 169.7Q657.1 170.1 658.3 170.0Q659.6 169.8 660.3 169.0Q661.1 168.1 661.2 166.7L661.2 166.7L661.4 165.1L650.4 135.5L658.8 135.5L663.7 150.8Q664.6 153.7 665.2 156.6L665.2 156.6Q665.4 157.6 665.6 158.6L665.6 158.6Q665.8 157.6 666.1 156.6L666.1 156.6Q666.8 153.7 667.7 150.8L667.7 150.8L672.9 135.5L681.2 135.5L668.7 168.5Q667.8 170.9 666.4 172.6Q665.0 174.3 662.9 175.3Q660.8 176.2 657.9 176.2L657.9 176.2Q656.3 176.2 654.9 176.0Q653.6 175.8 652.7 175.4Z "/></g><mask id="satori_om-id-1-1-1"><rect x="49" y="188" width="633" height="30" fill="#fff" mask="url(#satori_om-id)"/></mask><g mask="url(#satori_om-id)" clip-path="url(#satori_cp-id)"><path fill="#A6ADBB" d="M50.9 195.0L53.0 195.0L53.0 211L50.9 211L50.9 195.0ZM58.5 203.8L58.5 203.8L58.5 211L56.6 211L56.6 199.0L58.5 199.0L58.5 201.2Q59.0 200.1 59.8 199.5L59.8 199.5Q60.8 198.8 62.1 198.8L62.1 198.8Q63.4 198.8 64.3 199.3Q65.2 199.8 65.7 200.8Q66.2 201.8 66.2 203.4L66.2 203.4L66.2 211L64.3 211L64.3 203.5Q64.3 202.1 63.6 201.4Q62.8 200.6 61.6 200.6L61.6 200.6Q60.7 200.6 60.0 201.0Q59.3 201.3 58.9 202.1Q58.5 202.8 58.5 203.8ZM72.4 199.0L75.2 199.0L75.2 200.6L72.4 200.6L72.4 211L70.5 211L70.5 200.6L68.1 200.6L68.1 199.0L70.5 199.0L70.5 197.4Q70.5 196.3 71.0 195.6Q71.5 195.0 72.2 194.6Q73.0 194.2 73.9 194.2L73.9 194.2Q74.6 194.2 75.0 194.4Q75.5 194.5 75.7 194.6L75.7 194.6L75.2 196.2Q75.0 196.2 74.8 196.1Q74.5 196.0 74.1 196.0L74.1 196.0Q73.2 196.0 72.8 196.5Q72.4 196.9 72.4 197.8L72.4 197.8L72.4 199.0ZM82.6 211.3L82.6 211.3Q81.0 211.3 79.8 210.5Q78.5 209.7 77.9 208.3Q77.2 206.9 77.2 205.1L77.2 205.1Q77.2 203.2 77.9 201.8Q78.5 200.4 79.8 199.6Q81.0 198.8 82.6 198.8L82.6 198.8Q84.3 198.8 85.5 199.6Q86.7 200.4 87.4 201.8Q88.1 203.2 88.1 205.1L88.1 205.1Q88.1 206.9 87.4 208.3Q86.7 209.7 85.5 210.5Q84.3 211.3 82.6 211.3ZM82.6 209.5L82.6 209.5Q83.8 209.5 84.6 208.9Q85.4 208.3 85.8 207.3Q86.2 206.3 86.2 205.1L86.2 205.1Q86.2 203.9 85.8 202.9Q85.4 201.8 84.6 201.2Q83.8 200.6 82.6 200.6L82.6 200.6Q81.4 200.6 80.7 201.2Q79.9 201.8 79.5 202.8Q79.1 203.9 79.1 205.1L79.1 205.1Q79.1 206.3 79.5 207.3Q79.9 208.3 80.7 208.9Q81.4 209.5 82.6 209.5ZM92.9 211L90.9 211L90.9 199.0L92.8 199.0L92.8 200.8L92.9 200.8Q93.3 199.9 94.1 199.4Q95.0 198.8 96.1 198.8L96.1 198.8Q96.3 198.8 96.6 198.8Q96.9 198.8 97.0 198.9L97.0 198.9L97.0 200.8Q96.9 200.8 96.6 200.7Q96.3 200.7 95.9 200.7L95.9 200.7Q95.0 200.7 94.3 201.0Q93.6 201.4 93.3 202.0Q92.9 202.7 92.9 203.5L92.9 203.5L92.9 211ZM101.2 211L99.2 211L99.2 199.0L101.1 199.0L101.1 201.2Q101.3 200.5 101.7 200.1L101.7 200.1Q102.3 199.4 103.0 199.1Q103.7 198.8 104.5 198.8L104.5 198.8Q105.8 198.8 106.6 199.6L106.6 199.6Q107.3 200.2 107.5 201.2L107.5 201.2Q107.8 200.6 108.2 200.1L108.2 200.1Q108.7 199.5 109.5 199.1Q110.4 198.8 111.3 198.8L111.3 198.8Q112.4 198.8 113.2 199.2Q114.1 199.7 114.6 200.6Q115.1 201.5 115.1 202.9L115.1 202.9L115.1 211L113.2 211L113.2 203.0Q113.2 201.7 112.4 201.1Q111.7 200.5 110.7 200.5L110.7 200.5Q109.9 200.5 109.3 200.9Q108.8 201.2 108.4 201.8Q108.1 202.4 108.1 203.2L108.1 203.2L108.1 211L106.2 211L106.2 202.8Q106.2 201.8 105.5 201.1Q104.9 200.5 103.8 200.5L103.8 200.5Q103.1 200.5 102.5 200.9Q101.9 201.2 101.5 201.8Q101.2 202.5 101.2 203.4L101.2 203.4L101.2 211ZM121.9 211.3L121.9 211.3Q120.7 211.3 119.8 210.8Q118.9 210.4 118.3 209.6Q117.8 208.8 117.8 207.6L117.8 207.6Q117.8 206.6 118.2 205.9Q118.6 205.3 119.3 204.9Q119.9 204.5 120.8 204.3Q121.6 204.2 122.4 204.0L122.4 204.0Q123.5 203.9 124.2 203.8Q124.9 203.8 125.2 203.6Q125.5 203.4 125.5 203.0L125.5 203.0L125.5 202.9Q125.5 202.1 125.2 201.6Q125.0 201.1 124.4 200.8Q123.8 200.5 123.0 200.5L123.0 200.5Q122.1 200.5 121.5 200.8Q120.9 201.1 120.5 201.5Q120.2 201.9 120.0 202.3L120.0 202.3L118.1 201.7Q118.6 200.6 119.4 200.0Q120.1 199.4 121.1 199.1Q122.0 198.8 122.9 198.8L122.9 198.8Q123.6 198.8 124.3 199.0Q125.1 199.1 125.8 199.6Q126.5 200.0 127.0 200.8Q127.5 201.7 127.5 203.1L127.5 203.1L127.5 211L125.5 211L125.5 209.4L125.4 209.4Q125.2 209.8 124.8 210.2Q124.3 210.7 123.6 211.0Q122.9 211.3 121.9 211.3ZM122.2 209.6L122.2 209.6Q123.3 209.6 124.0 209.2Q124.7 208.7 125.1 208.1Q125.5 207.4 125.5 206.7L125.5 206.7L125.5 205.0Q125.4 205.1 125.0 205.2Q124.6 205.4 124.1 205.4Q123.6 205.5 123.1 205.6Q122.6 205.7 122.3 205.7L122.3 205.7Q121.6 205.8 121.0 206.0Q120.4 206.2 120.1 206.6Q119.7 207.0 119.7 207.7L119.7 207.7Q119.7 208.3 120.0 208.7Q120.3 209.1 120.9 209.4Q121.5 209.6 122.2 209.6ZM133.1 199.0L135.6 199.0L135.6 200.6L133.1 200.6L133.1 207.9Q133.1 208.7 133.4 209.1Q133.8 209.4 134.5 209.4L134.5 209.4Q134.7 209.4 135.0 209.4Q135.3 209.3 135.5 209.3L135.5 209.3L135.9 210.9Q135.6 211.0 135.2 211.1Q134.8 211.2 134.5 211.2L134.5 211.2Q132.9 211.2 132.0 210.3Q131.2 209.5 131.2 208.0L131.2 208.0L131.2 200.6L129.4 200.6L129.4 199.0L131.2 199.0L131.2 196.1L133.1 196.1L133.1 199.0ZM140.0 211L138.0 211L138.0 199.0L140.0 199.0L140.0 211ZM139.0 197.0L139.0 197.0Q138.5 197.0 138.1 196.6Q137.7 196.3 137.7 195.7L137.7 195.7Q137.7 195.2 138.1 194.8Q138.5 194.5 139.0 194.5L139.0 194.5Q139.6 194.5 140.0 194.8Q140.4 195.2 140.4 195.7L140.4 195.7Q140.4 196.3 140.0 196.6Q139.6 197.0 139.0 197.0ZM148.3 211.3L148.3 211.3Q146.6 211.3 145.4 210.5Q144.2 209.7 143.5 208.3Q142.8 206.9 142.8 205.1L142.8 205.1Q142.8 203.2 143.5 201.8Q144.2 200.4 145.4 199.6Q146.6 198.8 148.3 198.8L148.3 198.8Q149.9 198.8 151.1 199.6Q152.4 200.4 153.1 201.8Q153.7 203.2 153.7 205.1L153.7 205.1Q153.7 206.9 153.1 208.3Q152.4 209.7 151.1 210.5Q149.9 211.3 148.3 211.3ZM148.3 209.5L148.3 209.5Q149.5 209.5 150.3 208.9Q151.0 208.3 151.4 207.3Q151.8 206.3 151.8 205.1L151.8 205.1Q151.8 203.9 151.4 202.9Q151.0 201.8 150.3 201.2Q149.5 200.6 148.3 200.6L148.3 200.6Q147.1 200.6 146.3 201.2Q145.5 201.8 145.1 202.8Q144.8 203.9 144.8 205.1L144.8 205.1Q144.8 206.3 145.1 207.3Q145.5 208.3 146.3 208.9Q147.1 209.5 148.3 209.5ZM158.5 203.8L158.5 203.8L158.5 211L156.6 211L156.6 199.0L158.4 199.0L158.4 201.2Q158.9 200.1 159.7 199.5L159.7 199.5Q160.7 198.8 162.1 198.8L162.1 198.8Q163.3 198.8 164.2 199.3Q165.1 199.8 165.7 200.8Q166.2 201.8 166.2 203.4L166.2 203.4L166.2 211L164.2 211L164.2 203.5Q164.2 202.1 163.5 201.4Q162.8 200.6 161.5 200.6L161.5 200.6Q160.7 200.6 160.0 201.0Q159.3 201.3 158.9 202.1Q158.5 202.8 158.5 203.8Z M181.1 211.3L181.1 211.3Q179.4 211.3 178.1 210.7Q176.8 210.2 176.1 209.2Q175.4 208.2 175.3 206.8L175.3 206.8L177.4 206.8Q177.5 207.7 178.0 208.3Q178.5 208.9 179.4 209.2Q180.2 209.5 181.1 209.5L181.1 209.5Q182.2 209.5 183.1 209.1Q183.9 208.7 184.4 208.1Q184.9 207.5 184.9 206.6L184.9 206.6Q184.9 205.8 184.5 205.3Q184.1 204.9 183.3 204.6Q182.6 204.2 181.8 204.0L181.8 204.0L179.8 203.5Q177.9 202.9 176.8 201.9Q175.7 200.9 175.7 199.3L175.7 199.3Q175.7 197.9 176.5 196.9Q177.2 195.9 178.5 195.3Q179.7 194.8 181.2 194.8L181.2 194.8Q182.8 194.8 184.0 195.3Q185.3 195.9 186.0 196.9Q186.7 197.8 186.7 199.0L186.7 199.0L184.7 199.0Q184.6 197.9 183.6 197.2Q182.6 196.6 181.2 196.6L181.2 196.6Q180.2 196.6 179.4 196.9Q178.6 197.3 178.2 197.8Q177.7 198.4 177.7 199.2L177.7 199.2Q177.7 200.0 178.3 200.5Q178.8 201.0 179.5 201.3Q180.2 201.6 180.8 201.8L180.8 201.8L182.4 202.2Q183.0 202.4 183.8 202.7Q184.6 203.0 185.3 203.5Q186.0 204.0 186.5 204.8Q186.9 205.5 186.9 206.6L186.9 206.6Q186.9 207.9 186.2 209.0Q185.6 210.1 184.3 210.7Q183.0 211.3 181.1 211.3ZM189.7 215.4L189.7 215.4L190.2 213.7L190.4 213.7Q191.0 213.9 191.4 213.8Q191.9 213.7 192.3 213.3Q192.7 212.9 193.0 212.1L193.0 212.1L193.3 211.1L188.7 199.0L190.9 199.0L193.4 206.1Q193.8 207.2 194.1 208.3L194.1 208.3Q194.2 208.8 194.3 209.2L194.3 209.2Q194.5 208.8 194.6 208.3L194.6 208.3Q194.9 207.2 195.3 206.1L195.3 206.1L197.8 199.0L199.9 199.0L194.7 212.8Q194.3 213.8 193.8 214.4Q193.3 215.0 192.6 215.3Q191.9 215.6 191.1 215.6L191.1 215.6Q190.6 215.6 190.2 215.5Q189.8 215.4 189.7 215.4ZM206.3 211.3L206.3 211.3Q205.1 211.3 204.1 210.9Q203.2 210.5 202.5 209.8Q201.9 209.1 201.7 208.1L201.7 208.1L203.5 207.6Q203.8 208.6 204.5 209.1Q205.2 209.6 206.3 209.6L206.3 209.6Q207.5 209.6 208.3 209.0Q209.0 208.5 209.0 207.7L209.0 207.7Q209.0 207.1 208.6 206.7Q208.2 206.3 207.3 206.1L207.3 206.1L205.3 205.6Q203.6 205.2 202.8 204.4Q202.1 203.6 202.1 202.3L202.1 202.3Q202.1 201.3 202.6 200.5Q203.2 199.7 204.2 199.3Q205.2 198.8 206.5 198.8L206.5 198.8Q207.7 198.8 208.6 199.2Q209.5 199.6 210.0 200.2Q210.6 200.9 210.8 201.7L210.8 201.7L209.1 202.2Q208.8 201.5 208.2 201.0Q207.7 200.5 206.5 200.5L206.5 200.5Q205.4 200.5 204.7 201.0Q204.0 201.5 204.0 202.2L204.0 202.2Q204.0 202.9 204.5 203.3Q205.0 203.7 206.0 203.9L206.0 203.9L207.8 204.4Q209.5 204.8 210.3 205.6Q211.0 206.4 211.0 207.6L211.0 207.6Q211.0 208.7 210.4 209.5Q209.9 210.3 208.8 210.8Q207.7 211.3 206.3 211.3ZM216.1 199.0L218.6 199.0L218.6 200.6L216.1 200.6L216.1 207.9Q216.1 208.7 216.4 209.1Q216.8 209.4 217.5 209.4L217.5 209.4Q217.7 209.4 218.0 209.4Q218.3 209.3 218.5 209.3L218.5 209.3L218.9 210.9Q218.6 211.0 218.2 211.1Q217.8 211.2 217.5 211.2L217.5 211.2Q215.9 211.2 215.0 210.3Q214.2 209.5 214.2 208.0L214.2 208.0L214.2 200.6L212.4 200.6L212.4 199.0L214.2 199.0L214.2 196.1L216.1 196.1L216.1 199.0ZM226.1 211.3L226.1 211.3Q224.3 211.3 223.1 210.5Q221.8 209.7 221.1 208.3Q220.5 206.9 220.5 205.1Q220.5 203.2 221.1 201.8Q221.8 200.4 223.0 199.6Q224.2 198.8 225.9 198.8L225.9 198.8Q226.8 198.8 227.7 199.2Q228.7 199.5 229.4 200.2Q230.2 200.9 230.6 202.0Q231.1 203.2 231.1 204.8L231.1 204.8L231.1 205.7L222.4 205.7Q222.5 206.8 222.9 207.6L222.9 207.6Q223.3 208.6 224.2 209.1Q225 209.5 226.1 209.5L226.1 209.5Q226.8 209.5 227.4 209.3Q228.0 209.1 228.4 208.7Q228.8 208.3 229.0 207.7L229.0 207.7L230.9 208.2Q230.6 209.1 230.0 209.8Q229.3 210.5 228.3 210.9Q227.3 211.3 226.1 211.3ZM222.4 204.0L222.4 204.0L229.1 204.0Q229.0 203.2 228.8 202.5L228.8 202.5Q228.4 201.6 227.7 201.1Q226.9 200.6 225.9 200.6Q224.8 200.6 224.0 201.1Q223.2 201.6 222.8 202.5L222.8 202.5Q222.5 203.2 222.4 204.0ZM235.8 211L233.9 211L233.9 199.0L235.7 199.0L235.8 201.2Q236.0 200.5 236.4 200.1L236.4 200.1Q236.9 199.4 237.6 199.1Q238.3 198.8 239.1 198.8L239.1 198.8Q240.4 198.8 241.2 199.6L241.2 199.6Q241.9 200.2 242.2 201.2L242.2 201.2Q242.4 200.6 242.8 200.1L242.8 200.1Q243.4 199.5 244.2 199.1Q245.0 198.8 246.0 198.8L246.0 198.8Q247 198.8 247.9 199.2Q248.7 199.7 249.2 200.6Q249.7 201.5 249.7 202.9L249.7 202.9L249.7 211L247.8 211L247.8 203.0Q247.8 201.7 247.1 201.1Q246.3 200.5 245.4 200.5L245.4 200.5Q244.6 200.5 244.0 200.9Q243.4 201.2 243.1 201.8Q242.8 202.4 242.8 203.2L242.8 203.2L242.8 211L240.8 211L240.8 202.8Q240.8 201.8 240.2 201.1Q239.5 200.5 238.5 200.5L238.5 200.5Q237.8 200.5 237.2 200.9Q236.5 201.2 236.2 201.8Q235.8 202.5 235.8 203.4L235.8 203.4L235.8 211ZM257.2 211.3L257.2 211.3Q256.0 211.3 255.0 210.9Q254.1 210.5 253.4 209.8Q252.8 209.1 252.6 208.1L252.6 208.1L254.4 207.6Q254.7 208.6 255.4 209.1Q256.1 209.6 257.2 209.6L257.2 209.6Q258.5 209.6 259.2 209.0Q259.9 208.5 259.9 207.7L259.9 207.7Q259.9 207.1 259.5 206.7Q259.1 206.3 258.2 206.1L258.2 206.1L256.2 205.6Q254.6 205.2 253.8 204.4Q253.0 203.6 253.0 202.3L253.0 202.3Q253.0 201.3 253.5 200.5Q254.1 199.7 255.1 199.3Q256.1 198.8 257.4 198.8L257.4 198.8Q258.6 198.8 259.5 199.2Q260.4 199.6 260.9 200.2Q261.5 200.9 261.7 201.7L261.7 201.7L260.0 202.2Q259.7 201.5 259.2 201.0Q258.6 200.5 257.4 200.5L257.4 200.5Q256.3 200.5 255.6 201.0Q254.9 201.5 254.9 202.2L254.9 202.2Q254.9 202.9 255.4 203.3Q255.9 203.7 256.9 203.9L256.9 203.9L258.8 204.4Q260.4 204.8 261.2 205.6Q262.0 206.4 262.0 207.6L262.0 207.6Q262.0 208.7 261.4 209.5Q260.8 210.3 259.7 210.8Q258.6 211.3 257.2 211.3Z M276.3 211.3L276.3 211.3Q274.6 211.3 273.3 210.7Q272.0 210.2 271.3 209.2Q270.6 208.2 270.5 206.8L270.5 206.8L272.6 206.8Q272.7 207.7 273.2 208.3Q273.7 208.9 274.5 209.2Q275.4 209.5 276.3 209.5L276.3 209.5Q277.4 209.5 278.2 209.1Q279.1 208.7 279.6 208.1Q280.1 207.5 280.1 206.6L280.1 206.6Q280.1 205.8 279.7 205.3Q279.2 204.9 278.5 204.6Q277.8 204.2 276.9 204.0L276.9 204.0L275.0 203.5Q273.1 202.9 272.0 201.9Q270.9 200.9 270.9 199.3L270.9 199.3Q270.9 197.9 271.7 196.9Q272.4 195.9 273.6 195.3Q274.9 194.8 276.4 194.8L276.4 194.8Q278.0 194.8 279.2 195.3Q280.4 195.9 281.1 196.9Q281.8 197.8 281.9 199.0L281.9 199.0L279.9 199.0Q279.8 197.9 278.8 197.2Q277.8 196.6 276.4 196.6L276.4 196.6Q275.3 196.6 274.6 196.9Q273.8 197.3 273.4 197.8Q272.9 198.4 272.9 199.2L272.9 199.2Q272.9 200.0 273.4 200.5Q274.0 201.0 274.7 201.3Q275.4 201.6 276.0 201.8L276.0 201.8L277.6 202.2Q278.2 202.4 279.0 202.7Q279.8 203.0 280.5 203.5Q281.2 204.0 281.6 204.8Q282.1 205.5 282.1 206.6L282.1 206.6Q282.1 207.9 281.4 209.0Q280.7 210.1 279.4 210.7Q278.1 211.3 276.3 211.3ZM287.3 199.0L289.8 199.0L289.8 200.6L287.3 200.6L287.3 207.9Q287.3 208.7 287.6 209.1Q288.0 209.4 288.7 209.4L288.7 209.4Q288.9 209.4 289.2 209.4Q289.5 209.3 289.7 209.3L289.7 209.3L290.1 210.9Q289.8 211.0 289.4 211.1Q289.0 211.2 288.7 211.2L288.7 211.2Q287.1 211.2 286.2 210.3Q285.4 209.5 285.4 208.0L285.4 208.0L285.4 200.6L283.6 200.6L283.6 199.0L285.4 199.0L285.4 196.1L287.3 196.1L287.3 199.0ZM296.3 211.2L296.3 211.2Q295.1 211.2 294.2 210.7Q293.3 210.2 292.8 209.1Q292.2 208.1 292.2 206.6L292.2 206.6L292.2 199.0L294.2 199.0L294.2 206.5Q294.2 207.8 294.9 208.6Q295.6 209.4 296.9 209.4L296.9 209.4Q297.8 209.4 298.4 209.0Q299.1 208.7 299.5 207.9Q299.9 207.2 299.9 206.2L299.9 206.2L299.9 199.0L301.9 199.0L301.9 211L300.0 211L300.0 208.8Q299.5 209.9 298.7 210.5L298.7 210.5Q297.6 211.2 296.3 211.2ZM309.8 211.3L309.8 211.3Q308.3 211.3 307.1 210.5Q306.0 209.7 305.3 208.3Q304.7 206.9 304.7 205.0L304.7 205.0Q304.7 203.1 305.3 201.7Q306.0 200.3 307.1 199.6Q308.3 198.8 309.8 198.8L309.8 198.8Q310.9 198.8 311.6 199.2Q312.3 199.6 312.7 200.1Q313.1 200.6 313.2 200.9L313.2 200.9L313.4 200.9L313.4 195.0L315.3 195.0L315.3 211L313.5 211L313.5 209.1L313.2 209.1Q313.1 209.5 312.7 210.0Q312.3 210.5 311.6 210.9Q310.9 211.3 309.8 211.3ZM310.0 209.5L310.0 209.5Q311.1 209.5 311.9 209.0Q312.6 208.4 313.0 207.4Q313.4 206.3 313.4 205.0L313.4 205.0Q313.4 203.7 313.0 202.7Q312.7 201.7 311.9 201.1Q311.2 200.6 310.0 200.6L310.0 200.6Q308.9 200.6 308.1 201.2Q307.4 201.8 307.0 202.8Q306.6 203.8 306.6 205.0L306.6 205.0Q306.6 206.3 307.0 207.3Q307.4 208.3 308.2 208.9Q308.9 209.5 310.0 209.5ZM323.8 211.3L323.8 211.3Q322.0 211.3 320.8 210.5Q319.5 209.7 318.8 208.3Q318.1 206.9 318.1 205.1Q318.1 203.2 318.8 201.8Q319.5 200.4 320.7 199.6Q321.9 198.8 323.5 198.8L323.5 198.8Q324.5 198.8 325.4 199.2Q326.4 199.5 327.1 200.2Q327.9 200.9 328.3 202.0Q328.8 203.2 328.8 204.8L328.8 204.8L328.8 205.7L320.1 205.7Q320.1 206.8 320.6 207.6L320.6 207.6Q321.0 208.6 321.9 209.1Q322.7 209.5 323.8 209.5L323.8 209.5Q324.5 209.5 325.1 209.3Q325.7 209.1 326.1 208.7Q326.5 208.3 326.7 207.7L326.7 207.7L328.6 208.2Q328.3 209.1 327.6 209.8Q327.0 210.5 326.0 210.9Q325.0 211.3 323.8 211.3ZM320.1 204.0L320.1 204.0L326.8 204.0Q326.7 203.2 326.5 202.5L326.5 202.5Q326.1 201.6 325.4 201.1Q324.6 200.6 323.5 200.6Q322.5 200.6 321.7 201.1Q320.9 201.6 320.5 202.5L320.5 202.5Q320.2 203.2 320.1 204.0ZM333.5 203.8L333.5 203.8L333.5 211L331.6 211L331.6 199.0L333.4 199.0L333.4 201.2Q333.9 200.1 334.7 199.5L334.7 199.5Q335.7 198.8 337.1 198.8L337.1 198.8Q338.3 198.8 339.2 199.3Q340.1 199.8 340.6 200.8Q341.2 201.8 341.2 203.4L341.2 203.4L341.2 211L339.2 211L339.2 203.5Q339.2 202.1 338.5 201.4Q337.8 200.6 336.5 200.6L336.5 200.6Q335.7 200.6 335.0 201.0Q334.3 201.3 333.9 202.1Q333.5 202.8 333.5 203.8ZM346.8 199.0L349.3 199.0L349.3 200.6L346.8 200.6L346.8 207.9Q346.8 208.7 347.1 209.1Q347.5 209.4 348.2 209.4L348.2 209.4Q348.4 209.4 348.7 209.4Q349.0 209.3 349.2 209.3L349.2 209.3L349.6 210.9Q349.3 211.0 348.9 211.1Q348.5 211.2 348.2 211.2L348.2 211.2Q346.6 211.2 345.7 210.3Q344.9 209.5 344.9 208.0L344.9 208.0L344.9 200.6L343.1 200.6L343.1 199.0L344.9 199.0L344.9 196.1L346.8 196.1L346.8 199.0Z M359.4 204.8L359.4 204.8Q358.8 204.8 358.4 204.4Q358.0 204.0 358.0 203.4L358.0 203.4Q358.0 202.8 358.4 202.4Q358.8 201.9 359.4 201.9L359.4 201.9Q360.0 201.9 360.4 202.4Q360.9 202.8 360.9 203.4L360.9 203.4Q360.9 204.0 360.4 204.4Q360.0 204.8 359.4 204.8Z M375.7 211L375.7 211L370.7 211L370.7 195.0L375.9 195.0Q378.2 195.0 379.9 196.0Q381.6 196.9 382.4 198.7Q383.3 200.5 383.3 203.0L383.3 203.0Q383.3 205.5 382.4 207.3Q381.5 209.1 379.8 210.0Q378.1 211 375.7 211ZM372.7 196.8L372.7 209.2L375.6 209.2Q377.5 209.2 378.8 208.4Q380.1 207.7 380.7 206.3Q381.4 204.9 381.4 203.0L381.4 203.0Q381.4 201.0 380.7 199.7Q380.1 198.3 378.9 197.5Q377.6 196.8 375.8 196.8L375.8 196.8L372.7 196.8ZM389.7 211.3L389.7 211.3Q388.6 211.3 387.6 210.8Q386.7 210.4 386.2 209.6Q385.6 208.8 385.6 207.6L385.6 207.6Q385.6 206.6 386.0 205.9Q386.4 205.3 387.1 204.9Q387.8 204.5 388.6 204.3Q389.4 204.2 390.3 204.0L390.3 204.0Q391.4 203.9 392.0 203.8Q392.7 203.8 393.0 203.6Q393.4 203.4 393.4 203.0L393.4 203.0L393.4 202.9Q393.4 202.1 393.1 201.6Q392.8 201.1 392.2 200.8Q391.7 200.5 390.8 200.5L390.8 200.5Q390.0 200.5 389.4 200.8Q388.8 201.1 388.4 201.5Q388.0 201.9 387.8 202.3L387.8 202.3L386.0 201.7Q386.4 200.6 387.2 200.0Q388.0 199.4 388.9 199.1Q389.9 198.8 390.8 198.8L390.8 198.8Q391.4 198.8 392.2 199.0Q392.9 199.1 393.6 199.6Q394.4 200.0 394.8 200.8Q395.3 201.7 395.3 203.1L395.3 203.1L395.3 211L393.4 211L393.4 209.4L393.3 209.4Q393.1 209.8 392.6 210.2Q392.2 210.7 391.4 211.0Q390.7 211.3 389.7 211.3ZM390.0 209.6L390.0 209.6Q391.1 209.6 391.8 209.2Q392.6 208.7 393.0 208.1Q393.4 207.4 393.4 206.7L393.4 206.7L393.4 205.0Q393.2 205.1 392.8 205.2Q392.4 205.4 391.9 205.4Q391.4 205.5 391.0 205.6Q390.5 205.7 390.2 205.7L390.2 205.7Q389.5 205.8 388.9 206.0Q388.3 206.2 387.9 206.6Q387.6 207.0 387.6 207.7L387.6 207.7Q387.6 208.3 387.9 208.7Q388.2 209.1 388.8 209.4Q389.3 209.6 390.0 209.6ZM400.9 199.0L403.4 199.0L403.4 200.6L400.9 200.6L400.9 207.9Q400.9 208.7 401.3 209.1Q401.6 209.4 402.4 209.4L402.4 209.4Q402.5 209.4 402.8 209.4Q403.1 209.3 403.4 209.3L403.4 209.3L403.8 210.9Q403.4 211.0 403.1 211.1Q402.7 211.2 402.3 211.2L402.3 211.2Q400.8 211.2 399.9 210.3Q399.0 209.5 399.0 208.0L399.0 208.0L399.0 200.6L397.2 200.6L397.2 199.0L399.0 199.0L399.0 196.1L400.9 196.1L400.9 199.0ZM409.3 211.3L409.3 211.3Q408.1 211.3 407.2 210.8Q406.3 210.4 405.7 209.6Q405.2 208.8 405.2 207.6L405.2 207.6Q405.2 206.6 405.6 205.9Q406.0 205.3 406.7 204.9Q407.3 204.5 408.2 204.3Q409.0 204.2 409.8 204.0L409.8 204.0Q410.9 203.9 411.6 203.8Q412.3 203.8 412.6 203.6Q412.9 203.4 412.9 203.0L412.9 203.0L412.9 202.9Q412.9 202.1 412.6 201.6Q412.4 201.1 411.8 200.8Q411.2 200.5 410.4 200.5L410.4 200.5Q409.5 200.5 408.9 200.8Q408.3 201.1 407.9 201.5Q407.6 201.9 407.4 202.3L407.4 202.3L405.5 201.7Q406.0 200.6 406.7 200.0Q407.5 199.4 408.5 199.1Q409.4 198.8 410.3 198.8L410.3 198.8Q410.9 198.8 411.7 199.0Q412.5 199.1 413.2 199.6Q413.9 200.0 414.4 200.8Q414.8 201.7 414.8 203.1L414.8 203.1L414.8 211L412.9 211L412.9 209.4L412.8 209.4Q412.6 209.8 412.2 210.2Q411.7 210.7 411.0 211.0Q410.3 211.3 409.3 211.3ZM409.6 209.6L409.6 209.6Q410.7 209.6 411.4 209.2Q412.1 208.7 412.5 208.1Q412.9 207.4 412.9 206.7L412.9 206.7L412.9 205.0Q412.8 205.1 412.4 205.2Q412 205.4 411.5 205.4Q411.0 205.5 410.5 205.6Q410.0 205.7 409.7 205.7L409.7 205.7Q409.0 205.8 408.4 206.0Q407.8 206.2 407.5 206.6Q407.1 207.0 407.1 207.7L407.1 207.7Q407.1 208.3 407.4 208.7Q407.7 209.1 408.3 209.4Q408.9 209.6 409.6 209.6Z M425.5 211L423.3 211L429.1 195.0L431.5 195.0L437.4 211L435.2 211L433.6 206.5L427.0 206.5L425.5 211ZM427.6 204.7L433.0 204.7L431.8 201.5Q431.5 200.6 431.1 199.3L431.1 199.3Q430.7 198.2 430.3 196.6L430.3 196.6Q429.8 198.2 429.5 199.3L429.5 199.3Q429.0 200.7 428.8 201.5L428.8 201.5L427.6 204.7ZM441.5 203.8L441.5 203.8L441.5 211L439.6 211L439.6 199.0L441.5 199.0L441.5 201.2Q442.0 200.1 442.8 199.5L442.8 199.5Q443.8 198.8 445.2 198.8L445.2 198.8Q446.4 198.8 447.3 199.3Q448.2 199.8 448.7 200.8Q449.2 201.8 449.2 203.4L449.2 203.4L449.2 211L447.3 211L447.3 203.5Q447.3 202.1 446.6 201.4Q445.8 200.6 444.6 200.6L444.6 200.6Q443.7 200.6 443.0 201.0Q442.3 201.3 441.9 202.1Q441.5 202.8 441.5 203.8ZM456.0 211.3L456.0 211.3Q454.8 211.3 453.9 210.8Q453.0 210.4 452.4 209.6Q451.9 208.8 451.9 207.6L451.9 207.6Q451.9 206.6 452.3 205.9Q452.7 205.3 453.4 204.9Q454.1 204.5 454.9 204.3Q455.7 204.2 456.5 204.0L456.5 204.0Q457.6 203.9 458.3 203.8Q459.0 203.8 459.3 203.6Q459.6 203.4 459.6 203.0L459.6 203.0L459.6 202.9Q459.6 202.1 459.4 201.6Q459.1 201.1 458.5 200.8Q458.0 200.5 457.1 200.5L457.1 200.5Q456.3 200.5 455.6 200.8Q455.0 201.1 454.7 201.5Q454.3 201.9 454.1 202.3L454.1 202.3L452.2 201.7Q452.7 200.6 453.5 200.0Q454.2 199.4 455.2 199.1Q456.1 198.8 457.1 198.8L457.1 198.8Q457.7 198.8 458.4 199.0Q459.2 199.1 459.9 199.6Q460.6 200.0 461.1 200.8Q461.6 201.7 461.6 203.1L461.6 203.1L461.6 211L459.7 211L459.7 209.4L459.5 209.4Q459.3 209.8 458.9 210.2Q458.4 210.7 457.7 211.0Q457.0 211.3 456.0 211.3ZM456.3 209.6L456.3 209.6Q457.4 209.6 458.1 209.2Q458.9 208.7 459.2 208.1Q459.6 207.4 459.6 206.7L459.6 206.7L459.6 205.0Q459.5 205.1 459.1 205.2Q458.7 205.4 458.2 205.4Q457.7 205.5 457.2 205.6Q456.7 205.7 456.5 205.7L456.5 205.7Q455.8 205.8 455.2 206.0Q454.5 206.2 454.2 206.6Q453.8 207.0 453.8 207.7L453.8 207.7Q453.8 208.3 454.1 208.7Q454.5 209.1 455.0 209.4Q455.6 209.6 456.3 209.6ZM465.0 195.0L466.9 195.0L466.9 211L465.0 211L465.0 195.0ZM470.1 215.4L470.1 215.4L470.6 213.7L470.8 213.7Q471.4 213.9 471.9 213.8Q472.3 213.7 472.7 213.3Q473.1 212.9 473.4 212.1L473.4 212.1L473.8 211.1L469.2 199.0L471.3 199.0L473.8 206.1Q474.3 207.2 474.5 208.3L474.5 208.3Q474.6 208.8 474.8 209.2L474.8 209.2Q474.9 208.8 475.0 208.3L475.0 208.3Q475.3 207.2 475.7 206.1L475.7 206.1L478.3 199.0L480.4 199.0L475.1 212.8Q474.7 213.8 474.2 214.4Q473.7 215.0 473.0 215.3Q472.4 215.6 471.5 215.6L471.5 215.6Q471.0 215.6 470.6 215.5Q470.2 215.4 470.1 215.4ZM484.9 199.0L487.4 199.0L487.4 200.6L484.9 200.6L484.9 207.9Q484.9 208.7 485.2 209.1Q485.6 209.4 486.3 209.4L486.3 209.4Q486.5 209.4 486.8 209.4Q487.1 209.3 487.3 209.3L487.3 209.3L487.7 210.9Q487.4 211.0 487.0 211.1Q486.6 211.2 486.3 211.2L486.3 211.2Q484.7 211.2 483.8 210.3Q483.0 209.5 483.0 208.0L483.0 208.0L483.0 200.6L481.2 200.6L481.2 199.0L483.0 199.0L483.0 196.1L484.9 196.1L484.9 199.0ZM491.8 211L489.8 211L489.8 199.0L491.8 199.0L491.8 211ZM490.8 197.0L490.8 197.0Q490.3 197.0 489.9 196.6Q489.5 196.3 489.5 195.7L489.5 195.7Q489.5 195.2 489.9 194.8Q490.3 194.5 490.8 194.5L490.8 194.5Q491.4 194.5 491.8 194.8Q492.2 195.2 492.2 195.7L492.2 195.7Q492.2 196.3 491.8 196.6Q491.4 197.0 490.8 197.0ZM500.1 211.3L500.1 211.3Q498.4 211.3 497.2 210.5Q496.0 209.7 495.3 208.3Q494.6 206.9 494.6 205.1L494.6 205.1Q494.6 203.2 495.3 201.8Q496.0 200.4 497.2 199.6Q498.4 198.8 500.1 198.8L500.1 198.8Q500.9 198.8 501.7 199.1Q502.5 199.3 503.1 199.7Q503.8 200.1 504.2 200.8Q504.7 201.4 504.9 202.2L504.9 202.2L503.1 202.7Q502.9 202.2 502.7 201.8Q502.4 201.5 502.0 201.2Q501.6 200.9 501.1 200.7Q500.7 200.6 500.1 200.6L500.1 200.6Q498.9 200.6 498.1 201.2Q497.3 201.8 496.9 202.8Q496.6 203.9 496.6 205.1L496.6 205.1Q496.6 206.3 496.9 207.3Q497.3 208.3 498.1 208.9Q498.9 209.5 500.1 209.5L500.1 209.5Q500.7 209.5 501.2 209.4Q501.7 209.2 502.1 208.9Q502.5 208.6 502.7 208.2Q503.0 207.8 503.1 207.3L503.1 207.3L505.0 207.8Q504.7 208.6 504.3 209.3Q503.8 209.9 503.2 210.4Q502.5 210.8 501.7 211.0Q500.9 211.3 500.1 211.3ZM511.8 211.3L511.8 211.3Q510.6 211.3 509.6 210.9Q508.7 210.5 508.0 209.8Q507.4 209.1 507.2 208.1L507.2 208.1L509.0 207.6Q509.3 208.6 510.0 209.1Q510.7 209.6 511.8 209.6L511.8 209.6Q513.1 209.6 513.8 209.0Q514.6 208.5 514.6 207.7L514.6 207.7Q514.6 207.1 514.1 206.7Q513.7 206.3 512.8 206.1L512.8 206.1L510.8 205.6Q509.2 205.2 508.4 204.4Q507.6 203.6 507.6 202.3L507.6 202.3Q507.6 201.3 508.2 200.5Q508.7 199.7 509.7 199.3Q510.7 198.8 512.0 198.8L512.0 198.8Q513.3 198.8 514.1 199.2Q515.0 199.6 515.5 200.2Q516.1 200.9 516.3 201.7L516.3 201.7L514.6 202.2Q514.3 201.5 513.8 201.0Q513.2 200.5 512.0 200.5L512.0 200.5Q511.0 200.5 510.2 201.0Q509.5 201.5 509.5 202.2L509.5 202.2Q509.5 202.9 510.0 203.3Q510.5 203.7 511.5 203.9L511.5 203.9L513.4 204.4Q515.0 204.8 515.8 205.6Q516.6 206.4 516.6 207.6L516.6 207.6Q516.6 208.7 516.0 209.5Q515.4 210.3 514.3 210.8Q513.2 211.3 511.8 211.3Z M530.1 211.2L530.1 211.2Q528.5 211.2 527.3 210.6Q526.2 210.0 525.6 209.1Q525.0 208.1 525.0 206.8L525.0 206.8Q525.0 205.8 525.4 205.0Q525.8 204.2 526.6 203.6L526.6 203.6Q527.3 203.0 528.1 202.3L528.1 202.3Q527.9 202.1 527.7 201.8L527.7 201.8Q527.0 201.0 526.7 200.2Q526.3 199.4 526.3 198.5L526.3 198.5Q526.3 197.4 526.7 196.6Q527.2 195.8 528.1 195.3Q529.0 194.8 530.2 194.8L530.2 194.8Q531.4 194.8 532.3 195.3Q533.1 195.8 533.6 196.6Q534.1 197.3 534.1 198.3L534.1 198.3Q534.1 199.0 533.8 199.6Q533.5 200.3 533.0 200.8Q532.6 201.3 531.9 201.8L531.9 201.8L530.8 202.6L534.2 206.8Q534.3 206.5 534.5 206.3L534.5 206.3Q534.9 205.2 534.9 203.9L534.9 203.9L536.7 203.9Q536.7 205.5 536.4 206.5Q536.0 207.6 535.5 208.2L535.5 208.2Q535.5 208.2 535.4 208.3L535.4 208.3L537.7 211L535.3 211L534.2 209.7Q533.5 210.4 532.4 210.8L532.4 210.8Q531.2 211.2 530.1 211.2ZM533.1 208.3L529.3 203.7L528.7 204.2Q527.8 204.9 527.4 205.5Q527.0 206.1 527.0 206.9L527.0 206.9Q527.0 207.7 527.3 208.3Q527.7 208.9 528.4 209.2Q529.1 209.5 529.9 209.5L529.9 209.5Q530.9 209.5 531.8 209.1L531.8 209.1Q532.5 208.8 533.1 208.3L533.1 208.3ZM529.6 201.2L529.6 201.2L530.7 200.5Q531.0 200.3 531.3 200.0Q531.6 199.7 531.9 199.2Q532.1 198.8 532.1 198.3L532.1 198.3Q532.1 197.5 531.6 197.0Q531.1 196.5 530.2 196.5L530.2 196.5Q529.6 196.5 529.2 196.8Q528.7 197.0 528.5 197.4Q528.2 197.9 528.2 198.5L528.2 198.5Q528.2 199.1 528.5 199.6Q528.8 200.2 529.2 200.7L529.2 200.7Q529.4 201.0 529.6 201.2Z M552.0 211L546.1 211L546.1 195.0L551.8 195.0Q553.5 195.0 554.6 195.6Q555.7 196.1 556.2 197.1Q556.7 198.1 556.7 199.2L556.7 199.2Q556.7 200.3 556.4 200.9Q556.0 201.6 555.4 202.0Q554.8 202.4 554.1 202.6L554.1 202.6L554.1 202.8Q554.9 202.8 555.6 203.3Q556.4 203.7 556.9 204.6Q557.4 205.5 557.4 206.7L557.4 206.7Q557.4 207.9 556.8 208.9Q556.2 209.9 555.1 210.4Q553.9 211 552.0 211L552.0 211ZM548.2 203.7L548.2 209.2L551.9 209.2Q553.8 209.2 554.6 208.5Q555.4 207.8 555.4 206.7L555.4 206.7Q555.4 205.9 555.0 205.2Q554.6 204.6 553.8 204.1Q553.1 203.7 552.0 203.7L552.0 203.7L548.2 203.7ZM548.2 196.8L548.2 202.0L551.7 202.0Q552.6 202.0 553.3 201.7Q554.0 201.3 554.4 200.7Q554.8 200.1 554.8 199.3L554.8 199.3Q554.8 198.2 554.0 197.5Q553.3 196.8 551.8 196.8L551.8 196.8L548.2 196.8ZM560.5 195.0L562.6 195.0L562.6 211L560.5 211L560.5 195.0Z M582.5 211L572.6 211L572.6 195.0L582.4 195.0L582.4 196.8L574.7 196.8L574.7 202.0L581.9 202.0L581.9 203.8L574.7 203.8L574.7 209.2L582.5 209.2L582.5 211ZM587.5 203.8L587.5 203.8L587.5 211L585.6 211L585.6 199.0L587.5 199.0L587.5 201.2Q588.0 200.1 588.8 199.5L588.8 199.5Q589.8 198.8 591.2 198.8L591.2 198.8Q592.4 198.8 593.3 199.3Q594.2 199.8 594.7 200.8Q595.2 201.8 595.2 203.4L595.2 203.4L595.2 211L593.3 211L593.3 203.5Q593.3 202.1 592.6 201.4Q591.8 200.6 590.6 200.6L590.6 200.6Q589.7 200.6 589.0 201.0Q588.3 201.3 587.9 202.1Q587.5 202.8 587.5 203.8ZM600.9 199.0L603.3 199.0L603.3 200.6L600.9 200.6L600.9 207.9Q600.9 208.7 601.2 209.1Q601.5 209.4 602.3 209.4L602.3 209.4Q602.5 209.4 602.8 209.4Q603.0 209.3 603.3 209.3L603.3 209.3L603.7 210.9Q603.4 211.0 603.0 211.1Q602.6 211.2 602.2 211.2L602.2 211.2Q600.7 211.2 599.8 210.3Q598.9 209.5 598.9 208.0L598.9 208.0L598.9 200.6L597.1 200.6L597.1 199.0L598.9 199.0L598.9 196.1L600.9 196.1L600.9 199.0ZM607.7 203.8L607.7 203.8L607.7 211L605.8 211L605.8 195.0L607.7 195.0L607.7 201.1Q608.2 200.0 609.0 199.5L609.0 199.5Q610.0 198.8 611.4 198.8L611.4 198.8Q612.6 198.8 613.5 199.3Q614.4 199.8 614.9 200.8Q615.4 201.8 615.4 203.4L615.4 203.4L615.4 211L613.5 211L613.5 203.5Q613.5 202.1 612.8 201.4Q612.0 200.6 610.8 200.6L610.8 200.6Q609.9 200.6 609.2 201.0Q608.5 201.3 608.1 202.1Q607.7 202.8 607.7 203.8ZM622.9 211.2L622.9 211.2Q621.7 211.2 620.8 210.7Q619.8 210.2 619.3 209.1Q618.8 208.1 618.8 206.6L618.8 206.6L618.8 199.0L620.8 199.0L620.8 206.5Q620.8 207.8 621.5 208.6Q622.2 209.4 623.5 209.4L623.5 209.4Q624.3 209.4 625.0 209.0Q625.7 208.7 626.1 207.9Q626.5 207.2 626.5 206.2L626.5 206.2L626.5 199.0L628.4 199.0L628.4 211L626.6 211L626.6 208.8Q626.0 209.9 625.2 210.5L625.2 210.5Q624.2 211.2 622.9 211.2ZM635.9 211.3L635.9 211.3Q634.7 211.3 633.7 210.9Q632.8 210.5 632.1 209.8Q631.5 209.1 631.3 208.1L631.3 208.1L633.1 207.6Q633.4 208.6 634.1 209.1Q634.8 209.6 635.9 209.6L635.9 209.6Q637.1 209.6 637.9 209.0Q638.6 208.5 638.6 207.7L638.6 207.7Q638.6 207.1 638.2 206.7Q637.8 206.3 636.9 206.1L636.9 206.1L634.9 205.6Q633.2 205.2 632.5 204.4Q631.7 203.6 631.7 202.3L631.7 202.3Q631.7 201.3 632.2 200.5Q632.8 199.7 633.8 199.3Q634.8 198.8 636.1 198.8L636.1 198.8Q637.3 198.8 638.2 199.2Q639.1 199.6 639.6 200.2Q640.2 200.9 640.4 201.7L640.4 201.7L638.7 202.2Q638.4 201.5 637.8 201.0Q637.3 200.5 636.1 200.5L636.1 200.5Q635.0 200.5 634.3 201.0Q633.6 201.5 633.6 202.2L633.6 202.2Q633.6 202.9 634.1 203.3Q634.6 203.7 635.6 203.9L635.6 203.9L637.4 204.4Q639.1 204.8 639.9 205.6Q640.6 206.4 640.6 207.6L640.6 207.6Q640.6 208.7 640.1 209.5Q639.5 210.3 638.4 210.8Q637.3 211.3 635.9 211.3ZM645.4 211L643.4 211L643.4 199.0L645.4 199.0L645.4 211ZM644.4 197.0L644.4 197.0Q643.9 197.0 643.5 196.6Q643.1 196.3 643.1 195.7L643.1 195.7Q643.1 195.2 643.5 194.8Q643.9 194.5 644.4 194.5L644.4 194.5Q645.0 194.5 645.4 194.8Q645.8 195.2 645.8 195.7L645.8 195.7Q645.8 196.3 645.4 196.6Q645.0 197.0 644.4 197.0ZM652.1 211.3L652.1 211.3Q651.0 211.3 650.1 210.8Q649.1 210.4 648.6 209.6Q648.0 208.8 648.0 207.6L648.0 207.6Q648.0 206.6 648.4 205.9Q648.9 205.3 649.5 204.9Q650.2 204.5 651.0 204.3Q651.9 204.2 652.7 204.0L652.7 204.0Q653.8 203.9 654.5 203.8Q655.1 203.8 655.5 203.6Q655.8 203.4 655.8 203.0L655.8 203.0L655.8 202.9Q655.8 202.1 655.5 201.6Q655.2 201.1 654.7 200.8Q654.1 200.5 653.3 200.5L653.3 200.5Q652.4 200.5 651.8 200.8Q651.2 201.1 650.8 201.5Q650.4 201.9 650.2 202.3L650.2 202.3L648.4 201.7Q648.8 200.6 649.6 200.0Q650.4 199.4 651.4 199.1Q652.3 198.8 653.2 198.8L653.2 198.8Q653.8 198.8 654.6 199.0Q655.4 199.1 656.1 199.6Q656.8 200.0 657.3 200.8Q657.7 201.7 657.7 203.1L657.7 203.1L657.7 211L655.8 211L655.8 209.4L655.7 209.4Q655.5 209.8 655.0 210.2Q654.6 210.7 653.9 211.0Q653.2 211.3 652.1 211.3ZM652.5 209.6L652.5 209.6Q653.5 209.6 654.3 209.2Q655.0 208.7 655.4 208.1Q655.8 207.4 655.8 206.7L655.8 206.7L655.8 205.0Q655.7 205.1 655.3 205.2Q654.9 205.4 654.4 205.4Q653.9 205.5 653.4 205.6Q652.9 205.7 652.6 205.7L652.6 205.7Q651.9 205.8 651.3 206.0Q650.7 206.2 650.3 206.6Q650.0 207.0 650.0 207.7L650.0 207.7Q650.0 208.3 650.3 208.7Q650.6 209.1 651.2 209.4Q651.7 209.6 652.5 209.6ZM665.2 211.3L665.2 211.3Q664.0 211.3 663.0 210.9Q662.0 210.5 661.4 209.8Q660.8 209.1 660.6 208.1L660.6 208.1L662.4 207.6Q662.7 208.6 663.4 209.1Q664.1 209.6 665.2 209.6L665.2 209.6Q666.4 209.6 667.2 209.0Q667.9 208.5 667.9 207.7L667.9 207.7Q667.9 207.1 667.5 206.7Q667.1 206.3 666.2 206.1L666.2 206.1L664.2 205.6Q662.5 205.2 661.7 204.4Q661.0 203.6 661.0 202.3L661.0 202.3Q661.0 201.3 661.5 200.5Q662.1 199.7 663.1 199.3Q664.1 198.8 665.4 198.8L665.4 198.8Q666.6 198.8 667.5 199.2Q668.4 199.6 668.9 200.2Q669.4 200.9 669.7 201.7L669.7 201.7L668.0 202.2Q667.7 201.5 667.1 201.0Q666.6 200.5 665.4 200.5L665.4 200.5Q664.3 200.5 663.6 201.0Q662.9 201.5 662.9 202.2L662.9 202.2Q662.9 202.9 663.4 203.3Q663.9 203.7 664.9 203.9L664.9 203.9L666.7 204.4Q668.4 204.8 669.2 205.6Q669.9 206.4 669.9 207.6L669.9 207.6Q669.9 208.7 669.3 209.5Q668.7 210.3 667.7 210.8Q666.6 211.3 665.2 211.3ZM675.0 199.0L677.5 199.0L677.5 200.6L675.0 200.6L675.0 207.9Q675.0 208.7 675.3 209.1Q675.6 209.4 676.4 209.4L676.4 209.4Q676.6 209.4 676.9 209.4Q677.2 209.3 677.4 209.3L677.4 209.3L677.8 210.9Q677.5 211.0 677.1 211.1Q676.7 211.2 676.4 211.2L676.4 211.2Q674.8 211.2 673.9 210.3Q673.1 209.5 673.1 208.0L673.1 208.0L673.1 200.6L671.3 200.6L671.3 199.0L673.1 199.0L673.1 196.1L675.0 196.1L675.0 199.0Z "/></g><defs><clipPath id="satori_bc-id-1-1-2" clip-path="url(#satori_cp-id)"><path x="49" y="243" width="536" height="49" d="M57,243 h520 a8,8 0 0 1 8,8 v33 a8,8 0 0 1 -8,8 h-520 a8,8 0 0 1 -8,-8 v-33 a8,8 0 0 1 8,-8"/></clipPath></defs><mask id="satori_om-id-1-1-2"><rect x="50" y="244" width="534" height="47" fill="#fff" mask="url(#satori_om-id)"/><path width="536" height="49" fill="none" stroke="#000" stroke-width="2" d="M51.343,245.343 A8,8 0 0 1 57,243 h520 a8,8 0 0 1 8,8 v33 a8,8 0 0 1 -8,8 h-520 a8,8 0 0 1 -8,-8 v-33 A8,8 0 0 1 51.343,245.343"/></mask><path x="49" y="243" width="536" height="49" fill="rgba(21,23,29,.72)" d="M57,243 h520 a8,8 0 0 1 8,8 v33 a8,8 0 0 1 -8,8 h-520 a8,8 0 0 1 -8,-8 v-33 a8,8 0 0 1 8,-8" clip-path="url(#satori_cp-id)" mask="url(#satori_om-id)"/><path width="536" height="49" clip-path="url(#satori_bc-id-1-1-2)" fill="none" stroke="rgba(245,166,35,.28)" stroke-width="2" d="M51.343,245.343 A8,8 0 0 1 57,243 h520 a8,8 0 0 1 8,8 v33 a8,8 0 0 1 -8,8 h-520 a8,8 0 0 1 -8,-8 v-33 A8,8 0 0 1 51.343,245.343"/><mask id="satori_om-id-1-1-2-0"><rect x="65" y="257" width="12" height="21" fill="#fff" mask="url(#satori_om-id)"/></mask><g mask="url(#satori_om-id)" clip-path="url(#satori_cp-id)"><path fill="#F5A623" d="M74.8 267.6L74.8 268.7L67.0 272.6L67.0 271.0L72.9 268.2L72.9 268.1L67.0 265.3L67.0 263.7L74.8 267.6Z "/></g><mask id="satori_om-id-1-1-2-1"><rect x="86" y="259" width="182" height="17" fill="#fff" mask="url(#satori_om-id)"/></mask><g mask="url(#satori_om-id)" clip-path="url(#satori_cp-id)"><path fill="#5EEAD4" d="M87.7 273L86.4 273L90.1 262.8L91.6 262.8L95.3 273L93.9 273L92.9 270.2L88.7 270.2L87.7 273ZM89.1 269.0L92.5 269.0L91.8 267.0Q91.6 266.4 91.3 265.6L91.3 265.6Q91.1 264.9 90.8 263.9L90.8 263.9Q90.5 264.9 90.3 265.6L90.3 265.6Q90.0 266.4 89.8 267.0L89.8 267.0L89.1 269.0ZM96.7 262.8L98.0 262.8L98.0 273L96.7 273L96.7 262.8ZM103.1 273L101.8 273L99.5 265.4L100.8 265.4L101.8 268.7Q102.0 269.4 102.2 270.2L102.2 270.2Q102.3 270.9 102.5 271.7L102.5 271.7Q102.7 270.9 102.8 270.3L102.8 270.3Q103.0 269.4 103.2 268.7L103.2 268.7L104.1 265.4L105.4 265.4L106.4 268.7Q106.5 269.4 106.8 270.3L106.8 270.3Q106.9 270.9 107.1 271.7L107.1 271.7Q107.2 270.9 107.4 270.3L107.4 270.3Q107.6 269.4 107.8 268.7L107.8 268.7L108.7 265.4L110.0 265.4L107.7 273L106.5 273L105.5 269.5Q105.3 269.0 105.2 268.5Q105.1 267.9 104.9 267.3L104.9 267.3Q104.9 267.1 104.8 266.8L104.8 266.8Q104.7 267.0 104.6 267.3L104.6 267.3Q104.5 267.9 104.4 268.5Q104.2 269.0 104.1 269.5L104.1 269.5L103.1 273ZM113.7 273.2L113.7 273.2Q113.0 273.2 112.4 272.9Q111.8 272.6 111.5 272.1Q111.1 271.6 111.1 270.8L111.1 270.8Q111.1 270.2 111.4 269.8Q111.6 269.3 112.1 269.1Q112.5 268.9 113.0 268.8Q113.6 268.6 114.1 268.6L114.1 268.6Q114.8 268.5 115.2 268.4Q115.6 268.4 115.8 268.3Q116.1 268.2 116.1 267.9L116.1 267.9L116.1 267.8Q116.1 267.4 115.9 267.0Q115.7 266.7 115.3 266.5Q115.0 266.3 114.5 266.3L114.5 266.3Q113.9 266.3 113.5 266.5Q113.1 266.7 112.9 266.9Q112.6 267.2 112.5 267.5L112.5 267.5L111.3 267.1Q111.6 266.4 112.1 266.0Q112.6 265.6 113.2 265.4Q113.8 265.3 114.4 265.3L114.4 265.3Q114.8 265.3 115.3 265.4Q115.8 265.4 116.2 265.7Q116.7 266.0 117.0 266.5Q117.3 267.1 117.3 268.0L117.3 268.0L117.3 273L116.1 273L116.1 272.0L116.0 272.0Q115.9 272.2 115.6 272.5Q115.3 272.8 114.8 273.0Q114.4 273.2 113.7 273.2ZM113.9 272.1L113.9 272.1Q114.6 272.1 115.1 271.8Q115.6 271.6 115.8 271.1Q116.1 270.7 116.1 270.2L116.1 270.2L116.1 269.2Q116.0 269.3 115.7 269.3Q115.5 269.4 115.2 269.5Q114.8 269.5 114.5 269.6Q114.2 269.6 114.0 269.6L114.0 269.6Q113.6 269.7 113.2 269.8Q112.8 269.9 112.6 270.2Q112.4 270.5 112.4 270.9L112.4 270.9Q112.4 271.3 112.6 271.6Q112.8 271.8 113.1 272.0Q113.5 272.1 113.9 272.1ZM119.3 275.8L119.3 275.8L119.6 274.7L119.8 274.7Q120.1 274.8 120.5 274.8Q120.8 274.7 121.0 274.5Q121.3 274.2 121.4 273.7L121.4 273.7L121.7 273.0L118.7 265.4L120.1 265.4L121.7 269.9Q122.0 270.6 122.1 271.3L122.1 271.3Q122.2 271.6 122.3 271.9L122.3 271.9Q122.4 271.6 122.5 271.3L122.5 271.3Q122.6 270.6 122.9 269.9L122.9 269.9L124.5 265.4L125.9 265.4L122.5 274.1Q122.3 274.8 122.0 275.1Q121.6 275.5 121.2 275.7Q120.8 275.9 120.2 275.9L120.2 275.9Q119.9 275.9 119.7 275.9Q119.4 275.8 119.3 275.8ZM129.9 273.2L129.9 273.2Q129.1 273.2 128.5 272.9Q127.9 272.7 127.5 272.3Q127.1 271.8 127.0 271.1L127.0 271.1L128.1 270.9Q128.3 271.5 128.8 271.8Q129.2 272.1 129.9 272.1L129.9 272.1Q130.7 272.1 131.2 271.7Q131.7 271.4 131.7 270.9L131.7 270.9Q131.7 270.5 131.4 270.3Q131.1 270.0 130.5 269.9L130.5 269.9L129.3 269.6Q128.2 269.3 127.7 268.8Q127.2 268.3 127.2 267.5L127.2 267.5Q127.2 266.8 127.6 266.3Q127.9 265.8 128.6 265.5Q129.2 265.3 130.0 265.3L130.0 265.3Q130.8 265.3 131.4 265.5Q131.9 265.7 132.3 266.1Q132.6 266.6 132.8 267.1L132.8 267.1L131.7 267.4Q131.5 267.0 131.1 266.6Q130.8 266.3 130.0 266.3L130.0 266.3Q129.4 266.3 128.9 266.6Q128.5 266.9 128.5 267.4L128.5 267.4Q128.5 267.8 128.8 268.1Q129.1 268.4 129.7 268.5L129.7 268.5L130.9 268.8Q131.9 269.0 132.4 269.5Q132.9 270.1 132.9 270.8L132.9 270.8Q132.9 271.5 132.5 272.0Q132.2 272.6 131.5 272.9Q130.8 273.2 129.9 273.2Z M138.6 262.8L139.9 262.8L139.9 273L138.6 273L138.6 262.8ZM145.2 273.2L145.2 273.2Q144.1 273.2 143.3 272.7Q142.5 272.2 142.1 271.3Q141.7 270.4 141.7 269.2Q141.7 268.1 142.1 267.2Q142.5 266.3 143.3 265.8Q144.1 265.3 145.1 265.3L145.1 265.3Q145.7 265.3 146.3 265.5Q146.9 265.7 147.4 266.1Q147.9 266.6 148.1 267.3Q148.4 268.0 148.4 269.1L148.4 269.1L148.4 269.6L142.9 269.6Q142.9 270.3 143.2 270.9L143.2 270.9Q143.5 271.5 144.0 271.8Q144.6 272.1 145.3 272.1L145.3 272.1Q145.7 272.1 146.1 271.9Q146.4 271.8 146.7 271.5Q147.0 271.3 147.1 270.9L147.1 270.9L148.3 271.2Q148.1 271.8 147.7 272.2Q147.3 272.7 146.7 272.9Q146.0 273.2 145.2 273.2ZM142.9 268.6L142.9 268.6L147.2 268.6Q147.1 268.0 147.0 267.6L147.0 267.6Q146.7 267.0 146.3 266.7Q145.8 266.4 145.1 266.4Q144.4 266.4 143.9 266.7Q143.4 267.0 143.2 267.6L143.2 267.6Q143.0 268.0 142.9 268.6ZM152.3 273.2L152.3 273.2Q151.6 273.2 151.0 272.9Q150.4 272.6 150.1 272.1Q149.7 271.6 149.7 270.8L149.7 270.8Q149.7 270.2 150.0 269.8Q150.3 269.3 150.7 269.1Q151.1 268.9 151.6 268.8Q152.2 268.6 152.7 268.6L152.7 268.6Q153.4 268.5 153.8 268.4Q154.3 268.4 154.5 268.3Q154.7 268.2 154.7 267.9L154.7 267.9L154.7 267.8Q154.7 267.4 154.5 267.0Q154.3 266.7 154.0 266.5Q153.6 266.3 153.1 266.3L153.1 266.3Q152.5 266.3 152.1 266.5Q151.7 266.7 151.5 266.9Q151.3 267.2 151.1 267.5L151.1 267.5L150.0 267.1Q150.2 266.4 150.7 266.0Q151.2 265.6 151.8 265.4Q152.4 265.3 153.0 265.3L153.0 265.3Q153.4 265.3 153.9 265.4Q154.4 265.4 154.8 265.7Q155.3 266.0 155.6 266.5Q155.9 267.1 155.9 268.0L155.9 268.0L155.9 273L154.7 273L154.7 272.0L154.6 272.0Q154.5 272.2 154.2 272.5Q153.9 272.8 153.4 273.0Q153.0 273.2 152.3 273.2ZM152.5 272.1L152.5 272.1Q153.2 272.1 153.7 271.8Q154.2 271.6 154.4 271.1Q154.7 270.7 154.7 270.2L154.7 270.2L154.7 269.2Q154.6 269.3 154.3 269.3Q154.1 269.4 153.8 269.5Q153.4 269.5 153.1 269.6Q152.8 269.6 152.7 269.6L152.7 269.6Q152.2 269.7 151.8 269.8Q151.4 269.9 151.2 270.2Q151.0 270.5 151.0 270.9L151.0 270.9Q151.0 271.3 151.2 271.6Q151.4 271.8 151.7 272.0Q152.1 272.1 152.5 272.1ZM159.3 273L158.1 273L158.1 265.4L159.2 265.4L159.2 266.5L159.3 266.5Q159.5 266.0 160.1 265.6Q160.6 265.2 161.3 265.2L161.3 265.2Q161.4 265.2 161.6 265.3Q161.8 265.3 161.9 265.3L161.9 265.3L161.9 266.5Q161.9 266.5 161.7 266.5Q161.4 266.4 161.2 266.4L161.2 266.4Q160.6 266.4 160.2 266.7Q159.8 266.9 159.5 267.3Q159.3 267.7 159.3 268.2L159.3 268.2L159.3 273ZM164.6 268.4L164.6 268.4L164.6 273L163.3 273L163.3 265.4L164.5 265.4L164.5 266.8Q164.8 266.1 165.3 265.7L165.3 265.7Q166.0 265.3 166.9 265.3L166.9 265.3Q167.6 265.3 168.2 265.6Q168.8 265.9 169.1 266.5Q169.4 267.2 169.4 268.1L169.4 268.1L169.4 273L168.2 273L168.2 268.2Q168.2 267.4 167.7 266.9Q167.3 266.4 166.5 266.4L166.5 266.4Q165.9 266.4 165.5 266.6Q165.1 266.8 164.8 267.3Q164.6 267.8 164.6 268.4ZM172.8 273L171.6 273L171.6 265.4L172.8 265.4L172.8 273ZM172.2 264.1L172.2 264.1Q171.9 264.1 171.6 263.9Q171.4 263.6 171.4 263.3L171.4 263.3Q171.4 263.0 171.6 262.7Q171.9 262.5 172.2 262.5L172.2 262.5Q172.6 262.5 172.8 262.7Q173.1 263.0 173.1 263.3L173.1 263.3Q173.1 263.6 172.8 263.9Q172.6 264.1 172.2 264.1ZM176.2 268.4L176.2 268.4L176.2 273L175.0 273L175.0 265.4L176.2 265.4L176.2 266.8Q176.5 266.1 177.0 265.7L177.0 265.7Q177.6 265.3 178.5 265.3L178.5 265.3Q179.3 265.3 179.9 265.6Q180.5 265.9 180.8 266.5Q181.1 267.2 181.1 268.1L181.1 268.1L181.1 273L179.9 273L179.9 268.2Q179.9 267.4 179.4 266.9Q178.9 266.4 178.1 266.4L178.1 266.4Q177.6 266.4 177.2 266.6Q176.7 266.8 176.5 267.3Q176.2 267.8 176.2 268.4ZM186.4 276.0L186.4 276.0Q185.5 276.0 184.9 275.8Q184.3 275.6 183.9 275.2Q183.5 274.9 183.2 274.5L183.2 274.5L184.2 273.8Q184.4 274.0 184.6 274.3Q184.9 274.6 185.3 274.8Q185.7 274.9 186.4 274.9L186.4 274.9Q187.3 274.9 187.9 274.5Q188.5 274.1 188.5 273.1L188.5 273.1L188.5 271.6L188.3 271.6Q188.2 271.8 188.0 272.1Q187.7 272.4 187.3 272.6Q186.9 272.9 186.1 272.9L186.1 272.9Q185.2 272.9 184.5 272.4Q183.7 272.0 183.3 271.2Q182.9 270.3 182.9 269.1L182.9 269.1Q182.9 268.0 183.3 267.1Q183.7 266.2 184.5 265.7Q185.2 265.3 186.1 265.3L186.1 265.3Q186.9 265.3 187.3 265.5Q187.8 265.7 188.0 266.1Q188.2 266.4 188.4 266.6L188.4 266.6L188.5 266.6L188.5 265.4L189.7 265.4L189.7 273.2Q189.7 274.2 189.2 274.8Q188.8 275.4 188.0 275.7Q187.3 276.0 186.4 276.0ZM186.3 271.8L186.3 271.8Q187.0 271.8 187.5 271.5Q188.0 271.1 188.2 270.5Q188.5 270.0 188.5 269.1L188.5 269.1Q188.5 268.3 188.2 267.7Q188.0 267.1 187.5 266.7Q187.0 266.4 186.3 266.4L186.3 266.4Q185.6 266.4 185.1 266.7Q184.6 267.1 184.4 267.7Q184.1 268.4 184.1 269.1L184.1 269.1Q184.1 269.9 184.4 270.5Q184.6 271.1 185.1 271.4Q185.6 271.8 186.3 271.8Z M197.0 268.4L197.0 268.4L197.0 273L195.8 273L195.8 265.4L197.0 265.4L197.0 266.8Q197.3 266.1 197.8 265.7L197.8 265.7Q198.4 265.3 199.3 265.3L199.3 265.3Q200.1 265.3 200.7 265.6Q201.2 265.9 201.6 266.5Q201.9 267.2 201.9 268.1L201.9 268.1L201.9 273L200.7 273L200.7 268.2Q200.7 267.4 200.2 266.9Q199.7 266.4 198.9 266.4L198.9 266.4Q198.4 266.4 198.0 266.6Q197.5 266.8 197.3 267.3Q197.0 267.8 197.0 268.4ZM207.3 273.2L207.3 273.2Q206.2 273.2 205.4 272.7Q204.6 272.2 204.1 271.3Q203.7 270.4 203.7 269.2Q203.7 268.1 204.1 267.2Q204.5 266.3 205.3 265.8Q206.1 265.3 207.1 265.3L207.1 265.3Q207.7 265.3 208.3 265.5Q208.9 265.7 209.4 266.1Q209.9 266.6 210.2 267.3Q210.5 268.0 210.5 269.1L210.5 269.1L210.5 269.6L204.9 269.6Q205.0 270.3 205.2 270.9L205.2 270.9Q205.5 271.5 206.0 271.8Q206.6 272.1 207.3 272.1L207.3 272.1Q207.7 272.1 208.1 271.9Q208.5 271.8 208.7 271.5Q209.0 271.3 209.1 270.9L209.1 270.9L210.3 271.2Q210.2 271.8 209.7 272.2Q209.3 272.7 208.7 272.9Q208.1 273.2 207.3 273.2ZM204.9 268.6L204.9 268.6L209.2 268.6Q209.2 268.0 209.0 267.6L209.0 267.6Q208.7 267.0 208.3 266.7Q207.8 266.4 207.1 266.4Q206.4 266.4 205.9 266.7Q205.5 267.0 205.2 267.6L205.2 267.6Q205.0 268.0 204.9 268.6ZM215.2 273L213.9 273L211.6 265.4L212.9 265.4L213.9 268.7Q214.0 269.4 214.3 270.2L214.3 270.2Q214.4 270.9 214.6 271.7L214.6 271.7Q214.7 270.9 214.9 270.3L214.9 270.3Q215.1 269.4 215.3 268.7L215.3 268.7L216.2 265.4L217.5 265.4L218.4 268.7Q218.6 269.4 218.8 270.3L218.8 270.3Q219.0 270.9 219.2 271.7L219.2 271.7Q219.3 270.9 219.5 270.3L219.5 270.3Q219.7 269.4 219.9 268.7L219.9 268.7L220.8 265.4L222.1 265.4L219.8 273L218.6 273L217.6 269.5Q217.4 269.0 217.3 268.5Q217.1 267.9 217.0 267.3L217.0 267.3Q216.9 267.1 216.9 266.8L216.9 266.8Q216.8 267.0 216.7 267.3L216.7 267.3Q216.6 267.9 216.4 268.5Q216.3 269.0 216.1 269.5L216.1 269.5L215.2 273Z M229.0 265.4L230.6 265.4L230.6 266.4L229.0 266.4L229.0 271.0Q229.0 271.5 229.3 271.8Q229.5 272.0 230.0 272.0L230.0 272.0Q230.1 272.0 230.2 272.0Q230.4 271.9 230.6 271.9L230.6 271.9L230.8 273.0Q230.6 273.0 230.4 273.1Q230.2 273.1 229.9 273.1L229.9 273.1Q228.9 273.1 228.4 272.6Q227.8 272.0 227.8 271.1L227.8 271.1L227.8 266.4L226.7 266.4L226.7 265.4L227.8 265.4L227.8 263.5L229.0 263.5L229.0 265.4ZM233.4 268.4L233.4 268.4L233.4 273L232.2 273L232.2 262.8L233.4 262.8L233.4 266.7Q233.7 266.0 234.2 265.7L234.2 265.7Q234.9 265.3 235.7 265.3L235.7 265.3Q236.5 265.3 237.1 265.6Q237.7 265.9 238.0 266.5Q238.3 267.2 238.3 268.1L238.3 268.1L238.3 273L237.1 273L237.1 268.2Q237.1 267.4 236.6 266.9Q236.2 266.4 235.4 266.4L235.4 266.4Q234.8 266.4 234.4 266.6Q233.9 266.8 233.7 267.3Q233.4 267.8 233.4 268.4ZM241.7 273L240.5 273L240.5 265.4L241.7 265.4L241.7 273ZM241.1 264.1L241.1 264.1Q240.7 264.1 240.5 263.9Q240.2 263.6 240.2 263.3L240.2 263.3Q240.2 263.0 240.5 262.7Q240.7 262.5 241.1 262.5L241.1 262.5Q241.4 262.5 241.7 262.7Q242.0 263.0 242.0 263.3L242.0 263.3Q242.0 263.6 241.7 263.9Q241.4 264.1 241.1 264.1ZM245.1 268.4L245.1 268.4L245.1 273L243.9 273L243.9 265.4L245.0 265.4L245.1 266.8Q245.4 266.1 245.9 265.7L245.9 265.7Q246.5 265.3 247.4 265.3L247.4 265.3Q248.2 265.3 248.7 265.6Q249.3 265.9 249.6 266.5Q250.0 267.2 250.0 268.1L250.0 268.1L250.0 273L248.7 273L248.7 268.2Q248.7 267.4 248.3 266.9Q247.8 266.4 247.0 266.4L247.0 266.4Q246.5 266.4 246.0 266.6Q245.6 266.8 245.3 267.3Q245.1 267.8 245.1 268.4ZM255.2 276.0L255.2 276.0Q254.4 276.0 253.8 275.8Q253.1 275.6 252.7 275.2Q252.3 274.9 252.1 274.5L252.1 274.5L253.1 273.8Q253.2 274.0 253.5 274.3Q253.7 274.6 254.1 274.8Q254.6 274.9 255.2 274.9L255.2 274.9Q256.1 274.9 256.7 274.5Q257.3 274.1 257.3 273.1L257.3 273.1L257.3 271.6L257.2 271.6Q257.1 271.8 256.8 272.1Q256.6 272.4 256.2 272.6Q255.7 272.9 255.0 272.9L255.0 272.9Q254.1 272.9 253.3 272.4Q252.6 272.0 252.2 271.2Q251.8 270.3 251.8 269.1L251.8 269.1Q251.8 268.0 252.2 267.1Q252.6 266.2 253.3 265.7Q254.1 265.3 255.0 265.3L255.0 265.3Q255.8 265.3 256.2 265.5Q256.6 265.7 256.9 266.1Q257.1 266.4 257.2 266.6L257.2 266.6L257.4 266.6L257.4 265.4L258.6 265.4L258.6 273.2Q258.6 274.2 258.1 274.8Q257.7 275.4 256.9 275.7Q256.2 276.0 255.2 276.0ZM255.2 271.8L255.2 271.8Q255.9 271.8 256.4 271.5Q256.9 271.1 257.1 270.5Q257.3 270.0 257.3 269.1L257.3 269.1Q257.3 268.3 257.1 267.7Q256.9 267.1 256.4 266.7Q255.9 266.4 255.2 266.4L255.2 266.4Q254.5 266.4 254.0 266.7Q253.5 267.1 253.3 267.7Q253.0 268.4 253.0 269.1L253.0 269.1Q253.0 269.9 253.3 270.5Q253.5 271.1 254.0 271.4Q254.5 271.8 255.2 271.8ZM263.3 273.2L263.3 273.2Q262.5 273.2 261.9 272.9Q261.3 272.7 260.9 272.3Q260.5 271.8 260.4 271.1L260.4 271.1L261.5 270.9Q261.7 271.5 262.2 271.8Q262.6 272.1 263.3 272.1L263.3 272.1Q264.1 272.1 264.6 271.7Q265.1 271.4 265.1 270.9L265.1 270.9Q265.1 270.5 264.8 270.3Q264.5 270.0 263.9 269.9L263.9 269.9L262.7 269.6Q261.6 269.3 261.1 268.8Q260.6 268.3 260.6 267.5L260.6 267.5Q260.6 266.8 261.0 266.3Q261.3 265.8 262.0 265.5Q262.6 265.3 263.4 265.3L263.4 265.3Q264.2 265.3 264.8 265.5Q265.3 265.7 265.7 266.1Q266.0 266.6 266.2 267.1L266.2 267.1L265.1 267.4Q264.9 267.0 264.6 266.6Q264.2 266.3 263.4 266.3L263.4 266.3Q262.8 266.3 262.3 266.6Q261.9 266.9 261.9 267.4L261.9 267.4Q261.9 267.8 262.2 268.1Q262.5 268.4 263.1 268.5L263.1 268.5L264.3 268.8Q265.3 269.0 265.8 269.5Q266.3 270.1 266.3 270.8L266.3 270.8Q266.3 271.5 266.0 272.0Q265.6 272.6 264.9 272.9Q264.2 273.2 263.3 273.2Z "/></g><mask id="satori_om-id-1-1-2-2"><rect x="277" y="259" width="8" height="18" fill="#fff" mask="url(#satori_om-id)"/></mask><rect x="277" y="259" width="8" height="18" fill="#5EEAD4" clip-path="url(#satori_cp-id)" mask="url(#satori_om-id)"/></svg>