<!-- Generated by readme-aura https://github.com/collectioneur/readme-aura -->
<svg width="860" height="78" viewBox="0 0 860 78" xmlns="http://www.w3.org/2000/svg"><defs><clipPath id="satori_bc-id"><path x="0" y="0" width="860" height="78" d="M12,0 h836 a12,12 0 0 1 12,12 v54 a12,12 0 0 1 -12,12 h-836 a12,12 0 0 1 -12,-12 v-54 a12,12 0 0 1 12,-12"/></clipPath></defs><mask id="satori_om-id"><rect x="1" y="1" width="858" height="76" fill="#fff"/><path width="860" height="78" fill="none" stroke="#000" stroke-width="2" d="M3.5150000000000006,3.5150000000000006 A12,12 0 0 1 12,0 h836 a12,12 0 0 1 12,12 v54 a12,12 0 0 1 -12,12 h-836 a12,12 0 0 1 -12,-12 v-54 A12,12 0 0 1 3.5150000000000006,3.5150000000000006"/></mask><path x="0" y="0" width="860" height="78" fill="#0A0B0E" d="M12,0 h836 a12,12 0 0 1 12,12 v54 a12,12 0 0 1 -12,12 h-836 a12,12 0 0 1 -12,-12 v-54 a12,12 0 0 1 12,-12"/><path width="860" height="78" clip-path="url(#satori_bc-id)" fill="none" stroke="#2D313B" stroke-width="2" d="M3.5150000000000006,3.5150000000000006 A12,12 0 0 1 12,0 h836 a12,12 0 0 1 12,12 v54 a12,12 0 0 1 -12,12 h-836 a12,12 0 0 1 -12,-12 v-54 A12,12 0 0 1 3.5150000000000006,3.5150000000000006"/><mask id="satori_om-id-0"><rect x="25" y="31" width="41" height="16" fill="#fff"/></mask><g  ><path fill="#F5A623" d="M28.3 34.1L29.4 34.1L26.3 45.4L25.3 45.4L28.3 34.1ZM35.2 34.1L36.3 34.1L33.2 45.4L32.2 45.4L35.2 34.1Z M48.7 44.1L48.7 44.1Q47.7 44.1 46.9 43.6Q46.2 43.0 45.8 41.9Q45.4 40.8 45.4 39.3L45.4 39.3Q45.4 37.7 45.8 36.7Q46.2 35.6 46.9 35.0Q47.7 34.4 48.7 34.4L48.7 34.4Q49.8 34.4 50.5 35.0Q51.3 35.6 51.7 36.7Q52.1 37.7 52.1 39.3L52.1 39.3Q52.1 40.8 51.7 41.9Q51.3 43.0 50.5 43.6Q49.8 44.1 48.7 44.1ZM48.7 43.1L48.7 43.1Q49.4 43.1 49.9 42.6Q50.4 42.2 50.6 41.3Q50.9 40.5 50.9 39.3L50.9 39.3Q50.9 38.1 50.6 37.2Q50.4 36.4 49.9 35.9Q49.4 35.5 48.7 35.5L48.7 35.5Q48.0 35.5 47.6 35.9Q47.1 36.4 46.8 37.2Q46.6 38.1 46.6 39.3L46.6 39.3Q46.6 40.5 46.8 41.3Q47.1 42.2 47.6 42.6Q48.0 43.1 48.7 43.1ZM62.0 44L56.0 44L56.0 43.1L59.1 39.7Q59.7 39.2 60.0 38.7Q60.4 38.3 60.5 37.9Q60.7 37.5 60.7 37.1L60.7 37.1Q60.7 36.6 60.5 36.2Q60.3 35.8 59.9 35.7Q59.5 35.5 58.9 35.5L58.9 35.5Q58.4 35.5 58.0 35.7Q57.6 35.9 57.4 36.3Q57.2 36.7 57.2 37.2L57.2 37.2L56.0 37.2Q56.0 36.4 56.4 35.8Q56.8 35.1 57.5 34.8Q58.1 34.4 59.0 34.4L59.0 34.4Q59.8 34.4 60.5 34.8Q61.1 35.1 61.5 35.7Q61.9 36.3 61.9 37.1L61.9 37.1Q61.9 37.6 61.7 38.1Q61.5 38.5 61.0 39.2Q60.6 39.8 59.7 40.7L59.7 40.7L57.7 42.9L57.7 42.9L62.0 42.9L62.0 44Z "/></g><mask id="satori_om-id-1"><rect x="80" y="22" width="123" height="34" fill="#fff"/></mask><g  ><path fill="#F4F4F5" d="M86.0 49L81.8 49L81.8 28.6L88.2 28.6L91.6 38.0Q91.8 38.6 92.0 39.7Q92.3 40.7 92.6 41.9L92.6 41.9Q92.8 43.1 93.1 44.2L93.1 44.2Q93.3 43.1 93.6 41.9L93.6 41.9Q93.8 40.7 94.1 39.7Q94.4 38.6 94.6 38.0L94.6 38.0L97.8 28.6L104.3 28.6L104.3 49L100.1 49L100.1 39.4Q100.1 38.7 100.1 37.7Q100.1 36.7 100.1 35.6Q100.2 34.4 100.2 33.3L100.2 33.3Q100.2 32.7 100.2 32.2L100.2 32.2Q100.1 32.8 99.9 33.4L99.9 33.4Q99.6 34.6 99.3 35.7Q99.0 36.9 98.7 37.8Q98.4 38.8 98.2 39.4L98.2 39.4L94.8 49L91.3 49L87.9 39.4Q87.7 38.8 87.4 37.8Q87.1 36.9 86.8 35.8Q86.4 34.6 86.1 33.4L86.1 33.4Q86.0 32.9 85.8 32.4L85.8 32.4Q85.8 32.8 85.9 33.2L85.9 33.2Q85.9 34.4 85.9 35.5Q85.9 36.7 86.0 37.7Q86.0 38.7 86.0 39.4L86.0 39.4L86.0 49ZM107.7 54.4L107.7 54.4L108.7 51.3L109.2 51.4Q110.0 51.7 110.6 51.6Q111.3 51.5 111.7 51.1Q112.1 50.6 112.1 49.9L112.1 49.9L112.3 49.0L106.5 33.7L110.9 33.7L113.4 41.6Q113.9 43.1 114.2 44.7L114.2 44.7Q114.3 45.2 114.4 45.7L114.4 45.7Q114.5 45.2 114.7 44.6L114.7 44.6Q115.0 43.1 115.5 41.6L115.5 41.6L118.2 33.7L122.5 33.7L116.0 50.8Q115.5 52.0 114.8 52.9Q114.1 53.8 113.0 54.3Q111.9 54.8 110.4 54.8L110.4 54.8Q109.6 54.8 108.9 54.7Q108.2 54.6 107.7 54.4Z M138.9 49.3L138.9 49.3Q136.4 49.3 134.6 48.5Q132.8 47.8 131.8 46.3Q130.8 44.8 130.7 42.7L130.7 42.7L134.8 42.7Q134.9 43.7 135.4 44.4Q135.9 45.1 136.8 45.4Q137.7 45.8 138.8 45.8L138.8 45.8Q140.0 45.8 140.8 45.5Q141.6 45.1 142.1 44.5Q142.5 44.0 142.5 43.2L142.5 43.2Q142.5 42.5 142.1 42.0Q141.7 41.5 140.9 41.2Q140.2 40.9 139.0 40.6L139.0 40.6L136.8 40.0Q134.2 39.4 132.7 38.1Q131.3 36.7 131.3 34.5L131.3 34.5Q131.3 32.6 132.3 31.3Q133.3 29.9 135.0 29.1Q136.7 28.4 138.9 28.4L138.9 28.4Q141.2 28.4 142.9 29.1Q144.6 29.9 145.5 31.3Q146.4 32.6 146.5 34.4L146.5 34.4L142.4 34.4Q142.3 33.2 141.4 32.5Q140.5 31.9 138.9 31.9L138.9 31.9Q137.8 31.9 137.1 32.2Q136.3 32.5 136.0 33.0Q135.6 33.5 135.6 34.2L135.6 34.2Q135.6 35.0 136.0 35.5Q136.5 36.0 137.2 36.3Q138.0 36.6 138.8 36.8L138.8 36.8L140.7 37.2Q141.9 37.5 143.1 38.0Q144.2 38.5 145.0 39.2Q145.8 39.9 146.3 40.9Q146.7 41.9 146.7 43.2L146.7 43.2Q146.7 45.0 145.8 46.4Q144.9 47.8 143.1 48.5Q141.4 49.3 138.9 49.3ZM153.8 49L149.7 49L149.7 28.6L153.8 28.6L153.8 39.6L154.0 39.6L159.0 33.7L163.7 33.7L158.0 40.4L164.0 49L159.2 49L154.9 42.8L153.8 44.1L153.8 49ZM170.0 49L165.9 49L165.9 33.7L170.0 33.7L170.0 49ZM168.0 31.7L168.0 31.7Q167.0 31.7 166.4 31.1Q165.7 30.5 165.7 29.6L165.7 29.6Q165.7 28.7 166.4 28.1Q167.0 27.5 168.0 27.5L168.0 27.5Q168.9 27.5 169.5 28.1Q170.2 28.7 170.2 29.6L170.2 29.6Q170.2 30.5 169.5 31.1Q168.9 31.7 168.0 31.7ZM173.5 28.6L177.6 28.6L177.6 49L173.5 49L173.5 28.6ZM181.1 28.6L185.2 28.6L185.2 49L181.1 49L181.1 28.6ZM194.7 49.3L194.7 49.3Q192.9 49.3 191.5 48.8Q190.0 48.2 189.1 47.2Q188.2 46.2 188.0 44.8L188.0 44.8L191.8 44.2Q192.1 45.2 192.8 45.8Q193.6 46.3 194.9 46.3L194.9 46.3Q196.0 46.3 196.7 45.8Q197.4 45.4 197.4 44.7L197.4 44.7Q197.4 44.1 196.9 43.7Q196.4 43.4 195.4 43.1L195.4 43.1L192.8 42.6Q190.6 42.2 189.5 41.1Q188.4 40.0 188.4 38.3L188.4 38.3Q188.4 36.8 189.2 35.7Q190.0 34.7 191.4 34.1Q192.9 33.5 194.8 33.5L194.8 33.5Q196.6 33.5 197.9 34.0Q199.3 34.5 200.1 35.4Q200.9 36.4 201.2 37.6L201.2 37.6L197.5 38.2Q197.3 37.5 196.6 37.0Q196.0 36.5 194.9 36.5L194.9 36.5Q193.8 36.5 193.2 36.9Q192.5 37.3 192.5 38.0L192.5 38.0Q192.5 38.6 192.9 39.0Q193.4 39.4 194.4 39.6L194.4 39.6L197.2 40.2Q199.4 40.6 200.5 41.6Q201.6 42.6 201.6 44.3L201.6 44.3Q201.6 45.8 200.7 46.9Q199.8 48.0 198.3 48.7Q196.7 49.3 194.7 49.3Z "/></g><mask id="satori_om-id-2"><rect x="225" y="39" width="610" height="1" fill="#fff"/></mask><rect x="225" y="39" width="610" height="1" fill="rgba(94,234,212,.28)"/></svg>