<!-- Generated by readme-aura https://github.com/collectioneur/readme-aura -->
<svg width="860" height="340" viewBox="0 0 860 340" xmlns="http://www.w3.org/2000/svg"><defs><clipPath id="satori_bc-id"><path x="0" y="0" width="860" height="340" d="M18,0 h824 a18,18 0 0 1 18,18 v304 a18,18 0 0 1 -18,18 h-824 a18,18 0 0 1 -18,-18 v-304 a18,18 0 0 1 18,-18"/></clipPath></defs><clipPath id="satori_cp-id"><path x="0" y="0" width="860" height="340" d="M18,0 h824 a18,18 0 0 1 18,18 v304 a18,18 0 0 1 -18,18 h-824 a18,18 0 0 1 -18,-18 v-304 a18,18 0 0 1 18,-18"/></clipPath><mask id="satori_om-id"><rect x="1" y="1" width="858" height="338" fill="#fff"/><path width="860" height="340" fill="none" stroke="#000" stroke-width="2" d="M5.272,5.272 A18,18 0 0 1 18,0 h824 a18,18 0 0 1 18,18 v304 a18,18 0 0 1 -18,18 h-824 a18,18 0 0 1 -18,-18 v-304 A18,18 0 0 1 5.272,5.272"/></mask><path x="0" y="0" width="860" height="340" fill="#0A0B0E" d="M18,0 h824 a18,18 0 0 1 18,18 v304 a18,18 0 0 1 -18,18 h-824 a18,18 0 0 1 -18,-18 v-304 a18,18 0 0 1 18,-18"/><path width="860" height="340" clip-path="url(#satori_bc-id)" fill="none" stroke="#2D313B" stroke-width="2" d="M5.272,5.272 A18,18 0 0 1 18,0 h824 a18,18 0 0 1 18,18 v304 a18,18 0 0 1 -18,18 h-824 a18,18 0 0 1 -18,-18 v-304 A18,18 0 0 1 5.272,5.272"/><clipPath id="satori_cp-id-0" clip-path="url(#satori_cp-id)"><rect x="1" y="0" width="860" height="340"/></clipPath><mask id="satori_om-id-0"><rect x="1" y="0" width="860" height="340" fill="#fff" mask="url(#satori_om-id)"/></mask><svg x="1" y="0" width="860" height="340" preserveAspectRatio="none" clip-path="url(#satori_cp-id-0)" mask="url(#satori_om-id-0)"><defs><radialGradient id="amberGlow" cx="25%" cy="8%" r="65%"><stop offset="0%" stop-color="rgba(245,166,35,0.26)"></stop><stop offset="100%" stop-color="rgba(245,166,35,0)"></stop></radialGradient><radialGradient id="mintGlow" cx="86%" cy="20%" r="54%"><stop offset="0%" stop-color="rgba(94,234,212,0.18)"></stop><stop offset="100%" stop-color="rgba(94,234,212,0)"></stop></radialGradient><pattern id="grid" width="48" height="48" patternUnits="userSpaceOnUse"><path d="M 48 0 L 0 0 0 48" fill="none" stroke="rgba(45,49,59,.72)" stroke-width="1"></path></pattern><linearGradient id="headline" x1="0" x2="1" y1="0" y2="1"><stop offset="0%" stop-color="#F5A623"></stop><stop offset="72%" stop-color="#5EEAD4"></stop></linearGradient></defs><rect width="860" height="340" fill="url(#grid)" opacity=".7"></rect><rect width="860" height="340" fill="url(#amberGlow)"></rect><rect width="860" height="340" fill="url(#mintGlow)"></rect><rect id="scan-line" x="0" y="0" width="860" height="70" fill="rgba(94,234,212,.045)"></rect><line x1="42" y1="279" x2="818" y2="279" stroke="rgba(94,234,212,.3)" stroke-width="1" stroke-dasharray="8 10"></line><circle cx="770" cy="66" r="52" fill="none" stroke="rgba(94,234,212,.24)"></circle><circle cx="770" cy="66" r="86" fill="none" stroke="rgba(245,166,35,.16)"></circle><style>

    @keyframes pulse-dot { 0%, 100% { opacity: 1; transform: scale(1); } 50% { opacity: 0.42; transform: scale(1.8); } }
    @keyframes scan { 0% { transform: translateY(-120px); opacity: 0; } 18%, 75% { opacity: .65; } 100% { transform: translateY(360px); opacity: 0; } }
    #live-dot { animation: pulse-dot 1.8s ease-in-out infinite; transform-origin: center; }
    #scan-line { animation: scan 6s linear infinite; }
  
</style>
</svg><mask id="satori_om-id-0-0"><rect x="1" y="0" width="0" height="340" fill="#fff" mask="url(#satori_om-id)"/></mask><mask id="satori_om-id-0-0-0"><rect x="1" y="0" width="0" height="340" fill="#fff" mask="url(#satori_om-id)"/></mask><mask id="satori_om-id-0-0-0-0"><rect x="1" y="0" width="0" height="340" fill="#fff" mask="url(#satori_om-id)"/></mask><mask id="satori_om-id-0-0-0-1"><rect x="1" y="0" width="0" height="340" fill="#fff" mask="url(#satori_om-id)"/></mask><mask id="satori_om-id-0-0-1"><rect x="1" y="0" width="0" height="340" fill="#fff" mask="url(#satori_om-id)"/></mask><mask id="satori_om-id-0-0-1-0"><rect x="1" y="0" width="0" height="340" fill="#fff" mask="url(#satori_om-id)"/></mask><mask id="satori_om-id-0-0-1-1"><rect x="1" y="0" width="0" height="340" fill="#fff" mask="url(#satori_om-id)"/></mask><mask id="satori_om-id-0-0-2"><rect x="1" y="0" width="0" height="340" fill="#fff" mask="url(#satori_om-id)"/></mask><mask id="satori_om-id-0-0-2-0"><rect x="1" y="0" width="0" height="340" fill="#fff" mask="url(#satori_om-id)"/></mask><mask id="satori_om-id-0-0-3"><rect x="1" y="0" width="0" height="340" fill="#fff" mask="url(#satori_om-id)"/></mask><mask id="satori_om-id-0-0-3-0"><rect x="1" y="0" width="0" height="340" fill="#fff" mask="url(#satori_om-id)"/></mask><mask id="satori_om-id-0-0-3-1"><rect x="1" y="0" width="0" height="340" fill="#fff" mask="url(#satori_om-id)"/></mask><mask id="satori_om-id-0-1"><rect x="1" y="0" width="0" height="340" fill="#fff" mask="url(#satori_om-id)"/></mask><mask id="satori_om-id-0-2"><rect x="1" y="0" width="0" height="340" fill="#fff" mask="url(#satori_om-id)"/></mask><mask id="satori_om-id-0-3"><rect x="1" y="0" width="0" height="340" fill="#fff" mask="url(#satori_om-id)"/></mask><mask id="satori_om-id-0-4"><rect x="1" y="0" width="0" height="340" fill="#fff" mask="url(#satori_om-id)"/></mask><mask id="satori_om-id-0-5"><rect x="1" y="0" width="0" height="340" fill="#fff" mask="url(#satori_om-id)"/></mask><mask id="satori_om-id-0-6"><rect x="1" y="0" width="0" height="340" fill="#fff" mask="url(#satori_om-id)"/></mask><mask id="satori_om-id-0-7"><rect x="1" y="0" width="0" height="340" fill="#fff" mask="url(#satori_om-id)"/></mask><mask id="satori_om-id-1"><rect x="1" y="0" width="858" height="341" fill="#fff" mask="url(#satori_om-id)"/></mask><mask id="satori_om-id-1-0"><rect x="49" y="42" width="762" height="31" fill="#fff" mask="url(#satori_om-id)"/></mask><defs><clipPath id="satori_bc-id-1-0-0" clip-path="url(#satori_cp-id)"><path x="49" y="42" width="127" height="31" d="M64.5,42 h96 a15.5,15.5 0 0 1 15.5,15.5 v0 a15.5,15.5 0 0 1 -15.5,15.5 h-96 a15.5,15.5 0 0 1 -15.5,-15.5 v0 a15.5,15.5 0 0 1 15.5,-15.5"/></clipPath></defs><mask id="satori_om-id-1-0-0"><rect x="50" y="43" width="125" height="29" fill="#fff" mask="url(#satori_om-id)"/><path width="127" height="31" fill="none" stroke="#000" stroke-width="2" d="M53.54,46.54 A15.5,15.5 0 0 1 64.5,42 h96 a15.5,15.5 0 0 1 15.5,15.5 v0 a15.5,15.5 0 0 1 -15.5,15.5 h-96 a15.5,15.5 0 0 1 -15.5,-15.5 v0 A15.5,15.5 0 0 1 53.54,46.54"/></mask><path x="49" y="42" width="127" height="31" fill="rgba(94,234,212,.08)" d="M64.5,42 h96 a15.5,15.5 0 0 1 15.5,15.5 v0 a15.5,15.5 0 0 1 -15.5,15.5 h-96 a15.5,15.5 0 0 1 -15.5,-15.5 v0 a15.5,15.5 0 0 1 15.5,-15.5" clip-path="url(#satori_cp-id)" mask="url(#satori_om-id)"/><path width="127" height="31" clip-path="url(#satori_bc-id-1-0-0)" fill="none" stroke="rgba(94,234,212,.55)" stroke-width="2" d="M53.54,46.54 A15.5,15.5 0 0 1 64.5,42 h96 a15.5,15.5 0 0 1 15.5,15.5 v0 a15.5,15.5 0 0 1 -15.5,15.5 h-96 a15.5,15.5 0 0 1 -15.5,-15.5 v0 A15.5,15.5 0 0 1 53.54,46.54"/><clipPath id="satori_cp-id-1-0-0-0" clip-path="url(#satori_cp-id)"><rect x="62" y="53" width="10" height="10"/></clipPath><mask id="satori_om-id-1-0-0-0"><rect x="62" y="53" width="10" height="10" fill="#fff" mask="url(#satori_om-id)"/></mask><svg x="62" y="53" width="10" height="10" preserveAspectRatio="none" clip-path="url(#satori_cp-id-1-0-0-0)" mask="url(#satori_om-id-1-0-0-0)"><circle id="live-dot" cx="5" cy="5" r="4" fill="#5EEAD4" opacity=".85"></circle><circle cx="5" cy="5" r="3" fill="#5EEAD4"></circle></svg><mask id="satori_om-id-1-0-0-0-0"><rect x="62" y="53" width="0" height="10" fill="#fff" mask="url(#satori_om-id)"/></mask><mask id="satori_om-id-1-0-0-0-1"><rect x="62" y="53" width="0" height="10" fill="#fff" mask="url(#satori_om-id)"/></mask><mask id="satori_om-id-1-0-0-1"><rect x="80" y="50" width="83" height="15" fill="#fff" mask="url(#satori_om-id)"/></mask><g mask="url(#satori_om-id)" clip-path="url(#satori_cp-id)"><path fill="#5EEAD4" d="M82.6 62L80.8 62L80.8 53.3L84.2 53.3Q85.2 53.3 85.9 53.6Q86.6 54.0 87.0 54.7Q87.3 55.4 87.3 56.2L87.3 56.2Q87.3 57.1 86.9 57.7Q86.6 58.4 85.9 58.8Q85.2 59.1 84.2 59.1L84.2 59.1L82.6 59.1L82.6 62ZM82.6 54.7L82.6 57.7L83.9 57.7Q84.4 57.7 84.8 57.5Q85.1 57.3 85.3 57.0Q85.5 56.7 85.5 56.2Q85.5 55.8 85.3 55.4Q85.1 55.1 84.8 54.9Q84.4 54.7 83.9 54.7L83.9 54.7L82.6 54.7ZM90.4 62L88.6 62L88.6 53.3L92.0 53.3Q93.0 53.3 93.7 53.6Q94.4 54.0 94.7 54.6Q95.1 55.3 95.1 56.1Q95.1 57.0 94.7 57.6Q94.3 58.2 93.6 58.5L93.6 58.5Q93.6 58.6 93.5 58.6L93.5 58.6L95.4 62L93.4 62L91.8 58.9L90.4 58.9L90.4 62ZM90.4 54.7L90.4 57.4L91.6 57.4Q92.2 57.4 92.5 57.3Q92.9 57.1 93.1 56.8Q93.2 56.5 93.2 56.1L93.2 56.1Q93.2 55.7 93.1 55.4Q92.9 55.1 92.5 54.9Q92.2 54.7 91.6 54.7L91.6 54.7L90.4 54.7ZM100.3 62.1L100.3 62.1Q99.1 62.1 98.2 61.6Q97.3 61.1 96.7 60.1Q96.2 59.1 96.2 57.6L96.2 57.6Q96.2 56.2 96.7 55.2Q97.3 54.2 98.2 53.7Q99.1 53.2 100.3 53.2L100.3 53.2Q101.4 53.2 102.4 53.7Q103.3 54.2 103.8 55.2Q104.4 56.2 104.4 57.6L104.4 57.6Q104.4 59.1 103.8 60.1Q103.3 61.1 102.4 61.6Q101.4 62.1 100.3 62.1ZM100.3 60.5L100.3 60.5Q101.0 60.5 101.5 60.2Q102.0 59.9 102.3 59.2Q102.5 58.6 102.5 57.6L102.5 57.6Q102.5 56.7 102.3 56.0Q102.0 55.4 101.5 55.1Q101.0 54.7 100.3 54.7L100.3 54.7Q99.6 54.7 99.1 55.1Q98.6 55.4 98.3 56.1Q98.0 56.7 98.0 57.6L98.0 57.6Q98.0 58.6 98.3 59.2Q98.6 59.9 99.1 60.2Q99.6 60.5 100.3 60.5ZM107.5 62L105.7 62L105.7 53.3L111.4 53.3L111.4 54.8L107.5 54.8L107.5 57.2L111.0 57.2L111.0 58.6L107.5 58.6L107.5 62ZM112.7 53.3L114.5 53.3L114.5 62L112.7 62L112.7 53.3ZM121.7 62L116.1 62L116.1 53.3L117.9 53.3L117.9 60.5L121.7 60.5L121.7 62ZM128.7 62L122.9 62L122.9 53.3L128.7 53.3L128.7 54.8L124.7 54.8L124.7 56.9L128.4 56.9L128.4 58.3L124.7 58.3L124.7 60.5L128.7 60.5L128.7 62ZM131.4 62.1L131.4 62.1Q131.0 62.1 130.7 61.8Q130.4 61.5 130.4 61.1L130.4 61.1Q130.4 60.7 130.7 60.4Q131.0 60.1 131.4 60.1L131.4 60.1Q131.8 60.1 132.1 60.4Q132.4 60.7 132.4 61.1L132.4 61.1Q132.4 61.5 132.1 61.8Q131.8 62.1 131.4 62.1ZM131.4 57.8L131.4 57.8Q131.0 57.8 130.7 57.5Q130.4 57.2 130.4 56.8L130.4 56.8Q130.4 56.3 130.7 56.0Q131.0 55.7 131.4 55.7L131.4 55.7Q131.8 55.7 132.1 56.0Q132.4 56.3 132.4 56.8L132.4 56.8Q132.4 57.2 132.1 57.5Q131.8 57.8 131.4 57.8Z M142.6 62L137.0 62L137.0 53.3L138.8 53.3L138.8 60.5L142.6 60.5L142.6 62ZM143.8 53.3L145.6 53.3L145.6 62L143.8 62L143.8 53.3ZM152.1 62L149.7 62L146.7 53.3L148.7 53.3L150.1 57.5Q150.3 58.3 150.6 59.2L150.6 59.2Q150.7 59.9 150.9 60.6L150.9 60.6Q151.1 59.9 151.3 59.2L151.3 59.2Q151.5 58.3 151.7 57.5L151.7 57.5L153.1 53.3L155.1 53.3L152.1 62ZM162.0 62L156.1 62L156.1 53.3L162.0 53.3L162.0 54.8L157.9 54.8L157.9 56.9L161.7 56.9L161.7 58.3L157.9 58.3L157.9 60.5L162.0 60.5L162.0 62Z "/></g><mask id="satori_om-id-1-0-1"><rect x="186" y="50" width="127" height="15" fill="#fff" mask="url(#satori_om-id)"/></mask><g mask="url(#satori_om-id)" clip-path="url(#satori_cp-id)"><path fill="#A6ADBB" d="M189.1 52.9L190.1 52.9L187.2 63.3L186.3 63.3L189.1 52.9ZM194.4 52.9L195.4 52.9L192.6 63.3L191.6 63.3L194.4 52.9Z M205.6 62.1L205.6 62.1Q204.5 62.1 203.6 61.6Q202.7 61.0 202.2 60.0Q201.7 59.0 201.7 57.6L201.7 57.6Q201.7 56.3 202.2 55.2Q202.7 54.2 203.6 53.7Q204.5 53.2 205.6 53.2L205.6 53.2Q206.3 53.2 206.9 53.4Q207.5 53.6 207.9 53.9Q208.4 54.3 208.7 54.8Q209.0 55.4 209.2 56.0L209.2 56.0L208.0 56.0Q207.9 55.6 207.7 55.3Q207.4 54.9 207.1 54.7Q206.8 54.4 206.4 54.3Q206.0 54.2 205.6 54.2L205.6 54.2Q204.8 54.2 204.2 54.6Q203.6 55.0 203.2 55.7Q202.8 56.5 202.8 57.6L202.8 57.6Q202.8 58.8 203.2 59.5Q203.6 60.3 204.2 60.7Q204.8 61.1 205.6 61.1L205.6 61.1Q206.4 61.1 206.9 60.8Q207.5 60.5 207.8 59.9L207.8 59.9Q208.1 59.3 208.1 58.6L208.1 58.6L205.9 58.6L205.9 57.6L209.2 57.6L209.2 58.6Q209.2 59.7 208.8 60.4Q208.3 61.2 207.5 61.7Q206.7 62.1 205.6 62.1ZM212.0 53.3L213.1 53.3L213.1 62L212.0 62L212.0 53.3ZM218.5 54.3L215.8 54.3L215.8 53.3L222.4 53.3L222.4 54.3L219.6 54.3L219.6 62L218.5 62L218.5 54.3ZM226.1 62L225 62L225 53.3L226.1 53.3L226.1 57.0L230.7 57.0L230.7 53.3L231.8 53.3L231.8 62L230.7 62L230.7 58.0L226.1 58.0L226.1 62ZM238.3 62.1L238.3 62.1Q237.3 62.1 236.5 61.7Q235.8 61.3 235.3 60.6Q234.9 59.9 234.9 59.0L234.9 59.0L234.9 53.3L236.0 53.3L236.0 58.9Q236.0 59.6 236.3 60.1Q236.6 60.5 237.1 60.8Q237.6 61.1 238.3 61.1L238.3 61.1Q239.0 61.1 239.6 60.8Q240.1 60.5 240.3 60.1Q240.6 59.6 240.6 58.9L240.6 58.9L240.6 53.3L241.7 53.3L241.7 59.0Q241.7 59.9 241.3 60.6Q240.9 61.3 240.1 61.7Q239.4 62.1 238.3 62.1ZM248.0 62L244.8 62L244.8 53.3L247.9 53.3Q248.9 53.3 249.5 53.6Q250.0 53.9 250.3 54.4Q250.6 54.9 250.6 55.6L250.6 55.6Q250.6 56.1 250.4 56.5Q250.2 56.9 249.9 57.1Q249.6 57.3 249.2 57.4L249.2 57.4L249.2 57.5Q249.6 57.5 250.0 57.8Q250.4 58.0 250.7 58.5Q251.0 59.0 251.0 59.7L251.0 59.7Q251.0 60.3 250.7 60.9Q250.4 61.4 249.7 61.7Q249.1 62 248.0 62L248.0 62ZM246.0 58.0L246.0 61.0L248.0 61.0Q249.0 61.0 249.5 60.6Q249.9 60.2 249.9 59.7L249.9 59.7Q249.9 59.2 249.7 58.9Q249.4 58.5 249.0 58.3Q248.6 58.0 248.1 58.0L248.1 58.0L246.0 58.0ZM246.0 54.3L246.0 57.1L247.9 57.1Q248.4 57.1 248.7 56.9Q249.1 56.7 249.3 56.4Q249.6 56.1 249.6 55.6L249.6 55.6Q249.6 55.0 249.2 54.6Q248.8 54.3 247.9 54.3L247.9 54.3L246.0 54.3Z M259.2 62L258.1 62L258.1 53.3L261.1 53.3Q262.1 53.3 262.7 53.6Q263.4 54.0 263.7 54.6Q264.0 55.2 264.0 56.0Q264.0 56.7 263.7 57.3Q263.4 57.9 262.7 58.3L262.7 58.3Q262.6 58.4 262.4 58.4L262.4 58.4L264.4 62L263.1 62L261.3 58.6Q261.2 58.6 261.1 58.6L261.1 58.6L259.2 58.6L259.2 62ZM259.2 54.2L259.2 57.6L261.0 57.6Q261.7 57.6 262.1 57.4Q262.5 57.2 262.7 56.8Q262.9 56.5 262.9 56.0L262.9 56.0Q262.9 55.4 262.7 55.1Q262.5 54.7 262.1 54.5Q261.7 54.2 261.0 54.2L261.0 54.2L259.2 54.2ZM272.2 62L266.8 62L266.8 53.3L272.1 53.3L272.1 54.3L267.9 54.3L267.9 57.1L271.8 57.1L271.8 58.1L267.9 58.1L267.9 61.0L272.2 61.0L272.2 62ZM275.4 62L274.3 62L277.4 53.3L278.7 53.3L281.9 62L280.8 62L279.9 59.6L276.3 59.6L275.4 62ZM276.6 58.6L279.5 58.6L278.9 56.8Q278.7 56.3 278.5 55.6L278.5 55.6Q278.3 55.0 278.1 54.2L278.1 54.2Q277.8 55.0 277.6 55.6L277.6 55.6Q277.4 56.4 277.2 56.8L277.2 56.8L276.6 58.6ZM287.0 62L287.0 62L284.3 62L284.3 53.3L287.1 53.3Q288.4 53.3 289.3 53.8Q290.2 54.3 290.7 55.3Q291.2 56.3 291.2 57.6L291.2 57.6Q291.2 59.0 290.7 60.0Q290.2 60.9 289.3 61.5Q288.3 62 287.0 62ZM285.4 54.3L285.4 61.0L286.9 61.0Q288.0 61.0 288.7 60.6Q289.4 60.2 289.8 59.4Q290.1 58.7 290.1 57.6L290.1 57.6Q290.1 56.6 289.8 55.8Q289.4 55.1 288.7 54.7Q288.1 54.3 287.0 54.3L287.0 54.3L285.4 54.3ZM295.0 62L293.9 62L293.9 53.3L295.5 53.3L297.7 58.8Q297.8 59.0 297.9 59.3Q298.0 59.6 298.1 59.9Q298.2 60.2 298.3 60.6L298.3 60.6Q298.3 60.7 298.3 60.8L298.3 60.8Q298.3 60.7 298.4 60.6L298.4 60.6Q298.5 60.3 298.6 59.9Q298.7 59.6 298.8 59.3Q298.9 59.0 299.0 58.8L299.0 58.8L301.1 53.3L302.7 53.3L302.7 62L301.6 62L301.6 57.0Q301.6 56.7 301.6 56.4Q301.6 56.1 301.6 55.7Q301.6 55.3 301.6 54.9L301.6 54.9Q301.6 54.7 301.6 54.5L301.6 54.5Q301.5 54.7 301.5 55.0L301.5 55.0Q301.3 55.4 301.2 55.8Q301.1 56.2 300.9 56.5Q300.8 56.8 300.7 57.0L300.7 57.0L298.8 62L297.8 62L295.8 57.0Q295.8 56.8 295.7 56.5Q295.5 56.2 295.4 55.8Q295.3 55.4 295.1 55.0L295.1 55.0Q295.1 54.7 295.0 54.5L295.0 54.5Q295.0 54.7 295.0 54.8L295.0 54.8Q295.0 55.2 295.0 55.6Q295.0 56.0 295.0 56.4Q295.0 56.7 295.0 57.0L295.0 57.0L295.0 62ZM311.2 62L305.8 62L305.8 53.3L311.1 53.3L311.1 54.3L306.9 54.3L306.9 57.1L310.8 57.1L310.8 58.1L306.9 58.1L306.9 61.0L311.2 61.0L311.2 62Z "/></g><mask id="satori_om-id-1-1"><rect x="49" y="103" width="762" height="204" fill="#fff" mask="url(#satori_om-id)"/></mask><mask id="satori_om-id-1-1-0"><rect x="49" y="103" width="762" height="56" fill="#fff" mask="url(#satori_om-id)"/></mask><g mask="url(#satori_om-id)" clip-path="url(#satori_cp-id)"><path fill="#F4F4F5" d="M60.6 150L52.6 150L52.6 110.7L60.6 110.7L60.6 126.6L77.7 126.6L77.7 110.7L85.8 110.7L85.8 150L77.7 150L77.7 133.3L60.6 133.3L60.6 150ZM99.8 150L91.9 150L91.9 120.5L99.8 120.5L99.8 150ZM95.9 116.7L95.9 116.7Q94.1 116.7 92.8 115.5Q91.5 114.3 91.5 112.6L91.5 112.6Q91.5 110.9 92.8 109.7Q94.1 108.6 95.9 108.6L95.9 108.6Q97.7 108.6 98.9 109.7Q100.2 110.9 100.2 112.6L100.2 112.6Q100.2 114.3 98.9 115.5Q97.7 116.7 95.9 116.7Z M122.9 160.4L117.5 160.4L119.8 144.1L127.7 144.1L122.9 160.4Z M147.1 110.7L155.2 110.7L155.2 150L147.1 150L147.1 110.7ZM170.1 127.1L164.1 127.1L163.3 110.7L170.9 110.7L170.1 127.1ZM186.7 150L178.8 150L178.8 120.5L186.2 120.5L186.5 126.2Q187.1 124.6 188.0 123.4L188.0 123.4Q189.3 121.7 191.1 120.9Q192.9 120.1 194.9 120.1L194.9 120.1Q198.1 120.1 200.0 122.1L200.0 122.1Q201.6 123.7 202.5 126.7L202.5 126.7Q203.1 124.9 204.1 123.7L204.1 123.7Q205.6 121.8 207.7 121.0Q209.7 120.1 211.9 120.1L211.9 120.1Q214.7 120.1 216.8 121.3Q218.9 122.4 220.1 124.7Q221.4 126.9 221.4 130.1L221.4 130.1L221.4 150L213.4 150L213.4 131.6Q213.4 129.1 212.1 127.9Q210.7 126.7 208.7 126.7L208.7 126.7Q207.3 126.7 206.2 127.3Q205.1 128.0 204.5 129.1Q203.9 130.3 203.9 131.9L203.9 131.9L203.9 150L196.3 150L196.3 131.4Q196.3 129.2 195.0 128.0Q193.7 126.7 191.7 126.7L191.7 126.7Q190.3 126.7 189.1 127.3Q188.0 128.0 187.4 129.2Q186.7 130.4 186.7 132.2L186.7 132.2L186.7 150Z M247.5 150L239.5 150L239.5 110.7L251.8 110.7L258.2 128.7Q258.6 130.0 259.1 132.0Q259.6 134.0 260.1 136.3L260.1 136.3Q260.7 138.6 261.1 140.7L261.1 140.7Q261.6 138.6 262.1 136.4L262.1 136.4Q262.6 134.1 263.1 132.0Q263.6 130.0 264.0 128.7L264.0 128.7L270.3 110.7L282.7 110.7L282.7 150L274.6 150L274.6 131.5Q274.6 130.2 274.6 128.3Q274.7 126.3 274.7 124.1Q274.8 121.9 274.9 119.6L274.9 119.6Q274.9 118.6 274.9 117.6L274.9 117.6Q274.6 118.8 274.3 119.9L274.3 119.9Q273.7 122.2 273.1 124.4Q272.5 126.6 271.9 128.4Q271.4 130.3 271.0 131.5L271.0 131.5L264.5 150L257.7 150L251.1 131.5Q250.7 130.3 250.1 128.5Q249.6 126.7 249.0 124.5Q248.3 122.3 247.7 119.9L247.7 119.9Q247.4 118.9 247.2 117.9L247.2 117.9Q247.2 118.7 247.2 119.5L247.2 119.5Q247.3 121.8 247.3 124.0Q247.4 126.3 247.4 128.2Q247.5 130.1 247.5 131.5L247.5 131.5L247.5 150ZM297.0 150.6L297.0 150.6Q294.2 150.6 292.0 149.6Q289.8 148.6 288.5 146.6Q287.2 144.7 287.2 141.7L287.2 141.7Q287.2 139.3 288.1 137.6Q289.0 136.0 290.6 135.0Q292.2 134.0 294.2 133.4Q296.2 132.9 298.3 132.7L298.3 132.7Q300.9 132.4 302.5 132.2Q304.0 132.0 304.8 131.5Q305.5 131.0 305.5 130.1L305.5 130.1L305.5 129.9Q305.5 128.7 305.0 127.8Q304.4 126.9 303.4 126.5Q302.4 126.0 300.9 126.0L300.9 126.0Q299.3 126.0 298.2 126.5Q297.1 126.9 296.4 127.7Q295.7 128.5 295.3 129.4L295.3 129.4L288.1 128.2Q288.8 125.6 290.6 123.8Q292.4 122.1 295.0 121.1Q297.6 120.2 300.9 120.2L300.9 120.2Q303.3 120.2 305.5 120.7Q307.8 121.3 309.5 122.5Q311.3 123.7 312.4 125.6Q313.4 127.5 313.4 130.1L313.4 130.1L313.4 150L305.9 150L305.9 145.9L305.6 145.9Q304.9 147.3 303.7 148.3Q302.6 149.4 300.9 150.0Q299.2 150.6 297.0 150.6ZM299.3 145.0L299.3 145.0Q301.1 145.0 302.5 144.3Q304.0 143.5 304.8 142.3Q305.5 141.0 305.5 139.5L305.5 139.5L305.5 136.3Q305.2 136.5 304.5 136.7Q303.8 136.9 302.9 137.1Q302.0 137.3 301.2 137.4Q300.3 137.5 299.7 137.6L299.7 137.6Q298.2 137.8 297.1 138.3Q296.0 138.8 295.4 139.5Q294.8 140.3 294.8 141.5L294.8 141.5Q294.8 142.7 295.4 143.4Q296.0 144.2 297.0 144.6Q298.0 145.0 299.3 145.0ZM327.3 150L319.3 150L319.3 120.5L327.0 120.5L327.0 125.7L327.3 125.7Q328.1 122.9 330.0 121.5Q332.0 120.1 334.4 120.1L334.4 120.1Q335.0 120.1 335.7 120.2Q336.5 120.3 337.0 120.4L337.0 120.4L337.0 127.5Q336.5 127.3 335.5 127.2Q334.5 127.1 333.6 127.1L333.6 127.1Q331.8 127.1 330.3 127.8Q328.9 128.6 328.1 130.0Q327.3 131.4 327.3 133.2L327.3 133.2L327.3 150ZM357.8 150L348.8 150L338.0 120.5L346.4 120.5L351.4 135.8Q352.2 138.7 352.9 141.6L352.9 141.6Q353.2 142.7 353.4 143.9L353.4 143.9Q353.7 142.7 354.0 141.6L354.0 141.6Q354.6 138.7 355.5 135.8L355.5 135.8L360.4 120.5L368.7 120.5L357.8 150ZM380.0 150L372.1 150L372.1 120.5L380.0 120.5L380.0 150ZM376.1 116.7L376.1 116.7Q374.3 116.7 373.0 115.5Q371.7 114.3 371.7 112.6L371.7 112.6Q371.7 110.9 373.0 109.7Q374.3 108.6 376.1 108.6L376.1 108.6Q377.9 108.6 379.1 109.7Q380.4 110.9 380.4 112.6L380.4 112.6Q380.4 114.3 379.1 115.5Q377.9 116.7 376.1 116.7ZM393.9 132.9L393.9 132.9L393.9 150L386.0 150L386.0 120.5L393.4 120.5L393.5 126.6Q394.7 123.8 396.6 122.2L396.6 122.2Q399.0 120.2 402.7 120.2L402.7 120.2Q405.8 120.2 408.0 121.5Q410.3 122.8 411.6 125.3Q412.8 127.8 412.8 131.3L412.8 131.3L412.8 150L404.9 150L404.9 132.6Q404.9 129.9 403.5 128.3Q402.1 126.8 399.6 126.8L399.6 126.8Q397.9 126.8 396.6 127.5Q395.3 128.2 394.6 129.6Q393.9 131.0 393.9 132.9Z M448.1 150.5L448.1 150.5Q442.9 150.5 438.8 148.2Q434.6 145.8 432.2 141.3Q429.9 136.8 429.9 130.4L429.9 130.4Q429.9 124.0 432.3 119.5Q434.7 114.9 438.8 112.6Q442.9 110.2 448.1 110.2L448.1 110.2Q451.5 110.2 454.3 111.1Q457.2 112.1 459.5 113.9Q461.7 115.6 463.1 118.2Q464.6 120.8 465.0 124.2L465.0 124.2L456.9 124.2Q456.6 122.5 455.8 121.3Q455.1 120.0 454.0 119.1Q452.9 118.3 451.4 117.8Q450.0 117.3 448.3 117.3L448.3 117.3Q445.2 117.3 442.9 118.9Q440.6 120.4 439.3 123.3Q438.0 126.2 438.0 130.4L438.0 130.4Q438.0 134.6 439.3 137.5Q440.6 140.4 442.9 141.9Q445.2 143.4 448.2 143.4L448.2 143.4Q449.9 143.4 451.4 142.9Q452.8 142.5 453.9 141.6Q455.1 140.7 455.8 139.4Q456.6 138.2 456.9 136.6L456.9 136.6L465.0 136.6Q464.7 139.3 463.4 141.8Q462.1 144.3 459.9 146.3Q457.8 148.3 454.8 149.4Q451.8 150.5 448.1 150.5ZM477.8 132.9L477.8 132.9L477.8 150L469.9 150L469.9 110.7L477.7 110.7L477.7 126.2Q478.8 123.7 480.6 122.2L480.6 122.2Q482.9 120.2 486.6 120.2L486.6 120.2Q489.7 120.2 492.0 121.5Q494.3 122.8 495.5 125.3Q496.8 127.8 496.8 131.3L496.8 131.3L496.8 150L488.9 150L488.9 132.6Q488.9 129.9 487.5 128.3Q486.0 126.8 483.5 126.8L483.5 126.8Q481.9 126.8 480.6 127.5Q479.3 128.2 478.5 129.6Q477.8 131.0 477.8 132.9ZM510.9 150.6L510.9 150.6Q508.2 150.6 505.9 149.6Q503.7 148.6 502.4 146.6Q501.1 144.7 501.1 141.7L501.1 141.7Q501.1 139.3 502.1 137.6Q503.0 136.0 504.5 135.0Q506.1 134.0 508.1 133.4Q510.1 132.9 512.3 132.7L512.3 132.7Q514.8 132.4 516.4 132.2Q518.0 132.0 518.7 131.5Q519.4 131.0 519.4 130.1L519.4 130.1L519.4 129.9Q519.4 128.7 518.9 127.8Q518.4 126.9 517.3 126.5Q516.3 126.0 514.8 126.0L514.8 126.0Q513.3 126.0 512.1 126.5Q511.0 126.9 510.3 127.7Q509.6 128.5 509.2 129.4L509.2 129.4L502.0 128.2Q502.7 125.6 504.5 123.8Q506.3 122.1 508.9 121.1Q511.5 120.2 514.8 120.2L514.8 120.2Q517.2 120.2 519.4 120.7Q521.7 121.3 523.5 122.5Q525.2 123.7 526.3 125.6Q527.3 127.5 527.3 130.1L527.3 130.1L527.3 150L519.8 150L519.8 145.9L519.6 145.9Q518.9 147.3 517.7 148.3Q516.5 149.4 514.8 150.0Q513.1 150.6 510.9 150.6ZM513.2 145.0L513.2 145.0Q515.1 145.0 516.5 144.3Q517.9 143.5 518.7 142.3Q519.5 141.0 519.5 139.5L519.5 139.5L519.5 136.3Q519.1 136.5 518.4 136.7Q517.7 136.9 516.8 137.1Q516.0 137.3 515.1 137.4Q514.3 137.5 513.6 137.6L513.6 137.6Q512.2 137.8 511.1 138.3Q509.9 138.8 509.3 139.5Q508.7 140.3 508.7 141.5L508.7 141.5Q508.7 142.7 509.3 143.4Q509.9 144.2 510.9 144.6Q511.9 145.0 513.2 145.0ZM541.2 132.9L541.2 132.9L541.2 150L533.3 150L533.3 120.5L540.7 120.5L540.8 126.6Q542.0 123.8 543.9 122.2L543.9 122.2Q546.3 120.2 550.0 120.2L550.0 120.2Q553.1 120.2 555.4 121.5Q557.6 122.8 558.9 125.3Q560.1 127.8 560.1 131.3L560.1 131.3L560.1 150L552.2 150L552.2 132.6Q552.2 129.9 550.8 128.3Q549.4 126.8 546.9 126.8L546.9 126.8Q545.2 126.8 543.9 127.5Q542.6 128.2 541.9 129.6Q541.2 131.0 541.2 132.9ZM576.8 150.5L576.8 150.5Q573.5 150.5 570.7 148.7Q568.0 147.0 566.4 143.6Q564.9 140.2 564.9 135.3L564.9 135.3Q564.9 130.3 566.5 126.9Q568.1 123.5 570.8 121.8Q573.6 120.2 576.8 120.2L576.8 120.2Q579.3 120.2 581.0 121.0Q582.7 121.8 583.7 123.1Q584.7 124.3 585.2 125.5L585.2 125.5L585.5 125.5L585.5 110.7L593.4 110.7L593.4 150L585.6 150L585.6 145.3L585.2 145.3Q584.7 146.5 583.6 147.7Q582.6 148.9 580.9 149.7Q579.3 150.5 576.8 150.5ZM579.3 144.1L579.3 144.1Q581.3 144.1 582.7 143.0Q584.2 141.9 584.9 139.9Q585.6 138.0 585.6 135.3L585.6 135.3Q585.6 132.6 584.9 130.6Q584.2 128.7 582.8 127.6Q581.3 126.5 579.3 126.5L579.3 126.5Q577.2 126.5 575.8 127.6Q574.4 128.7 573.7 130.7Q573.0 132.7 573.0 135.3L573.0 135.3Q573.0 137.9 573.7 139.9Q574.4 141.9 575.8 143.0Q577.2 144.1 579.3 144.1ZM607.2 150L599.3 150L599.3 120.5L607.2 120.5L607.2 150ZM603.3 116.7L603.3 116.7Q601.5 116.7 600.2 115.5Q599.0 114.3 599.0 112.6L599.0 112.6Q599.0 110.9 600.2 109.7Q601.5 108.6 603.3 108.6L603.3 108.6Q605.1 108.6 606.4 109.7Q607.6 110.9 607.6 112.6L607.6 112.6Q607.6 114.3 606.4 115.5Q605.1 116.7 603.3 116.7ZM621.4 150.6L621.4 150.6Q618.6 150.6 616.4 149.6Q614.1 148.6 612.9 146.6Q611.6 144.7 611.6 141.7L611.6 141.7Q611.6 139.3 612.5 137.6Q613.4 136.0 615.0 135.0Q616.5 134.0 618.5 133.4Q620.5 132.9 622.7 132.7L622.7 132.7Q625.3 132.4 626.8 132.2Q628.4 132.0 629.1 131.5Q629.9 131.0 629.9 130.1L629.9 130.1L629.9 129.9Q629.9 128.7 629.3 127.8Q628.8 126.9 627.8 126.5Q626.7 126.0 625.2 126.0L625.2 126.0Q623.7 126.0 622.6 126.5Q621.4 126.9 620.7 127.7Q620.0 128.5 619.7 129.4L619.7 129.4L612.4 128.2Q613.2 125.6 615.0 123.8Q616.7 122.1 619.3 121.1Q622.0 120.2 625.3 120.2L625.3 120.2Q627.6 120.2 629.9 120.7Q632.1 121.3 633.9 122.5Q635.7 123.7 636.7 125.6Q637.8 127.5 637.8 130.1L637.8 130.1L637.8 150L630.3 150L630.3 145.9L630.0 145.9Q629.3 147.3 628.1 148.3Q626.9 149.4 625.3 150.0Q623.6 150.6 621.4 150.6ZM623.6 145.0L623.6 145.0Q625.5 145.0 626.9 144.3Q628.3 143.5 629.1 142.3Q629.9 141.0 629.9 139.5L629.9 139.5L629.9 136.3Q629.6 136.5 628.9 136.7Q628.1 136.9 627.3 137.1Q626.4 137.3 625.6 137.4Q624.7 137.5 624.1 137.6L624.1 137.6Q622.6 137.8 621.5 138.3Q620.4 138.8 619.8 139.5Q619.2 140.3 619.2 141.5L619.2 141.5Q619.2 142.7 619.8 143.4Q620.3 144.2 621.3 144.6Q622.3 145.0 623.6 145.0ZM651.6 150L643.7 150L643.7 120.5L651.4 120.5L651.4 125.7L651.7 125.7Q652.5 122.9 654.4 121.5Q656.3 120.1 658.8 120.1L658.8 120.1Q659.4 120.1 660.1 120.2Q660.8 120.3 661.4 120.4L661.4 120.4L661.4 127.5Q660.8 127.3 659.8 127.2Q658.8 127.1 657.9 127.1L657.9 127.1Q656.1 127.1 654.7 127.8Q653.2 128.6 652.4 130.0Q651.6 131.4 651.6 133.2L651.6 133.2L651.6 150ZM664.7 160.4L664.7 160.4L666.5 154.5L667.5 154.7Q669.1 155.1 670.3 155.0Q671.6 154.8 672.3 154.0Q673.1 153.1 673.2 151.7L673.2 151.7L673.4 150.1L662.3 120.5L670.8 120.5L675.7 135.8Q676.6 138.7 677.2 141.6L677.2 141.6Q677.4 142.6 677.6 143.6L677.6 143.6Q677.8 142.6 678.1 141.6L678.1 141.6Q678.8 138.7 679.7 135.8L679.7 135.8L684.9 120.5L693.2 120.5L680.7 153.5Q679.8 155.9 678.4 157.6Q677.0 159.3 674.9 160.3Q672.8 161.2 669.9 161.2L669.9 161.2Q668.3 161.2 666.9 161.0Q665.5 160.8 664.7 160.4Z "/></g><mask id="satori_om-id-1-1-1"><rect x="49" y="173" width="762" height="60" fill="#fff" mask="url(#satori_om-id)"/></mask><g mask="url(#satori_om-id)" clip-path="url(#satori_cp-id)"><path fill="#A6ADBB" d="M50.9 180.0L53.0 180.0L53.0 196L50.9 196L50.9 180.0ZM58.5 188.8L58.5 188.8L58.5 196L56.6 196L56.6 184.0L58.5 184.0L58.5 186.2Q59.0 185.1 59.8 184.5L59.8 184.5Q60.8 183.8 62.1 183.8L62.1 183.8Q63.4 183.8 64.3 184.3Q65.2 184.8 65.7 185.8Q66.2 186.8 66.2 188.4L66.2 188.4L66.2 196L64.3 196L64.3 188.5Q64.3 187.1 63.6 186.4Q62.8 185.6 61.6 185.6L61.6 185.6Q60.7 185.6 60.0 186.0Q59.3 186.3 58.9 187.1Q58.5 187.8 58.5 188.8ZM72.4 184.0L75.2 184.0L75.2 185.6L72.4 185.6L72.4 196L70.5 196L70.5 185.6L68.1 185.6L68.1 184.0L70.5 184.0L70.5 182.4Q70.5 181.3 71.0 180.6Q71.5 180.0 72.2 179.6Q73.0 179.2 73.9 179.2L73.9 179.2Q74.6 179.2 75.0 179.4Q75.5 179.5 75.7 179.6L75.7 179.6L75.2 181.2Q75.0 181.2 74.8 181.1Q74.5 181.0 74.1 181.0L74.1 181.0Q73.2 181.0 72.8 181.5Q72.4 181.9 72.4 182.8L72.4 182.8L72.4 184.0ZM82.6 196.3L82.6 196.3Q81.0 196.3 79.8 195.5Q78.5 194.7 77.9 193.3Q77.2 191.9 77.2 190.1L77.2 190.1Q77.2 188.2 77.9 186.8Q78.5 185.4 79.8 184.6Q81.0 183.8 82.6 183.8L82.6 183.8Q84.3 183.8 85.5 184.6Q86.7 185.4 87.4 186.8Q88.1 188.2 88.1 190.1L88.1 190.1Q88.1 191.9 87.4 193.3Q86.7 194.7 85.5 195.5Q84.3 196.3 82.6 196.3ZM82.6 194.5L82.6 194.5Q83.8 194.5 84.6 193.9Q85.4 193.3 85.8 192.3Q86.2 191.3 86.2 190.1L86.2 190.1Q86.2 188.9 85.8 187.9Q85.4 186.8 84.6 186.2Q83.8 185.6 82.6 185.6L82.6 185.6Q81.4 185.6 80.7 186.2Q79.9 186.8 79.5 187.8Q79.1 188.9 79.1 190.1L79.1 190.1Q79.1 191.3 79.5 192.3Q79.9 193.3 80.7 193.9Q81.4 194.5 82.6 194.5ZM92.9 196L90.9 196L90.9 184.0L92.8 184.0L92.8 185.8L92.9 185.8Q93.3 184.9 94.1 184.4Q95.0 183.8 96.1 183.8L96.1 183.8Q96.3 183.8 96.6 183.8Q96.9 183.8 97.0 183.9L97.0 183.9L97.0 185.8Q96.9 185.8 96.6 185.7Q96.3 185.7 95.9 185.7L95.9 185.7Q95.0 185.7 94.3 186.0Q93.6 186.4 93.3 187.0Q92.9 187.7 92.9 188.5L92.9 188.5L92.9 196ZM101.2 196L99.2 196L99.2 184.0L101.1 184.0L101.1 186.2Q101.3 185.5 101.7 185.1L101.7 185.1Q102.3 184.4 103.0 184.1Q103.7 183.8 104.5 183.8L104.5 183.8Q105.8 183.8 106.6 184.6L106.6 184.6Q107.3 185.2 107.5 186.2L107.5 186.2Q107.8 185.6 108.2 185.1L108.2 185.1Q108.7 184.5 109.5 184.1Q110.4 183.8 111.3 183.8L111.3 183.8Q112.4 183.8 113.2 184.2Q114.1 184.7 114.6 185.6Q115.1 186.5 115.1 187.9L115.1 187.9L115.1 196L113.2 196L113.2 188.0Q113.2 186.7 112.4 186.1Q111.7 185.5 110.7 185.5L110.7 185.5Q109.9 185.5 109.3 185.9Q108.8 186.2 108.4 186.8Q108.1 187.4 108.1 188.2L108.1 188.2L108.1 196L106.2 196L106.2 187.8Q106.2 186.8 105.5 186.1Q104.9 185.5 103.8 185.5L103.8 185.5Q103.1 185.5 102.5 185.9Q101.9 186.2 101.5 186.8Q101.2 187.5 101.2 188.4L101.2 188.4L101.2 196ZM121.9 196.3L121.9 196.3Q120.7 196.3 119.8 195.8Q118.9 195.4 118.3 194.6Q117.8 193.8 117.8 192.6L117.8 192.6Q117.8 191.6 118.2 190.9Q118.6 190.3 119.3 189.9Q119.9 189.5 120.8 189.3Q121.6 189.2 122.4 189.0L122.4 189.0Q123.5 188.9 124.2 188.8Q124.9 188.8 125.2 188.6Q125.5 188.4 125.5 188.0L125.5 188.0L125.5 187.9Q125.5 187.1 125.2 186.6Q125.0 186.1 124.4 185.8Q123.8 185.5 123.0 185.5L123.0 185.5Q122.1 185.5 121.5 185.8Q120.9 186.1 120.5 186.5Q120.2 186.9 120.0 187.3L120.0 187.3L118.1 186.7Q118.6 185.6 119.4 185.0Q120.1 184.4 121.1 184.1Q122.0 183.8 122.9 183.8L122.9 183.8Q123.6 183.8 124.3 184.0Q125.1 184.1 125.8 184.6Q126.5 185.0 127.0 185.8Q127.5 186.7 127.5 188.1L127.5 188.1L127.5 196L125.5 196L125.5 194.4L125.4 194.4Q125.2 194.8 124.8 195.2Q124.3 195.7 123.6 196.0Q122.9 196.3 121.9 196.3ZM122.2 194.6L122.2 194.6Q123.3 194.6 124.0 194.2Q124.7 193.7 125.1 193.1Q125.5 192.4 125.5 191.7L125.5 191.7L125.5 190.0Q125.4 190.1 125.0 190.2Q124.6 190.4 124.1 190.4Q123.6 190.5 123.1 190.6Q122.6 190.7 122.3 190.7L122.3 190.7Q121.6 190.8 121.0 191.0Q120.4 191.2 120.1 191.6Q119.7 192.0 119.7 192.7L119.7 192.7Q119.7 193.3 120.0 193.7Q120.3 194.1 120.9 194.4Q121.5 194.6 122.2 194.6ZM133.1 184.0L135.6 184.0L135.6 185.6L133.1 185.6L133.1 192.9Q133.1 193.7 133.4 194.1Q133.8 194.4 134.5 194.4L134.5 194.4Q134.7 194.4 135.0 194.4Q135.3 194.3 135.5 194.3L135.5 194.3L135.9 195.9Q135.6 196.0 135.2 196.1Q134.8 196.2 134.5 196.2L134.5 196.2Q132.9 196.2 132.0 195.3Q131.2 194.5 131.2 193.0L131.2 193.0L131.2 185.6L129.4 185.6L129.4 184.0L131.2 184.0L131.2 181.1L133.1 181.1L133.1 184.0ZM140.0 196L138.0 196L138.0 184.0L140.0 184.0L140.0 196ZM139.0 182.0L139.0 182.0Q138.5 182.0 138.1 181.6Q137.7 181.3 137.7 180.7L137.7 180.7Q137.7 180.2 138.1 179.8Q138.5 179.5 139.0 179.5L139.0 179.5Q139.6 179.5 140.0 179.8Q140.4 180.2 140.4 180.7L140.4 180.7Q140.4 181.3 140.0 181.6Q139.6 182.0 139.0 182.0ZM148.3 196.3L148.3 196.3Q146.6 196.3 145.4 195.5Q144.2 194.7 143.5 193.3Q142.8 191.9 142.8 190.1L142.8 190.1Q142.8 188.2 143.5 186.8Q144.2 185.4 145.4 184.6Q146.6 183.8 148.3 183.8L148.3 183.8Q149.9 183.8 151.1 184.6Q152.4 185.4 153.1 186.8Q153.7 188.2 153.7 190.1L153.7 190.1Q153.7 191.9 153.1 193.3Q152.4 194.7 151.1 195.5Q149.9 196.3 148.3 196.3ZM148.3 194.5L148.3 194.5Q149.5 194.5 150.3 193.9Q151.0 193.3 151.4 192.3Q151.8 191.3 151.8 190.1L151.8 190.1Q151.8 188.9 151.4 187.9Q151.0 186.8 150.3 186.2Q149.5 185.6 148.3 185.6L148.3 185.6Q147.1 185.6 146.3 186.2Q145.5 186.8 145.1 187.8Q144.8 188.9 144.8 190.1L144.8 190.1Q144.8 191.3 145.1 192.3Q145.5 193.3 146.3 193.9Q147.1 194.5 148.3 194.5ZM158.5 188.8L158.5 188.8L158.5 196L156.6 196L156.6 184.0L158.4 184.0L158.4 186.2Q158.9 185.1 159.7 184.5L159.7 184.5Q160.7 183.8 162.1 183.8L162.1 183.8Q163.3 183.8 164.2 184.3Q165.1 184.8 165.7 185.8Q166.2 186.8 166.2 188.4L166.2 188.4L166.2 196L164.2 196L164.2 188.5Q164.2 187.1 163.5 186.4Q162.8 185.6 161.5 185.6L161.5 185.6Q160.7 185.6 160.0 186.0Q159.3 186.3 158.9 187.1Q158.5 187.8 158.5 188.8Z M181.1 196.3L181.1 196.3Q179.3 196.3 178.1 195.7Q176.8 195.2 176.1 194.2Q175.3 193.2 175.2 191.8L175.2 191.8L177.3 191.8Q177.4 192.7 178.0 193.3Q178.5 193.9 179.3 194.2Q180.1 194.5 181.1 194.5L181.1 194.5Q182.1 194.5 183.0 194.1Q183.9 193.7 184.4 193.1Q184.9 192.5 184.9 191.6L184.9 191.6Q184.9 190.8 184.4 190.3Q184.0 189.9 183.3 189.6Q182.6 189.2 181.7 189.0L181.7 189.0L179.8 188.5Q177.8 187.9 176.8 186.9Q175.7 185.9 175.7 184.3L175.7 184.3Q175.7 182.9 176.4 181.9Q177.2 180.9 178.4 180.3Q179.7 179.8 181.2 179.8L181.2 179.8Q182.8 179.8 184.0 180.3Q185.2 180.9 185.9 181.9Q186.6 182.8 186.7 184.0L186.7 184.0L184.7 184.0Q184.5 182.9 183.5 182.2Q182.6 181.6 181.1 181.6L181.1 181.6Q180.1 181.6 179.3 181.9Q178.5 182.3 178.1 182.8Q177.7 183.4 177.7 184.2L177.7 184.2Q177.7 185.0 178.2 185.5Q178.7 186.0 179.4 186.3Q180.2 186.6 180.7 186.8L180.7 186.8L182.3 187.2Q183.0 187.4 183.8 187.7Q184.5 188.0 185.2 188.5Q186.0 189.0 186.4 189.8Q186.9 190.5 186.9 191.6L186.9 191.6Q186.9 192.9 186.2 194.0Q185.5 195.1 184.2 195.7Q182.9 196.3 181.1 196.3ZM189.6 200.4L189.6 200.4L190.1 198.7L190.3 198.7Q190.9 198.9 191.4 198.8Q191.9 198.7 192.3 198.3Q192.6 197.9 192.9 197.1L192.9 197.1L193.3 196.1L188.7 184.0L190.8 184.0L193.4 191.1Q193.8 192.2 194.1 193.3L194.1 193.3Q194.2 193.8 194.3 194.2L194.3 194.2Q194.4 193.8 194.5 193.3L194.5 193.3Q194.8 192.2 195.2 191.1L195.2 191.1L197.8 184.0L199.9 184.0L194.6 197.8Q194.3 198.8 193.7 199.4Q193.2 200.0 192.6 200.3Q191.9 200.6 191.0 200.6L191.0 200.6Q190.5 200.6 190.1 200.5Q189.8 200.4 189.6 200.4ZM206.3 196.3L206.3 196.3Q205.0 196.3 204.1 195.9Q203.1 195.5 202.5 194.8Q201.9 194.1 201.6 193.1L201.6 193.1L203.5 192.6Q203.7 193.6 204.4 194.1Q205.2 194.6 206.2 194.6L206.2 194.6Q207.5 194.6 208.2 194.0Q209.0 193.5 209.0 192.7L209.0 192.7Q209.0 192.1 208.6 191.7Q208.1 191.3 207.2 191.1L207.2 191.1L205.2 190.6Q203.6 190.2 202.8 189.4Q202.0 188.6 202.0 187.3L202.0 187.3Q202.0 186.3 202.6 185.5Q203.2 184.7 204.2 184.3Q205.2 183.8 206.5 183.8L206.5 183.8Q207.7 183.8 208.6 184.2Q209.4 184.6 210.0 185.2Q210.5 185.9 210.8 186.7L210.8 186.7L209.0 187.2Q208.8 186.5 208.2 186.0Q207.6 185.5 206.5 185.5L206.5 185.5Q205.4 185.5 204.7 186.0Q204.0 186.5 204.0 187.2L204.0 187.2Q204.0 187.9 204.4 188.3Q204.9 188.7 206.0 188.9L206.0 188.9L207.8 189.4Q209.4 189.8 210.2 190.6Q211.0 191.4 211.0 192.6L211.0 192.6Q211.0 193.7 210.4 194.5Q209.8 195.3 208.7 195.8Q207.7 196.3 206.3 196.3ZM216.0 184.0L218.5 184.0L218.5 185.6L216.0 185.6L216.0 192.9Q216.0 193.7 216.4 194.1Q216.7 194.4 217.5 194.4L217.5 194.4Q217.6 194.4 217.9 194.4Q218.2 194.3 218.5 194.3L218.5 194.3L218.8 195.9Q218.5 196.0 218.2 196.1Q217.8 196.2 217.4 196.2L217.4 196.2Q215.9 196.2 215.0 195.3Q214.1 194.5 214.1 193.0L214.1 193.0L214.1 185.6L212.3 185.6L212.3 184.0L214.1 184.0L214.1 181.1L216.0 181.1L216.0 184.0ZM226.0 196.3L226.0 196.3Q224.3 196.3 223.0 195.5Q221.8 194.7 221.1 193.3Q220.4 191.9 220.4 190.1Q220.4 188.2 221.1 186.8Q221.7 185.4 223.0 184.6Q224.2 183.8 225.8 183.8L225.8 183.8Q226.8 183.8 227.7 184.2Q228.6 184.5 229.4 185.2Q230.1 185.9 230.6 187.0Q231.0 188.2 231.0 189.8L231.0 189.8L231.0 190.7L222.4 190.7Q222.4 191.8 222.8 192.6L222.8 192.6Q223.3 193.6 224.1 194.1Q225.0 194.5 226.0 194.5L226.0 194.5Q226.8 194.5 227.3 194.3Q227.9 194.1 228.3 193.7Q228.8 193.3 229.0 192.7L229.0 192.7L230.8 193.2Q230.6 194.1 229.9 194.8Q229.2 195.5 228.3 195.9Q227.3 196.3 226.0 196.3ZM222.4 189.0L222.4 189.0L229.1 189.0Q229 188.2 228.7 187.5L228.7 187.5Q228.4 186.6 227.6 186.1Q226.9 185.6 225.8 185.6Q224.7 185.6 224.0 186.1Q223.2 186.6 222.8 187.5L222.8 187.5Q222.4 188.2 222.4 189.0ZM235.7 196L233.8 196L233.8 184.0L235.7 184.0L235.7 186.2Q235.9 185.5 236.3 185.1L236.3 185.1Q236.9 184.4 237.6 184.1Q238.3 183.8 239.1 183.8L239.1 183.8Q240.4 183.8 241.2 184.6L241.2 184.6Q241.8 185.2 242.1 186.2L242.1 186.2Q242.4 185.6 242.8 185.1L242.8 185.1Q243.3 184.5 244.1 184.1Q245.0 183.8 245.9 183.8L245.9 183.8Q247.0 183.8 247.8 184.2Q248.7 184.7 249.2 185.6Q249.7 186.5 249.7 187.9L249.7 187.9L249.7 196L247.8 196L247.8 188.0Q247.8 186.7 247.0 186.1Q246.3 185.5 245.3 185.5L245.3 185.5Q244.5 185.5 243.9 185.9Q243.4 186.2 243.0 186.8Q242.7 187.4 242.7 188.2L242.7 188.2L242.7 196L240.8 196L240.8 187.8Q240.8 186.8 240.1 186.1Q239.5 185.5 238.4 185.5L238.4 185.5Q237.7 185.5 237.1 185.9Q236.5 186.2 236.1 186.8Q235.7 187.5 235.7 188.4L235.7 188.4L235.7 196ZM257.2 196.3L257.2 196.3Q255.9 196.3 255.0 195.9Q254.0 195.5 253.4 194.8Q252.8 194.1 252.5 193.1L252.5 193.1L254.4 192.6Q254.6 193.6 255.4 194.1Q256.1 194.6 257.1 194.6L257.1 194.6Q258.4 194.6 259.1 194.0Q259.9 193.5 259.9 192.7L259.9 192.7Q259.9 192.1 259.5 191.7Q259.0 191.3 258.1 191.1L258.1 191.1L256.1 190.6Q254.5 190.2 253.7 189.4Q252.9 188.6 252.9 187.3L252.9 187.3Q252.9 186.3 253.5 185.5Q254.1 184.7 255.1 184.3Q256.1 183.8 257.4 183.8L257.4 183.8Q258.6 183.8 259.5 184.2Q260.3 184.6 260.9 185.2Q261.4 185.9 261.7 186.7L261.7 186.7L259.9 187.2Q259.7 186.5 259.1 186.0Q258.5 185.5 257.4 185.5L257.4 185.5Q256.3 185.5 255.6 186.0Q254.9 186.5 254.9 187.2L254.9 187.2Q254.9 187.9 255.4 188.3Q255.8 188.7 256.9 188.9L256.9 188.9L258.7 189.4Q260.3 189.8 261.1 190.6Q261.9 191.4 261.9 192.6L261.9 192.6Q261.9 193.7 261.3 194.5Q260.7 195.3 259.6 195.8Q258.6 196.3 257.2 196.3Z M276.1 196.3L276.1 196.3Q274.3 196.3 273.1 195.7Q271.8 195.2 271.1 194.2Q270.3 193.2 270.2 191.8L270.2 191.8L272.3 191.8Q272.4 192.7 273.0 193.3Q273.5 193.9 274.3 194.2Q275.1 194.5 276.1 194.5L276.1 194.5Q277.1 194.5 278.0 194.1Q278.9 193.7 279.4 193.1Q279.9 192.5 279.9 191.6L279.9 191.6Q279.9 190.8 279.4 190.3Q279.0 189.9 278.3 189.6Q277.6 189.2 276.7 189.0L276.7 189.0L274.8 188.5Q272.8 187.9 271.8 186.9Q270.7 185.9 270.7 184.3L270.7 184.3Q270.7 182.9 271.4 181.9Q272.2 180.9 273.4 180.3Q274.7 179.8 276.2 179.8L276.2 179.8Q277.8 179.8 279.0 180.3Q280.2 180.9 280.9 181.9Q281.6 182.8 281.7 184.0L281.7 184.0L279.7 184.0Q279.5 182.9 278.5 182.2Q277.6 181.6 276.1 181.6L276.1 181.6Q275.1 181.6 274.3 181.9Q273.5 182.3 273.1 182.8Q272.7 183.4 272.7 184.2L272.7 184.2Q272.7 185.0 273.2 185.5Q273.7 186.0 274.4 186.3Q275.2 186.6 275.7 186.8L275.7 186.8L277.3 187.2Q278.0 187.4 278.8 187.7Q279.5 188.0 280.2 188.5Q281.0 189.0 281.4 189.8Q281.9 190.5 281.9 191.6L281.9 191.6Q281.9 192.9 281.2 194.0Q280.5 195.1 279.2 195.7Q277.9 196.3 276.1 196.3ZM287.1 184.0L289.5 184.0L289.5 185.6L287.1 185.6L287.1 192.9Q287.1 193.7 287.4 194.1Q287.7 194.4 288.5 194.4L288.5 194.4Q288.7 194.4 289.0 194.4Q289.2 194.3 289.5 194.3L289.5 194.3L289.9 195.9Q289.6 196.0 289.2 196.1Q288.8 196.2 288.4 196.2L288.4 196.2Q286.9 196.2 286.0 195.3Q285.1 194.5 285.1 193.0L285.1 193.0L285.1 185.6L283.3 185.6L283.3 184.0L285.1 184.0L285.1 181.1L287.1 181.1L287.1 184.0ZM296.1 196.2L296.1 196.2Q294.9 196.2 293.9 195.7Q293.0 195.2 292.5 194.1Q292.0 193.1 292.0 191.6L292.0 191.6L292.0 184.0L293.9 184.0L293.9 191.5Q293.9 192.8 294.7 193.6Q295.4 194.4 296.7 194.4L296.7 194.4Q297.5 194.4 298.2 194.0Q298.9 193.7 299.3 192.9Q299.7 192.2 299.7 191.2L299.7 191.2L299.7 184.0L301.6 184.0L301.6 196L299.8 196L299.8 193.8Q299.2 194.9 298.4 195.5L298.4 195.5Q297.4 196.2 296.1 196.2ZM309.5 196.3L309.5 196.3Q308.0 196.3 306.9 195.5Q305.7 194.7 305.1 193.3Q304.4 191.9 304.4 190.0L304.4 190.0Q304.4 188.1 305.1 186.7Q305.7 185.3 306.9 184.6Q308.0 183.8 309.5 183.8L309.5 183.8Q310.7 183.8 311.4 184.2Q312.1 184.6 312.4 185.1Q312.8 185.6 313.0 185.9L313.0 185.9L313.2 185.9L313.2 180.0L315.1 180.0L315.1 196L313.2 196L313.2 194.1L313.0 194.1Q312.8 194.5 312.4 195.0Q312.1 195.5 311.4 195.9Q310.7 196.3 309.5 196.3ZM309.8 194.5L309.8 194.5Q310.9 194.5 311.7 194.0Q312.4 193.4 312.8 192.4Q313.2 191.3 313.2 190.0L313.2 190.0Q313.2 188.7 312.8 187.7Q312.4 186.7 311.7 186.1Q310.9 185.6 309.8 185.6L309.8 185.6Q308.7 185.6 307.9 186.2Q307.2 186.8 306.8 187.8Q306.4 188.8 306.4 190.0L306.4 190.0Q306.4 191.3 306.8 192.3Q307.2 193.3 307.9 193.9Q308.7 194.5 309.8 194.5ZM323.5 196.3L323.5 196.3Q321.8 196.3 320.5 195.5Q319.3 194.7 318.6 193.3Q317.9 191.9 317.9 190.1Q317.9 188.2 318.6 186.8Q319.2 185.4 320.5 184.6Q321.7 183.8 323.3 183.8L323.3 183.8Q324.3 183.8 325.2 184.2Q326.1 184.5 326.9 185.2Q327.6 185.9 328.1 187.0Q328.5 188.2 328.5 189.8L328.5 189.8L328.5 190.7L319.9 190.7Q319.9 191.8 320.3 192.6L320.3 192.6Q320.8 193.6 321.6 194.1Q322.5 194.5 323.5 194.5L323.5 194.5Q324.3 194.5 324.8 194.3Q325.4 194.1 325.8 193.7Q326.3 193.3 326.5 192.7L326.5 192.7L328.4 193.2Q328.1 194.1 327.4 194.8Q326.7 195.5 325.8 195.9Q324.8 196.3 323.5 196.3ZM319.9 189.0L319.9 189.0L326.6 189.0Q326.5 188.2 326.2 187.5L326.2 187.5Q325.9 186.6 325.1 186.1Q324.4 185.6 323.3 185.6Q322.2 185.6 321.5 186.1Q320.7 186.6 320.3 187.5L320.3 187.5Q319.9 188.2 319.9 189.0ZM333.2 188.8L333.2 188.8L333.2 196L331.3 196L331.3 184.0L333.2 184.0L333.2 186.2Q333.7 185.1 334.5 184.5L334.5 184.5Q335.5 183.8 336.9 183.8L336.9 183.8Q338.1 183.8 339.0 184.3Q339.9 184.8 340.4 185.8Q340.9 186.8 340.9 188.4L340.9 188.4L340.9 196L339.0 196L339.0 188.5Q339.0 187.1 338.3 186.4Q337.5 185.6 336.3 185.6L336.3 185.6Q335.4 185.6 334.7 186.0Q334.0 186.3 333.6 187.1Q333.2 187.8 333.2 188.8ZM346.6 184.0L349.0 184.0L349.0 185.6L346.6 185.6L346.6 192.9Q346.6 193.7 346.9 194.1Q347.2 194.4 348.0 194.4L348.0 194.4Q348.2 194.4 348.5 194.4Q348.7 194.3 349.0 194.3L349.0 194.3L349.4 195.9Q349.1 196.0 348.7 196.1Q348.3 196.2 347.9 196.2L347.9 196.2Q346.4 196.2 345.5 195.3Q344.6 194.5 344.6 193.0L344.6 193.0L344.6 185.6L342.8 185.6L342.8 184.0L344.6 184.0L344.6 181.1L346.6 181.1L346.6 184.0Z M359.2 189.8L359.2 189.8Q358.6 189.8 358.1 189.4Q357.7 189.0 357.7 188.4L357.7 188.4Q357.7 187.8 358.1 187.4Q358.6 186.9 359.2 186.9L359.2 186.9Q359.8 186.9 360.2 187.4Q360.6 187.8 360.6 188.4L360.6 188.4Q360.6 189.0 360.2 189.4Q359.8 189.8 359.2 189.8Z M375.9 196L375.9 196L370.9 196L370.9 180.0L376.1 180.0Q378.5 180.0 380.1 181.0Q381.8 181.9 382.7 183.7Q383.6 185.5 383.6 188.0L383.6 188.0Q383.6 190.5 382.7 192.3Q381.8 194.1 380.1 195.0Q378.4 196 375.9 196ZM373.0 181.8L373.0 194.2L375.8 194.2Q377.8 194.2 379.0 193.4Q380.3 192.7 381.0 191.3Q381.6 189.9 381.6 188.0L381.6 188.0Q381.6 186.0 381.0 184.7Q380.3 183.3 379.1 182.5Q377.9 181.8 376.0 181.8L376.0 181.8L373.0 181.8ZM389.9 196.3L389.9 196.3Q388.8 196.3 387.9 195.8Q386.9 195.4 386.4 194.6Q385.8 193.8 385.8 192.6L385.8 192.6Q385.8 191.6 386.3 190.9Q386.7 190.3 387.3 189.9Q388.0 189.5 388.9 189.3Q389.7 189.2 390.5 189.0L390.5 189.0Q391.6 188.9 392.3 188.8Q392.9 188.8 393.3 188.6Q393.6 188.4 393.6 188.0L393.6 188.0L393.6 187.9Q393.6 187.1 393.3 186.6Q393.0 186.1 392.5 185.8Q391.9 185.5 391.1 185.5L391.1 185.5Q390.2 185.5 389.6 185.8Q389.0 186.1 388.6 186.5Q388.2 186.9 388.0 187.3L388.0 187.3L386.2 186.7Q386.6 185.6 387.4 185.0Q388.2 184.4 389.2 184.1Q390.1 183.8 391.0 183.8L391.0 183.8Q391.6 183.8 392.4 184.0Q393.2 184.1 393.9 184.6Q394.6 185.0 395.1 185.8Q395.5 186.7 395.5 188.1L395.5 188.1L395.5 196L393.6 196L393.6 194.4L393.5 194.4Q393.3 194.8 392.8 195.2Q392.4 195.7 391.7 196.0Q391.0 196.3 389.9 196.3ZM390.3 194.6L390.3 194.6Q391.3 194.6 392.1 194.2Q392.8 193.7 393.2 193.1Q393.6 192.4 393.6 191.7L393.6 191.7L393.6 190.0Q393.5 190.1 393.1 190.2Q392.7 190.4 392.2 190.4Q391.7 190.5 391.2 190.6Q390.7 190.7 390.4 190.7L390.4 190.7Q389.7 190.8 389.1 191.0Q388.5 191.2 388.2 191.6Q387.8 192.0 387.8 192.7L387.8 192.7Q387.8 193.3 388.1 193.7Q388.4 194.1 389.0 194.4Q389.5 194.6 390.3 194.6ZM401.2 184.0L403.7 184.0L403.7 185.6L401.2 185.6L401.2 192.9Q401.2 193.7 401.5 194.1Q401.8 194.4 402.6 194.4L402.6 194.4Q402.8 194.4 403.1 194.4Q403.4 194.3 403.6 194.3L403.6 194.3L404.0 195.9Q403.7 196.0 403.3 196.1Q402.9 196.2 402.5 196.2L402.5 196.2Q401.0 196.2 400.1 195.3Q399.3 194.5 399.3 193.0L399.3 193.0L399.3 185.6L397.4 185.6L397.4 184.0L399.3 184.0L399.3 181.1L401.2 181.1L401.2 184.0ZM409.5 196.3L409.5 196.3Q408.3 196.3 407.4 195.8Q406.5 195.4 405.9 194.6Q405.4 193.8 405.4 192.6L405.4 192.6Q405.4 191.6 405.8 190.9Q406.2 190.3 406.9 189.9Q407.6 189.5 408.4 189.3Q409.2 189.2 410.1 189.0L410.1 189.0Q411.1 188.9 411.8 188.8Q412.5 188.8 412.8 188.6Q413.2 188.4 413.2 188.0L413.2 188.0L413.2 187.9Q413.2 187.1 412.9 186.6Q412.6 186.1 412.0 185.8Q411.5 185.5 410.6 185.5L410.6 185.5Q409.8 185.5 409.2 185.8Q408.6 186.1 408.2 186.5Q407.8 186.9 407.6 187.3L407.6 187.3L405.7 186.7Q406.2 185.6 407.0 185.0Q407.8 184.4 408.7 184.1Q409.7 183.8 410.6 183.8L410.6 183.8Q411.2 183.8 412.0 184.0Q412.7 184.1 413.4 184.6Q414.1 185.0 414.6 185.8Q415.1 186.7 415.1 188.1L415.1 188.1L415.1 196L413.2 196L413.2 194.4L413.1 194.4Q412.8 194.8 412.4 195.2Q411.9 195.7 411.2 196.0Q410.5 196.3 409.5 196.3ZM409.8 194.6L409.8 194.6Q410.9 194.6 411.6 194.2Q412.4 193.7 412.8 193.1Q413.2 192.4 413.2 191.7L413.2 191.7L413.2 190.0Q413.0 190.1 412.6 190.2Q412.2 190.4 411.7 190.4Q411.2 190.5 410.7 190.6Q410.3 190.7 410.0 190.7L410.0 190.7Q409.3 190.8 408.7 191.0Q408.1 191.2 407.7 191.6Q407.3 192.0 407.3 192.7L407.3 192.7Q407.3 193.3 407.7 193.7Q408.0 194.1 408.5 194.4Q409.1 194.6 409.8 194.6Z M425.7 196L423.6 196L429.4 180.0L431.7 180.0L437.6 196L435.5 196L433.9 191.5L427.3 191.5L425.7 196ZM427.9 189.7L433.2 189.7L432.1 186.5Q431.8 185.6 431.4 184.3L431.4 184.3Q431.0 183.2 430.5 181.6L430.5 181.6Q430.1 183.2 429.7 184.3L429.7 184.3Q429.3 185.7 429.0 186.5L429.0 186.5L427.9 189.7ZM441.8 188.8L441.8 188.8L441.8 196L439.9 196L439.9 184.0L441.7 184.0L441.7 186.2Q442.3 185.1 443.0 184.5L443.0 184.5Q444.1 183.8 445.4 183.8L445.4 183.8Q446.6 183.8 447.5 184.3Q448.5 184.8 449.0 185.8Q449.5 186.8 449.5 188.4L449.5 188.4L449.5 196L447.5 196L447.5 188.5Q447.5 187.1 446.8 186.4Q446.1 185.6 444.8 185.6L444.8 185.6Q444.0 185.6 443.3 186.0Q442.6 186.3 442.2 187.1Q441.8 187.8 441.8 188.8ZM456.2 196.3L456.2 196.3Q455.1 196.3 454.2 195.8Q453.2 195.4 452.7 194.6Q452.1 193.8 452.1 192.6L452.1 192.6Q452.1 191.6 452.6 190.9Q453.0 190.3 453.6 189.9Q454.3 189.5 455.2 189.3Q456.0 189.2 456.8 189.0L456.8 189.0Q457.9 188.9 458.6 188.8Q459.2 188.8 459.6 188.6Q459.9 188.4 459.9 188.0L459.9 188.0L459.9 187.9Q459.9 187.1 459.6 186.6Q459.3 186.1 458.8 185.8Q458.2 185.5 457.4 185.5L457.4 185.5Q456.5 185.5 455.9 185.8Q455.3 186.1 454.9 186.5Q454.5 186.9 454.3 187.3L454.3 187.3L452.5 186.7Q452.9 185.6 453.7 185.0Q454.5 184.4 455.5 184.1Q456.4 183.8 457.3 183.8L457.3 183.8Q457.9 183.8 458.7 184.0Q459.5 184.1 460.2 184.6Q460.9 185.0 461.4 185.8Q461.8 186.7 461.8 188.1L461.8 188.1L461.8 196L459.9 196L459.9 194.4L459.8 194.4Q459.6 194.8 459.1 195.2Q458.7 195.7 458.0 196.0Q457.3 196.3 456.2 196.3ZM456.6 194.6L456.6 194.6Q457.6 194.6 458.4 194.2Q459.1 193.7 459.5 193.1Q459.9 192.4 459.9 191.7L459.9 191.7L459.9 190.0Q459.8 190.1 459.4 190.2Q459.0 190.4 458.5 190.4Q458.0 190.5 457.5 190.6Q457.0 190.7 456.7 190.7L456.7 190.7Q456.0 190.8 455.4 191.0Q454.8 191.2 454.5 191.6Q454.1 192.0 454.1 192.7L454.1 192.7Q454.1 193.3 454.4 193.7Q454.7 194.1 455.3 194.4Q455.8 194.6 456.6 194.6ZM465.2 180.0L467.2 180.0L467.2 196L465.2 196L465.2 180.0ZM470.4 200.4L470.4 200.4L470.9 198.7L471.1 198.7Q471.7 198.9 472.1 198.8Q472.6 198.7 473.0 198.3Q473.4 197.9 473.7 197.1L473.7 197.1L474.0 196.1L469.4 184.0L471.6 184.0L474.1 191.1Q474.5 192.2 474.8 193.3L474.8 193.3Q474.9 193.8 475.0 194.2L475.0 194.2Q475.2 193.8 475.3 193.3L475.3 193.3Q475.6 192.2 476.0 191.1L476.0 191.1L478.5 184.0L480.6 184.0L475.4 197.8Q475.0 198.8 474.5 199.4Q474.0 200.0 473.3 200.3Q472.6 200.6 471.8 200.6L471.8 200.6Q471.3 200.6 470.9 200.5Q470.5 200.4 470.4 200.4ZM485.2 184.0L487.6 184.0L487.6 185.6L485.2 185.6L485.2 192.9Q485.2 193.7 485.5 194.1Q485.8 194.4 486.6 194.4L486.6 194.4Q486.8 194.4 487.1 194.4Q487.3 194.3 487.6 194.3L487.6 194.3L488.0 195.9Q487.7 196.0 487.3 196.1Q486.9 196.2 486.5 196.2L486.5 196.2Q485.0 196.2 484.1 195.3Q483.2 194.5 483.2 193.0L483.2 193.0L483.2 185.6L481.4 185.6L481.4 184.0L483.2 184.0L483.2 181.1L485.2 181.1L485.2 184.0ZM492.1 196L490.1 196L490.1 184.0L492.1 184.0L492.1 196ZM491.1 182.0L491.1 182.0Q490.5 182.0 490.1 181.6Q489.8 181.3 489.8 180.7L489.8 180.7Q489.8 180.2 490.1 179.8Q490.5 179.5 491.1 179.5L491.1 179.5Q491.7 179.5 492.1 179.8Q492.4 180.2 492.4 180.7L492.4 180.7Q492.4 181.3 492.1 181.6Q491.7 182.0 491.1 182.0ZM500.3 196.3L500.3 196.3Q498.7 196.3 497.5 195.5Q496.2 194.7 495.6 193.3Q494.9 191.9 494.9 190.1L494.9 190.1Q494.9 188.2 495.6 186.8Q496.2 185.4 497.5 184.6Q498.7 183.8 500.3 183.8L500.3 183.8Q501.2 183.8 502.0 184.1Q502.8 184.3 503.4 184.7Q504.0 185.1 504.5 185.8Q505.0 186.4 505.2 187.2L505.2 187.2L503.3 187.7Q503.2 187.2 502.9 186.8Q502.7 186.5 502.3 186.2Q501.9 185.9 501.4 185.7Q500.9 185.6 500.3 185.6L500.3 185.6Q499.1 185.6 498.4 186.2Q497.6 186.8 497.2 187.8Q496.8 188.9 496.8 190.1L496.8 190.1Q496.8 191.3 497.2 192.3Q497.6 193.3 498.4 193.9Q499.1 194.5 500.3 194.5L500.3 194.5Q500.9 194.5 501.4 194.4Q501.9 194.2 502.3 193.9Q502.7 193.6 503.0 193.2Q503.3 192.8 503.4 192.3L503.4 192.3L505.2 192.8Q505.0 193.6 504.5 194.3Q504.1 194.9 503.4 195.4Q502.8 195.8 502.0 196.0Q501.2 196.3 500.3 196.3ZM512.1 196.3L512.1 196.3Q510.9 196.3 509.9 195.9Q508.9 195.5 508.3 194.8Q507.7 194.1 507.5 193.1L507.5 193.1L509.3 192.6Q509.6 193.6 510.3 194.1Q511 194.6 512.1 194.6L512.1 194.6Q513.3 194.6 514.1 194.0Q514.8 193.5 514.8 192.7L514.8 192.7Q514.8 192.1 514.4 191.7Q514.0 191.3 513.1 191.1L513.1 191.1L511.1 190.6Q509.4 190.2 508.6 189.4Q507.8 188.6 507.8 187.3L507.8 187.3Q507.8 186.3 508.4 185.5Q509.0 184.7 510.0 184.3Q511.0 183.8 512.3 183.8L512.3 183.8Q513.5 183.8 514.4 184.2Q515.3 184.6 515.8 185.2Q516.3 185.9 516.6 186.7L516.6 186.7L514.9 187.2Q514.6 186.5 514.0 186.0Q513.5 185.5 512.3 185.5L512.3 185.5Q511.2 185.5 510.5 186.0Q509.8 186.5 509.8 187.2L509.8 187.2Q509.8 187.9 510.3 188.3Q510.8 188.7 511.8 188.9L511.8 188.9L513.6 189.4Q515.3 189.8 516.0 190.6Q516.8 191.4 516.8 192.6L516.8 192.6Q516.8 193.7 516.2 194.5Q515.6 195.3 514.6 195.8Q513.5 196.3 512.1 196.3Z M530.2 196.2L530.2 196.2Q528.7 196.2 527.5 195.6Q526.4 195.0 525.7 194.1Q525.1 193.1 525.1 191.8L525.1 191.8Q525.1 190.8 525.5 190.0Q526.0 189.2 526.7 188.6L526.7 188.6Q527.4 188.0 528.3 187.3L528.3 187.3Q528.1 187.1 527.9 186.8L527.9 186.8Q527.2 186.0 526.8 185.2Q526.4 184.4 526.4 183.5L526.4 183.5Q526.4 182.4 526.9 181.6Q527.4 180.8 528.3 180.3Q529.2 179.8 530.3 179.8L530.3 179.8Q531.5 179.8 532.4 180.3Q533.3 180.8 533.8 181.6Q534.2 182.3 534.2 183.3L534.2 183.3Q534.2 184.0 534.0 184.6Q533.7 185.3 533.2 185.8Q532.7 186.3 532.1 186.8L532.1 186.8L530.9 187.6L534.4 191.8Q534.5 191.5 534.6 191.3L534.6 191.3Q535.0 190.2 535.0 188.9L535.0 188.9L536.9 188.9Q536.9 190.5 536.5 191.5Q536.1 192.6 535.7 193.2L535.7 193.2Q535.6 193.2 535.6 193.3L535.6 193.3L537.8 196L535.5 196L534.4 194.7Q533.6 195.4 532.6 195.8L532.6 195.8Q531.4 196.2 530.2 196.2ZM533.2 193.3L529.4 188.7L528.9 189.2Q527.9 189.9 527.5 190.5Q527.1 191.1 527.1 191.9L527.1 191.9Q527.1 192.7 527.5 193.3Q527.9 193.9 528.5 194.2Q529.2 194.5 530.1 194.5L530.1 194.5Q531.0 194.5 531.9 194.1L531.9 194.1Q532.6 193.8 533.2 193.3L533.2 193.3ZM529.8 186.2L529.8 186.2L530.8 185.5Q531.1 185.3 531.5 185.0Q531.8 184.7 532.0 184.2Q532.3 183.8 532.3 183.3L532.3 183.3Q532.3 182.5 531.8 182.0Q531.3 181.5 530.4 181.5L530.4 181.5Q529.8 181.5 529.3 181.8Q528.9 182.0 528.6 182.4Q528.4 182.9 528.4 183.5L528.4 183.5Q528.4 184.1 528.6 184.6Q528.9 185.2 529.4 185.7L529.4 185.7Q529.6 186.0 529.8 186.2Z M551.8 196L545.9 196L545.9 180.0L551.6 180.0Q553.3 180.0 554.4 180.6Q555.5 181.1 556.0 182.1Q556.5 183.1 556.5 184.2L556.5 184.2Q556.5 185.3 556.2 185.9Q555.8 186.6 555.2 187.0Q554.6 187.4 553.9 187.6L553.9 187.6L553.9 187.8Q554.7 187.8 555.4 188.3Q556.1 188.7 556.6 189.6Q557.1 190.5 557.1 191.7L557.1 191.7Q557.1 192.9 556.6 193.9Q556.0 194.9 554.9 195.4Q553.7 196 551.8 196L551.8 196ZM548.0 188.7L548.0 194.2L551.7 194.2Q553.6 194.2 554.4 193.5Q555.2 192.8 555.2 191.7L555.2 191.7Q555.2 190.9 554.8 190.2Q554.4 189.6 553.6 189.1Q552.9 188.7 551.8 188.7L551.8 188.7L548.0 188.7ZM548.0 181.8L548.0 187.0L551.5 187.0Q552.4 187.0 553.1 186.7Q553.8 186.3 554.2 185.7Q554.6 185.1 554.6 184.3L554.6 184.3Q554.6 183.2 553.8 182.5Q553.1 181.8 551.6 181.8L551.6 181.8L548.0 181.8ZM560.3 180.0L562.4 180.0L562.4 196L560.3 196L560.3 180.0Z M582.8 196L572.9 196L572.9 180.0L582.7 180.0L582.7 181.8L575.0 181.8L575.0 187.0L582.2 187.0L582.2 188.8L575.0 188.8L575.0 194.2L582.8 194.2L582.8 196ZM587.9 188.8L587.9 188.8L587.9 196L585.9 196L585.9 184.0L587.8 184.0L587.8 186.2Q588.3 185.1 589.1 184.5L589.1 184.5Q590.1 183.8 591.5 183.8L591.5 183.8Q592.7 183.8 593.6 184.3Q594.5 184.8 595.0 185.8Q595.5 186.8 595.5 188.4L595.5 188.4L595.5 196L593.6 196L593.6 188.5Q593.6 187.1 592.9 186.4Q592.1 185.6 590.9 185.6L590.9 185.6Q590.0 185.6 589.3 186.0Q588.6 186.3 588.3 187.1Q587.9 187.8 587.9 188.8ZM601.2 184.0L603.6 184.0L603.6 185.6L601.2 185.6L601.2 192.9Q601.2 193.7 601.5 194.1Q601.8 194.4 602.6 194.4L602.6 194.4Q602.8 194.4 603.1 194.4Q603.3 194.3 603.6 194.3L603.6 194.3L604.0 195.9Q603.7 196.0 603.3 196.1Q602.9 196.2 602.5 196.2L602.5 196.2Q601.0 196.2 600.1 195.3Q599.2 194.5 599.2 193.0L599.2 193.0L599.2 185.6L597.4 185.6L597.4 184.0L599.2 184.0L599.2 181.1L601.2 181.1L601.2 184.0ZM608.0 188.8L608.0 188.8L608.0 196L606.1 196L606.1 180.0L608.0 180.0L608.0 186.1Q608.5 185.0 609.3 184.5L609.3 184.5Q610.3 183.8 611.7 183.8L611.7 183.8Q612.9 183.8 613.8 184.3Q614.7 184.8 615.2 185.8Q615.7 186.8 615.7 188.4L615.7 188.4L615.7 196L613.8 196L613.8 188.5Q613.8 187.1 613.1 186.4Q612.3 185.6 611.1 185.6L611.1 185.6Q610.2 185.6 609.5 186.0Q608.8 186.3 608.4 187.1Q608.0 187.8 608.0 188.8ZM623.2 196.2L623.2 196.2Q622.0 196.2 621.1 195.7Q620.1 195.2 619.6 194.1Q619.1 193.1 619.1 191.6L619.1 191.6L619.1 184.0L621.1 184.0L621.1 191.5Q621.1 192.8 621.8 193.6Q622.5 194.4 623.8 194.4L623.8 194.4Q624.6 194.4 625.3 194.0Q626 193.7 626.4 192.9Q626.8 192.2 626.8 191.2L626.8 191.2L626.8 184.0L628.7 184.0L628.7 196L626.9 196L626.9 193.8Q626.4 194.9 625.5 195.5L625.5 195.5Q624.5 196.2 623.2 196.2ZM636.2 196.3L636.2 196.3Q635.0 196.3 634.0 195.9Q633.1 195.5 632.4 194.8Q631.8 194.1 631.6 193.1L631.6 193.1L633.4 192.6Q633.7 193.6 634.4 194.1Q635.1 194.6 636.2 194.6L636.2 194.6Q637.5 194.6 638.2 194.0Q638.9 193.5 638.9 192.7L638.9 192.7Q638.9 192.1 638.5 191.7Q638.1 191.3 637.2 191.1L637.2 191.1L635.2 190.6Q633.6 190.2 632.8 189.4Q632.0 188.6 632.0 187.3L632.0 187.3Q632.0 186.3 632.5 185.5Q633.1 184.7 634.1 184.3Q635.1 183.8 636.4 183.8L636.4 183.8Q637.6 183.8 638.5 184.2Q639.4 184.6 639.9 185.2Q640.5 185.9 640.7 186.7L640.7 186.7L639.0 187.2Q638.7 186.5 638.2 186.0Q637.6 185.5 636.4 185.5L636.4 185.5Q635.3 185.5 634.6 186.0Q633.9 186.5 633.9 187.2L633.9 187.2Q633.9 187.9 634.4 188.3Q634.9 188.7 635.9 188.9L635.9 188.9L637.8 189.4Q639.4 189.8 640.2 190.6Q641.0 191.4 641.0 192.6L641.0 192.6Q641.0 193.7 640.4 194.5Q639.8 195.3 638.7 195.8Q637.6 196.3 636.2 196.3ZM645.7 196L643.7 196L643.7 184.0L645.7 184.0L645.7 196ZM644.7 182.0L644.7 182.0Q644.2 182.0 643.8 181.6Q643.4 181.3 643.4 180.7L643.4 180.7Q643.4 180.2 643.8 179.8Q644.2 179.5 644.7 179.5L644.7 179.5Q645.3 179.5 645.7 179.8Q646.1 180.2 646.1 180.7L646.1 180.7Q646.1 181.3 645.7 181.6Q645.3 182.0 644.7 182.0ZM652.4 196.3L652.4 196.3Q651.3 196.3 650.4 195.8Q649.4 195.4 648.9 194.6Q648.3 193.8 648.3 192.6L648.3 192.6Q648.3 191.6 648.8 190.9Q649.2 190.3 649.8 189.9Q650.5 189.5 651.4 189.3Q652.2 189.2 653.0 189.0L653.0 189.0Q654.1 188.9 654.8 188.8Q655.4 188.8 655.8 188.6Q656.1 188.4 656.1 188.0L656.1 188.0L656.1 187.9Q656.1 187.1 655.8 186.6Q655.5 186.1 655.0 185.8Q654.4 185.5 653.6 185.5L653.6 185.5Q652.7 185.5 652.1 185.8Q651.5 186.1 651.1 186.5Q650.7 186.9 650.5 187.3L650.5 187.3L648.7 186.7Q649.1 185.6 649.9 185.0Q650.7 184.4 651.7 184.1Q652.6 183.8 653.5 183.8L653.5 183.8Q654.1 183.8 654.9 184.0Q655.7 184.1 656.4 184.6Q657.1 185.0 657.6 185.8Q658.0 186.7 658.0 188.1L658.0 188.1L658.0 196L656.1 196L656.1 194.4L656.0 194.4Q655.8 194.8 655.3 195.2Q654.9 195.7 654.2 196.0Q653.5 196.3 652.4 196.3ZM652.8 194.6L652.8 194.6Q653.8 194.6 654.6 194.2Q655.3 193.7 655.7 193.1Q656.1 192.4 656.1 191.7L656.1 191.7L656.1 190.0Q656.0 190.1 655.6 190.2Q655.2 190.4 654.7 190.4Q654.2 190.5 653.7 190.6Q653.2 190.7 652.9 190.7L652.9 190.7Q652.2 190.8 651.6 191.0Q651.0 191.2 650.7 191.6Q650.3 192.0 650.3 192.7L650.3 192.7Q650.3 193.3 650.6 193.7Q650.9 194.1 651.5 194.4Q652.0 194.6 652.8 194.6ZM665.5 196.3L665.5 196.3Q664.3 196.3 663.3 195.9Q662.4 195.5 661.7 194.8Q661.1 194.1 660.9 193.1L660.9 193.1L662.7 192.6Q663.0 193.6 663.7 194.1Q664.4 194.6 665.5 194.6L665.5 194.6Q666.7 194.6 667.5 194.0Q668.2 193.5 668.2 192.7L668.2 192.7Q668.2 192.1 667.8 191.7Q667.4 191.3 666.5 191.1L666.5 191.1L664.5 190.6Q662.8 190.2 662.1 189.4Q661.3 188.6 661.3 187.3L661.3 187.3Q661.3 186.3 661.8 185.5Q662.4 184.7 663.4 184.3Q664.4 183.8 665.7 183.8L665.7 183.8Q666.9 183.8 667.8 184.2Q668.7 184.6 669.2 185.2Q669.8 185.9 670.0 186.7L670.0 186.7L668.3 187.2Q668.0 186.5 667.4 186.0Q666.9 185.5 665.7 185.5L665.7 185.5Q664.6 185.5 663.9 186.0Q663.2 186.5 663.2 187.2L663.2 187.2Q663.2 187.9 663.7 188.3Q664.2 188.7 665.2 188.9L665.2 188.9L667.0 189.4Q668.7 189.8 669.5 190.6Q670.2 191.4 670.2 192.6L670.2 192.6Q670.2 193.7 669.7 194.5Q669.1 195.3 668.0 195.8Q666.9 196.3 665.5 196.3ZM675.3 184.0L677.8 184.0L677.8 185.6L675.3 185.6L675.3 192.9Q675.3 193.7 675.6 194.1Q676.0 194.4 676.7 194.4L676.7 194.4Q676.9 194.4 677.2 194.4Q677.5 194.3 677.7 194.3L677.7 194.3L678.1 195.9Q677.8 196.0 677.4 196.1Q677.0 196.2 676.7 196.2L676.7 196.2Q675.1 196.2 674.2 195.3Q673.4 194.5 673.4 193.0L673.4 193.0L673.4 185.6L671.6 185.6L671.6 184.0L673.4 184.0L673.4 181.1L675.3 181.1L675.3 184.0Z M687.2 189.8L687.2 189.8Q686.6 189.8 686.1 189.4Q685.7 189.0 685.7 188.4L685.7 188.4Q685.7 187.8 686.1 187.4Q686.6 186.9 687.2 186.9L687.2 186.9Q687.8 186.9 688.2 187.4Q688.6 187.8 688.6 188.4L688.6 188.4Q688.6 189.0 688.2 189.4Q687.8 189.8 687.2 189.8Z M699.7 196L697.6 196L703.4 180.0L705.7 180.0L711.6 196L709.5 196L707.9 191.5L701.3 191.5L699.7 196ZM701.9 189.7L707.2 189.7L706.1 186.5Q705.8 185.6 705.4 184.3L705.4 184.3Q705.0 183.2 704.5 181.6L704.5 181.6Q704.1 183.2 703.7 184.3L703.7 184.3Q703.3 185.7 703.0 186.5L703.0 186.5L701.9 189.7ZM713.9 180.0L715.8 180.0L715.8 196L713.9 196L713.9 180.0ZM723.8 196L721.9 196L718.3 184.0L720.3 184.0L721.8 189.2Q722.1 190.3 722.4 191.7L722.4 191.7Q722.7 192.7 722.9 193.9L722.9 193.9Q723.2 192.7 723.4 191.7L723.4 191.7Q723.7 190.4 724.1 189.2L724.1 189.2L725.5 184.0L727.6 184.0L729.0 189.2Q729.3 190.3 729.6 191.7L729.6 191.7Q729.8 192.7 730.1 193.9L730.1 193.9Q730.3 192.7 730.6 191.7L730.6 191.7Q730.9 190.4 731.2 189.2L731.2 189.2L732.7 184.0L734.8 184.0L731.1 196L729.2 196L727.6 190.6Q727.4 189.7 727.2 188.9Q726.9 188.0 726.7 187.1L726.7 187.1Q726.6 186.7 726.5 186.2L726.5 186.2Q726.4 186.6 726.3 187.1L726.3 187.1Q726.1 188.0 725.8 188.9Q725.6 189.8 725.4 190.6L725.4 190.6L723.8 196ZM740.6 196.3L740.6 196.3Q739.4 196.3 738.5 195.8Q737.6 195.4 737.0 194.6Q736.5 193.8 736.5 192.6L736.5 192.6Q736.5 191.6 736.9 190.9Q737.3 190.3 738.0 189.9Q738.7 189.5 739.5 189.3Q740.3 189.2 741.2 189.0L741.2 189.0Q742.2 188.9 742.9 188.8Q743.6 188.8 743.9 188.6Q744.2 188.4 744.2 188.0L744.2 188.0L744.2 187.9Q744.2 187.1 744.0 186.6Q743.7 186.1 743.1 185.8Q742.6 185.5 741.7 185.5L741.7 185.5Q740.9 185.5 740.2 185.8Q739.6 186.1 739.3 186.5Q738.9 186.9 738.7 187.3L738.7 187.3L736.8 186.7Q737.3 185.6 738.1 185.0Q738.9 184.4 739.8 184.1Q740.7 183.8 741.7 183.8L741.7 183.8Q742.3 183.8 743.0 184.0Q743.8 184.1 744.5 184.6Q745.2 185.0 745.7 185.8Q746.2 186.7 746.2 188.1L746.2 188.1L746.2 196L744.3 196L744.3 194.4L744.1 194.4Q743.9 194.8 743.5 195.2Q743.0 195.7 742.3 196.0Q741.6 196.3 740.6 196.3ZM740.9 194.6L740.9 194.6Q742.0 194.6 742.7 194.2Q743.5 193.7 743.8 193.1Q744.2 192.4 744.2 191.7L744.2 191.7L744.2 190.0Q744.1 190.1 743.7 190.2Q743.3 190.4 742.8 190.4Q742.3 190.5 741.8 190.6Q741.3 190.7 741.1 190.7L741.1 190.7Q740.4 190.8 739.8 191.0Q739.2 191.2 738.8 191.6Q738.4 192.0 738.4 192.7L738.4 192.7Q738.4 193.3 738.7 193.7Q739.1 194.1 739.6 194.4Q740.2 194.6 740.9 194.6ZM749.4 200.4L749.4 200.4L749.9 198.7L750.1 198.7Q750.7 198.9 751.1 198.8Q751.6 198.7 752.0 198.3Q752.4 197.9 752.7 197.1L752.7 197.1L753.0 196.1L748.4 184.0L750.6 184.0L753.1 191.1Q753.5 192.2 753.8 193.3L753.8 193.3Q753.9 193.8 754.0 194.2L754.0 194.2Q754.2 193.8 754.3 193.3L754.3 193.3Q754.6 192.2 755.0 191.1L755.0 191.1L757.5 184.0L759.6 184.0L754.4 197.8Q754.0 198.8 753.5 199.4Q753.0 200.0 752.3 200.3Q751.6 200.6 750.8 200.6L750.8 200.6Q750.3 200.6 749.9 200.5Q749.5 200.4 749.4 200.4ZM766.0 196.3L766.0 196.3Q764.8 196.3 763.8 195.9Q762.8 195.5 762.2 194.8Q761.6 194.1 761.4 193.1L761.4 193.1L763.2 192.6Q763.5 193.6 764.2 194.1Q764.9 194.6 766.0 194.6L766.0 194.6Q767.2 194.6 768.0 194.0Q768.7 193.5 768.7 192.7L768.7 192.7Q768.7 192.1 768.3 191.7Q767.9 191.3 767.0 191.1L767.0 191.1L765.0 190.6Q763.3 190.2 762.5 189.4Q761.8 188.6 761.8 187.3L761.8 187.3Q761.8 186.3 762.3 185.5Q762.9 184.7 763.9 184.3Q764.9 183.8 766.2 183.8L766.2 183.8Q767.4 183.8 768.3 184.2Q769.2 184.6 769.7 185.2Q770.3 185.9 770.5 186.7L770.5 186.7L768.8 187.2Q768.5 186.5 767.9 186.0Q767.4 185.5 766.2 185.5L766.2 185.5Q765.1 185.5 764.4 186.0Q763.7 186.5 763.7 187.2L763.7 187.2Q763.7 187.9 764.2 188.3Q764.7 188.7 765.7 188.9L765.7 188.9L767.5 189.4Q769.2 189.8 770.0 190.6Q770.7 191.4 770.7 192.6L770.7 192.6Q770.7 193.7 770.1 194.5Q769.6 195.3 768.5 195.8Q767.4 196.3 766.0 196.3Z M50.7 210.0L52.6 210.0L52.6 226L50.7 226L50.7 210.0ZM61.1 226.3L61.1 226.3Q59.3 226.3 58.1 225.5Q56.8 224.7 56.1 223.3Q55.4 221.9 55.4 220.1Q55.4 218.2 56.1 216.8Q56.8 215.4 58.0 214.6Q59.2 213.8 60.8 213.8L60.8 213.8Q61.8 213.8 62.7 214.2Q63.7 214.5 64.4 215.2Q65.2 215.9 65.6 217.0Q66.1 218.2 66.1 219.8L66.1 219.8L66.1 220.7L57.4 220.7Q57.4 221.8 57.9 222.6L57.9 222.6Q58.3 223.6 59.2 224.1Q60.0 224.5 61.1 224.5L61.1 224.5Q61.8 224.5 62.4 224.3Q63.0 224.1 63.4 223.7Q63.8 223.3 64.0 222.7L64.0 222.7L65.9 223.2Q65.6 224.1 64.9 224.8Q64.3 225.5 63.3 225.9Q62.3 226.3 61.1 226.3ZM57.4 219.0L57.4 219.0L64.1 219.0Q64.0 218.2 63.8 217.5L63.8 217.5Q63.4 216.6 62.7 216.1Q61.9 215.6 60.8 215.6Q59.8 215.6 59.0 216.1Q58.2 216.6 57.8 217.5L57.8 217.5Q57.5 218.2 57.4 219.0ZM72.2 226.3L72.2 226.3Q71.1 226.3 70.1 225.8Q69.2 225.4 68.7 224.6Q68.1 223.8 68.1 222.6L68.1 222.6Q68.1 221.6 68.5 220.9Q68.9 220.3 69.6 219.9Q70.3 219.5 71.1 219.3Q72.0 219.2 72.8 219.0L72.8 219.0Q73.9 218.9 74.5 218.8Q75.2 218.8 75.5 218.6Q75.9 218.4 75.9 218.0L75.9 218.0L75.9 217.9Q75.9 217.1 75.6 216.6Q75.3 216.1 74.8 215.8Q74.2 215.5 73.4 215.5L73.4 215.5Q72.5 215.5 71.9 215.8Q71.3 216.1 70.9 216.5Q70.5 216.9 70.3 217.3L70.3 217.3L68.5 216.7Q68.9 215.6 69.7 215.0Q70.5 214.4 71.4 214.1Q72.4 213.8 73.3 213.8L73.3 213.8Q73.9 213.8 74.7 214.0Q75.4 214.1 76.2 214.6Q76.9 215.0 77.3 215.8Q77.8 216.7 77.8 218.1L77.8 218.1L77.8 226L75.9 226L75.9 224.4L75.8 224.4Q75.6 224.8 75.1 225.2Q74.7 225.7 74.0 226.0Q73.2 226.3 72.2 226.3ZM72.5 224.6L72.5 224.6Q73.6 224.6 74.4 224.2Q75.1 223.7 75.5 223.1Q75.9 222.4 75.9 221.7L75.9 221.7L75.9 220.0Q75.8 220.1 75.4 220.2Q75.0 220.4 74.5 220.4Q73.9 220.5 73.5 220.6Q73.0 220.7 72.7 220.7L72.7 220.7Q72.0 220.8 71.4 221.0Q70.8 221.2 70.4 221.6Q70.1 222.0 70.1 222.7L70.1 222.7Q70.1 223.3 70.4 223.7Q70.7 224.1 71.3 224.4Q71.8 224.6 72.5 224.6ZM83.1 226L81.2 226L81.2 214.0L83.1 214.0L83.1 215.8L83.2 215.8Q83.5 214.9 84.4 214.4Q85.2 213.8 86.3 213.8L86.3 213.8Q86.5 213.8 86.8 213.8Q87.1 213.8 87.3 213.9L87.3 213.9L87.3 215.8Q87.2 215.8 86.9 215.7Q86.5 215.7 86.1 215.7L86.1 215.7Q85.3 215.7 84.6 216.0Q83.9 216.4 83.5 217.0Q83.1 217.7 83.1 218.5L83.1 218.5L83.1 226ZM91.4 218.8L91.4 218.8L91.4 226L89.5 226L89.5 214.0L91.3 214.0L91.4 216.2Q91.9 215.1 92.7 214.5L92.7 214.5Q93.7 213.8 95.0 213.8L95.0 213.8Q96.2 213.8 97.2 214.3Q98.1 214.8 98.6 215.8Q99.1 216.8 99.1 218.4L99.1 218.4L99.1 226L97.2 226L97.2 218.5Q97.2 217.1 96.4 216.4Q95.7 215.6 94.5 215.6L94.5 215.6Q93.6 215.6 92.9 216.0Q92.2 216.3 91.8 217.1Q91.4 217.8 91.4 218.8ZM104.4 226L102.5 226L102.5 214.0L104.4 214.0L104.4 226ZM103.5 212.0L103.5 212.0Q102.9 212.0 102.5 211.6Q102.1 211.3 102.1 210.7L102.1 210.7Q102.1 210.2 102.5 209.8Q102.9 209.5 103.5 209.5L103.5 209.5Q104.0 209.5 104.4 209.8Q104.8 210.2 104.8 210.7L104.8 210.7Q104.8 211.3 104.4 211.6Q104.0 212.0 103.5 212.0ZM109.7 218.8L109.7 218.8L109.7 226L107.8 226L107.8 214.0L109.7 214.0L109.7 216.2Q110.2 215.1 111.0 214.5L111.0 214.5Q112.0 213.8 113.4 213.8L113.4 213.8Q114.6 213.8 115.5 214.3Q116.4 214.8 116.9 215.8Q117.4 216.8 117.4 218.4L117.4 218.4L117.4 226L115.5 226L115.5 218.5Q115.5 217.1 114.8 216.4Q114.0 215.6 112.8 215.6L112.8 215.6Q111.9 215.6 111.2 216.0Q110.5 216.3 110.1 217.1Q109.7 217.8 109.7 218.8ZM125.7 230.7L125.7 230.7Q124.3 230.7 123.4 230.4Q122.4 230.1 121.8 229.5Q121.1 229.0 120.7 228.3L120.7 228.3L122.3 227.3Q122.6 227.6 122.9 228.1Q123.3 228.5 124.0 228.8Q124.6 229.1 125.7 229.1L125.7 229.1Q127.1 229.1 128.0 228.4Q129.0 227.7 129.0 226.2L129.0 226.2L129.0 223.8L128.8 223.8Q128.6 224.1 128.2 224.6Q127.8 225.1 127.2 225.4Q126.5 225.8 125.3 225.8L125.3 225.8Q123.9 225.8 122.7 225.1Q121.6 224.4 120.9 223.1Q120.2 221.8 120.2 219.9L120.2 219.9Q120.2 218.1 120.9 216.7Q121.5 215.3 122.7 214.6Q123.9 213.8 125.3 213.8L125.3 213.8Q126.5 213.8 127.2 214.2Q127.9 214.6 128.3 215.1Q128.6 215.6 128.8 215.9L128.8 215.9L129.0 215.9L129.0 214.0L130.9 214.0L130.9 226.3Q130.9 227.9 130.2 228.8Q129.5 229.8 128.3 230.3Q127.1 230.7 125.7 230.7ZM125.6 224.1L125.6 224.1Q126.7 224.1 127.5 223.6Q128.2 223.1 128.6 222.1Q129.0 221.2 129.0 219.9L129.0 219.9Q129.0 218.6 128.6 217.6Q128.2 216.7 127.5 216.1Q126.7 215.6 125.6 215.6L125.6 215.6Q124.5 215.6 123.7 216.2Q123.0 216.7 122.6 217.7Q122.2 218.7 122.2 219.9L122.2 219.9Q122.2 221.1 122.6 222.1Q123.0 223.0 123.7 223.6Q124.5 224.1 125.6 224.1Z M142.6 218.8L142.6 218.8L142.6 226L140.7 226L140.7 214.0L142.6 214.0L142.6 216.2Q143.1 215.1 143.9 214.5L143.9 214.5Q144.9 213.8 146.2 213.8L146.2 213.8Q147.5 213.8 148.4 214.3Q149.3 214.8 149.8 215.8Q150.3 216.8 150.3 218.4L150.3 218.4L150.3 226L148.4 226L148.4 218.5Q148.4 217.1 147.6 216.4Q146.9 215.6 145.7 215.6L145.7 215.6Q144.8 215.6 144.1 216.0Q143.4 216.3 143.0 217.1Q142.6 217.8 142.6 218.8ZM158.7 226.3L158.7 226.3Q157.0 226.3 155.7 225.5Q154.5 224.7 153.8 223.3Q153.1 221.9 153.1 220.1Q153.1 218.2 153.8 216.8Q154.4 215.4 155.7 214.6Q156.9 213.8 158.5 213.8L158.5 213.8Q159.5 213.8 160.4 214.2Q161.3 214.5 162.1 215.2Q162.8 215.9 163.3 217.0Q163.8 218.2 163.8 219.8L163.8 219.8L163.8 220.7L155.1 220.7Q155.1 221.8 155.5 222.6L155.5 222.6Q156.0 223.6 156.8 224.1Q157.7 224.5 158.8 224.5L158.8 224.5Q159.5 224.5 160.0 224.3Q160.6 224.1 161.0 223.7Q161.5 223.3 161.7 222.7L161.7 222.7L163.6 223.2Q163.3 224.1 162.6 224.8Q161.9 225.5 161.0 225.9Q160.0 226.3 158.7 226.3ZM155.1 219.0L155.1 219.0L161.8 219.0Q161.7 218.2 161.4 217.5L161.4 217.5Q161.1 216.6 160.3 216.1Q159.6 215.6 158.5 215.6Q157.4 215.6 156.7 216.1Q155.9 216.6 155.5 217.5L155.5 217.5Q155.1 218.2 155.1 219.0ZM171.1 226L169.2 226L165.6 214.0L167.6 214.0L169.1 219.2Q169.4 220.3 169.7 221.7L169.7 221.7Q170.0 222.7 170.2 223.9L170.2 223.9Q170.5 222.7 170.7 221.7L170.7 221.7Q171.1 220.4 171.4 219.2L171.4 219.2L172.8 214.0L174.9 214.0L176.3 219.2Q176.6 220.3 176.9 221.7L176.9 221.7Q177.2 222.7 177.4 223.9L177.4 223.9Q177.7 222.7 177.9 221.7L177.9 221.7Q178.3 220.4 178.6 219.2L178.6 219.2L180.0 214.0L182.1 214.0L178.4 226L176.5 226L175.0 220.6Q174.7 219.7 174.5 218.9Q174.3 218.0 174.1 217.1L174.1 217.1Q173.9 216.7 173.8 216.2L173.8 216.2Q173.7 216.6 173.6 217.1L173.6 217.1Q173.4 218.0 173.2 218.9Q172.9 219.8 172.7 220.6L172.7 220.6L171.1 226Z M193.0 214.0L195.4 214.0L195.4 215.6L193.0 215.6L193.0 222.9Q193.0 223.7 193.3 224.1Q193.6 224.4 194.4 224.4L194.4 224.4Q194.6 224.4 194.8 224.4Q195.1 224.3 195.4 224.3L195.4 224.3L195.8 225.9Q195.5 226.0 195.1 226.1Q194.7 226.2 194.3 226.2L194.3 226.2Q192.8 226.2 191.9 225.3Q191.0 224.5 191.0 223.0L191.0 223.0L191.0 215.6L189.2 215.6L189.2 214.0L191.0 214.0L191.0 211.1L193.0 211.1L193.0 214.0ZM199.8 218.8L199.8 218.8L199.8 226L197.9 226L197.9 210.0L199.8 210.0L199.8 216.1Q200.3 215.0 201.1 214.5L201.1 214.5Q202.1 213.8 203.4 213.8L203.4 213.8Q204.7 213.8 205.6 214.3Q206.5 214.8 207.0 215.8Q207.5 216.8 207.5 218.4L207.5 218.4L207.5 226L205.6 226L205.6 218.5Q205.6 217.1 204.8 216.4Q204.1 215.6 202.9 215.6L202.9 215.6Q202.0 215.6 201.3 216.0Q200.6 216.3 200.2 217.1Q199.8 217.8 199.8 218.8ZM212.8 226L210.9 226L210.9 214.0L212.8 214.0L212.8 226ZM211.9 212.0L211.9 212.0Q211.3 212.0 210.9 211.6Q210.5 211.3 210.5 210.7L210.5 210.7Q210.5 210.2 210.9 209.8Q211.3 209.5 211.9 209.5L211.9 209.5Q212.4 209.5 212.8 209.8Q213.2 210.2 213.2 210.7L213.2 210.7Q213.2 211.3 212.8 211.6Q212.4 212.0 211.9 212.0ZM218.2 218.8L218.2 218.8L218.2 226L216.2 226L216.2 214.0L218.1 214.0L218.1 216.2Q218.6 215.1 219.4 214.5L219.4 214.5Q220.4 213.8 221.8 213.8L221.8 213.8Q223.0 213.8 223.9 214.3Q224.8 214.8 225.3 215.8Q225.8 216.8 225.8 218.4L225.8 218.4L225.8 226L223.9 226L223.9 218.5Q223.9 217.1 223.2 216.4Q222.5 215.6 221.2 215.6L221.2 215.6Q220.3 215.6 219.6 216.0Q219.0 216.3 218.6 217.1Q218.2 217.8 218.2 218.8ZM234.1 230.7L234.1 230.7Q232.8 230.7 231.8 230.4Q230.8 230.1 230.2 229.5Q229.5 229.0 229.2 228.3L229.2 228.3L230.7 227.3Q231.0 227.6 231.4 228.1Q231.7 228.5 232.4 228.8Q233.0 229.1 234.1 229.1L234.1 229.1Q235.5 229.1 236.5 228.4Q237.4 227.7 237.4 226.2L237.4 226.2L237.4 223.8L237.2 223.8Q237.0 224.1 236.6 224.6Q236.3 225.1 235.6 225.4Q234.9 225.8 233.7 225.8L233.7 225.8Q232.3 225.8 231.1 225.1Q230.0 224.4 229.3 223.1Q228.6 221.8 228.6 219.9L228.6 219.9Q228.6 218.1 229.3 216.7Q230.0 215.3 231.1 214.6Q232.3 213.8 233.8 213.8L233.8 213.8Q234.9 213.8 235.6 214.2Q236.3 214.6 236.7 215.1Q237.1 215.6 237.3 215.9L237.3 215.9L237.4 215.9L237.4 214.0L239.3 214.0L239.3 226.3Q239.3 227.9 238.6 228.8Q237.9 229.8 236.7 230.3Q235.6 230.7 234.1 230.7ZM234.0 224.1L234.0 224.1Q235.1 224.1 235.9 223.6Q236.6 223.1 237.0 222.1Q237.4 221.2 237.4 219.9L237.4 219.9Q237.4 218.6 237.0 217.6Q236.7 216.7 235.9 216.1Q235.1 215.6 234.0 215.6L234.0 215.6Q232.9 215.6 232.1 216.2Q231.4 216.7 231.0 217.7Q230.6 218.7 230.6 219.9L230.6 219.9Q230.6 221.1 231.0 222.1Q231.4 223.0 232.2 223.6Q232.9 224.1 234.0 224.1ZM246.8 226.3L246.8 226.3Q245.6 226.3 244.6 225.9Q243.6 225.5 243.0 224.8Q242.4 224.1 242.2 223.1L242.2 223.1L244.0 222.6Q244.3 223.6 245.0 224.1Q245.7 224.6 246.8 224.6L246.8 224.6Q248.0 224.6 248.8 224.0Q249.5 223.5 249.5 222.7L249.5 222.7Q249.5 222.1 249.1 221.7Q248.7 221.3 247.8 221.1L247.8 221.1L245.8 220.6Q244.1 220.2 243.3 219.4Q242.5 218.6 242.5 217.3L242.5 217.3Q242.5 216.3 243.1 215.5Q243.7 214.7 244.7 214.3Q245.7 213.8 247.0 213.8L247.0 213.8Q248.2 213.8 249.1 214.2Q250.0 214.6 250.5 215.2Q251.0 215.9 251.3 216.7L251.3 216.7L249.6 217.2Q249.3 216.5 248.7 216.0Q248.2 215.5 247.0 215.5L247.0 215.5Q245.9 215.5 245.2 216.0Q244.5 216.5 244.5 217.2L244.5 217.2Q244.5 217.9 245.0 218.3Q245.5 218.7 246.5 218.9L246.5 218.9L248.3 219.4Q250.0 219.8 250.8 220.6Q251.5 221.4 251.5 222.6L251.5 222.6Q251.5 223.7 250.9 224.5Q250.3 225.3 249.3 225.8Q248.2 226.3 246.8 226.3Z "/></g><defs><clipPath id="satori_bc-id-1-1-2" clip-path="url(#satori_cp-id)"><path x="49" y="258" width="536" height="49" d="M57,258 h520 a8,8 0 0 1 8,8 v33 a8,8 0 0 1 -8,8 h-520 a8,8 0 0 1 -8,-8 v-33 a8,8 0 0 1 8,-8"/></clipPath></defs><mask id="satori_om-id-1-1-2"><rect x="50" y="259" width="534" height="47" fill="#fff" mask="url(#satori_om-id)"/><path width="536" height="49" fill="none" stroke="#000" stroke-width="2" d="M51.343,260.343 A8,8 0 0 1 57,258 h520 a8,8 0 0 1 8,8 v33 a8,8 0 0 1 -8,8 h-520 a8,8 0 0 1 -8,-8 v-33 A8,8 0 0 1 51.343,260.343"/></mask><path x="49" y="258" width="536" height="49" fill="rgba(21,23,29,.72)" d="M57,258 h520 a8,8 0 0 1 8,8 v33 a8,8 0 0 1 -8,8 h-520 a8,8 0 0 1 -8,-8 v-33 a8,8 0 0 1 8,-8" clip-path="url(#satori_cp-id)" mask="url(#satori_om-id)"/><path width="536" height="49" clip-path="url(#satori_bc-id-1-1-2)" fill="none" stroke="rgba(245,166,35,.28)" stroke-width="2" d="M51.343,260.343 A8,8 0 0 1 57,258 h520 a8,8 0 0 1 8,8 v33 a8,8 0 0 1 -8,8 h-520 a8,8 0 0 1 -8,-8 v-33 A8,8 0 0 1 51.343,260.343"/><mask id="satori_om-id-1-1-2-0"><rect x="65" y="272" width="12" height="21" fill="#fff" mask="url(#satori_om-id)"/></mask><g mask="url(#satori_om-id)" clip-path="url(#satori_cp-id)"><path fill="#F5A623" d="M74.8 282.6L74.8 283.7L67.0 287.6L67.0 286.0L72.9 283.2L72.9 283.1L67.0 280.3L67.0 278.7L74.8 282.6Z "/></g><mask id="satori_om-id-1-1-2-1"><rect x="86" y="274" width="182" height="17" fill="#fff" mask="url(#satori_om-id)"/></mask><g mask="url(#satori_om-id)" clip-path="url(#satori_cp-id)"><path fill="#5EEAD4" d="M87.7 288L86.4 288L90.1 277.8L91.6 277.8L95.3 288L93.9 288L92.9 285.2L88.7 285.2L87.7 288ZM89.1 284.0L92.5 284.0L91.8 282.0Q91.6 281.4 91.3 280.6L91.3 280.6Q91.1 279.9 90.8 278.9L90.8 278.9Q90.5 279.9 90.3 280.6L90.3 280.6Q90.0 281.4 89.8 282.0L89.8 282.0L89.1 284.0ZM96.7 277.8L98.0 277.8L98.0 288L96.7 288L96.7 277.8ZM103.1 288L101.8 288L99.5 280.4L100.8 280.4L101.8 283.7Q102.0 284.4 102.2 285.2L102.2 285.2Q102.3 285.9 102.5 286.7L102.5 286.7Q102.7 285.9 102.8 285.3L102.8 285.3Q103.0 284.4 103.2 283.7L103.2 283.7L104.1 280.4L105.4 280.4L106.4 283.7Q106.5 284.4 106.8 285.3L106.8 285.3Q106.9 285.9 107.1 286.7L107.1 286.7Q107.2 285.9 107.4 285.3L107.4 285.3Q107.6 284.4 107.8 283.7L107.8 283.7L108.7 280.4L110.0 280.4L107.7 288L106.5 288L105.5 284.5Q105.3 284.0 105.2 283.5Q105.1 282.9 104.9 282.3L104.9 282.3Q104.9 282.1 104.8 281.8L104.8 281.8Q104.7 282.0 104.6 282.3L104.6 282.3Q104.5 282.9 104.4 283.5Q104.2 284.0 104.1 284.5L104.1 284.5L103.1 288ZM113.7 288.2L113.7 288.2Q113.0 288.2 112.4 287.9Q111.8 287.6 111.5 287.1Q111.1 286.6 111.1 285.8L111.1 285.8Q111.1 285.2 111.4 284.8Q111.6 284.3 112.1 284.1Q112.5 283.9 113.0 283.8Q113.6 283.6 114.1 283.6L114.1 283.6Q114.8 283.5 115.2 283.4Q115.6 283.4 115.8 283.3Q116.1 283.2 116.1 282.9L116.1 282.9L116.1 282.8Q116.1 282.4 115.9 282.0Q115.7 281.7 115.3 281.5Q115.0 281.3 114.5 281.3L114.5 281.3Q113.9 281.3 113.5 281.5Q113.1 281.7 112.9 281.9Q112.6 282.2 112.5 282.5L112.5 282.5L111.3 282.1Q111.6 281.4 112.1 281.0Q112.6 280.6 113.2 280.4Q113.8 280.3 114.4 280.3L114.4 280.3Q114.8 280.3 115.3 280.4Q115.8 280.4 116.2 280.7Q116.7 281.0 117.0 281.5Q117.3 282.1 117.3 283.0L117.3 283.0L117.3 288L116.1 288L116.1 287.0L116.0 287.0Q115.9 287.2 115.6 287.5Q115.3 287.8 114.8 288.0Q114.4 288.2 113.7 288.2ZM113.9 287.1L113.9 287.1Q114.6 287.1 115.1 286.8Q115.6 286.6 115.8 286.1Q116.1 285.7 116.1 285.2L116.1 285.2L116.1 284.2Q116.0 284.3 115.7 284.3Q115.5 284.4 115.2 284.5Q114.8 284.5 114.5 284.6Q114.2 284.6 114.0 284.6L114.0 284.6Q113.6 284.7 113.2 284.8Q112.8 284.9 112.6 285.2Q112.4 285.5 112.4 285.9L112.4 285.9Q112.4 286.3 112.6 286.6Q112.8 286.8 113.1 287.0Q113.5 287.1 113.9 287.1ZM119.3 290.8L119.3 290.8L119.6 289.7L119.8 289.7Q120.1 289.8 120.5 289.8Q120.8 289.7 121.0 289.5Q121.3 289.2 121.4 288.7L121.4 288.7L121.7 288.0L118.7 280.4L120.1 280.4L121.7 284.9Q122.0 285.6 122.1 286.3L122.1 286.3Q122.2 286.6 122.3 286.9L122.3 286.9Q122.4 286.6 122.5 286.3L122.5 286.3Q122.6 285.6 122.9 284.9L122.9 284.9L124.5 280.4L125.9 280.4L122.5 289.1Q122.3 289.8 122.0 290.1Q121.6 290.5 121.2 290.7Q120.8 290.9 120.2 290.9L120.2 290.9Q119.9 290.9 119.7 290.9Q119.4 290.8 119.3 290.8ZM129.9 288.2L129.9 288.2Q129.1 288.2 128.5 287.9Q127.9 287.7 127.5 287.3Q127.1 286.8 127.0 286.1L127.0 286.1L128.1 285.9Q128.3 286.5 128.8 286.8Q129.2 287.1 129.9 287.1L129.9 287.1Q130.7 287.1 131.2 286.7Q131.7 286.4 131.7 285.9L131.7 285.9Q131.7 285.5 131.4 285.3Q131.1 285.0 130.5 284.9L130.5 284.9L129.3 284.6Q128.2 284.3 127.7 283.8Q127.2 283.3 127.2 282.5L127.2 282.5Q127.2 281.8 127.6 281.3Q127.9 280.8 128.6 280.5Q129.2 280.3 130.0 280.3L130.0 280.3Q130.8 280.3 131.4 280.5Q131.9 280.7 132.3 281.1Q132.6 281.6 132.8 282.1L132.8 282.1L131.7 282.4Q131.5 282.0 131.1 281.6Q130.8 281.3 130.0 281.3L130.0 281.3Q129.4 281.3 128.9 281.6Q128.5 281.9 128.5 282.4L128.5 282.4Q128.5 282.8 128.8 283.1Q129.1 283.4 129.7 283.5L129.7 283.5L130.9 283.8Q131.9 284.0 132.4 284.5Q132.9 285.1 132.9 285.8L132.9 285.8Q132.9 286.5 132.5 287.0Q132.2 287.6 131.5 287.9Q130.8 288.2 129.9 288.2Z M138.6 277.8L139.9 277.8L139.9 288L138.6 288L138.6 277.8ZM145.2 288.2L145.2 288.2Q144.1 288.2 143.3 287.7Q142.5 287.2 142.1 286.3Q141.7 285.4 141.7 284.2Q141.7 283.1 142.1 282.2Q142.5 281.3 143.3 280.8Q144.1 280.3 145.1 280.3L145.1 280.3Q145.7 280.3 146.3 280.5Q146.9 280.7 147.4 281.1Q147.9 281.6 148.1 282.3Q148.4 283.0 148.4 284.1L148.4 284.1L148.4 284.6L142.9 284.6Q142.9 285.3 143.2 285.9L143.2 285.9Q143.5 286.5 144.0 286.8Q144.6 287.1 145.3 287.1L145.3 287.1Q145.7 287.1 146.1 286.9Q146.4 286.8 146.7 286.5Q147.0 286.3 147.1 285.9L147.1 285.9L148.3 286.2Q148.1 286.8 147.7 287.2Q147.3 287.7 146.7 287.9Q146.0 288.2 145.2 288.2ZM142.9 283.6L142.9 283.6L147.2 283.6Q147.1 283.0 147.0 282.6L147.0 282.6Q146.7 282.0 146.3 281.7Q145.8 281.4 145.1 281.4Q144.4 281.4 143.9 281.7Q143.4 282.0 143.2 282.6L143.2 282.6Q143.0 283.0 142.9 283.6ZM152.3 288.2L152.3 288.2Q151.6 288.2 151.0 287.9Q150.4 287.6 150.1 287.1Q149.7 286.6 149.7 285.8L149.7 285.8Q149.7 285.2 150.0 284.8Q150.3 284.3 150.7 284.1Q151.1 283.9 151.6 283.8Q152.2 283.6 152.7 283.6L152.7 283.6Q153.4 283.5 153.8 283.4Q154.3 283.4 154.5 283.3Q154.7 283.2 154.7 282.9L154.7 282.9L154.7 282.8Q154.7 282.4 154.5 282.0Q154.3 281.7 154.0 281.5Q153.6 281.3 153.1 281.3L153.1 281.3Q152.5 281.3 152.1 281.5Q151.7 281.7 151.5 281.9Q151.3 282.2 151.1 282.5L151.1 282.5L150.0 282.1Q150.2 281.4 150.7 281.0Q151.2 280.6 151.8 280.4Q152.4 280.3 153.0 280.3L153.0 280.3Q153.4 280.3 153.9 280.4Q154.4 280.4 154.8 280.7Q155.3 281.0 155.6 281.5Q155.9 282.1 155.9 283.0L155.9 283.0L155.9 288L154.7 288L154.7 287.0L154.6 287.0Q154.5 287.2 154.2 287.5Q153.9 287.8 153.4 288.0Q153.0 288.2 152.3 288.2ZM152.5 287.1L152.5 287.1Q153.2 287.1 153.7 286.8Q154.2 286.6 154.4 286.1Q154.7 285.7 154.7 285.2L154.7 285.2L154.7 284.2Q154.6 284.3 154.3 284.3Q154.1 284.4 153.8 284.5Q153.4 284.5 153.1 284.6Q152.8 284.6 152.7 284.6L152.7 284.6Q152.2 284.7 151.8 284.8Q151.4 284.9 151.2 285.2Q151.0 285.5 151.0 285.9L151.0 285.9Q151.0 286.3 151.2 286.6Q151.4 286.8 151.7 287.0Q152.1 287.1 152.5 287.1ZM159.3 288L158.1 288L158.1 280.4L159.2 280.4L159.2 281.5L159.3 281.5Q159.5 281.0 160.1 280.6Q160.6 280.2 161.3 280.2L161.3 280.2Q161.4 280.2 161.6 280.3Q161.8 280.3 161.9 280.3L161.9 280.3L161.9 281.5Q161.9 281.5 161.7 281.5Q161.4 281.4 161.2 281.4L161.2 281.4Q160.6 281.4 160.2 281.7Q159.8 281.9 159.5 282.3Q159.3 282.7 159.3 283.2L159.3 283.2L159.3 288ZM164.6 283.4L164.6 283.4L164.6 288L163.3 288L163.3 280.4L164.5 280.4L164.5 281.8Q164.8 281.1 165.3 280.7L165.3 280.7Q166.0 280.3 166.9 280.3L166.9 280.3Q167.6 280.3 168.2 280.6Q168.8 280.9 169.1 281.5Q169.4 282.2 169.4 283.1L169.4 283.1L169.4 288L168.2 288L168.2 283.2Q168.2 282.4 167.7 281.9Q167.3 281.4 166.5 281.4L166.5 281.4Q165.9 281.4 165.5 281.6Q165.1 281.8 164.8 282.3Q164.6 282.8 164.6 283.4ZM172.8 288L171.6 288L171.6 280.4L172.8 280.4L172.8 288ZM172.2 279.1L172.2 279.1Q171.9 279.1 171.6 278.9Q171.4 278.6 171.4 278.3L171.4 278.3Q171.4 278.0 171.6 277.7Q171.9 277.5 172.2 277.5L172.2 277.5Q172.6 277.5 172.8 277.7Q173.1 278.0 173.1 278.3L173.1 278.3Q173.1 278.6 172.8 278.9Q172.6 279.1 172.2 279.1ZM176.2 283.4L176.2 283.4L176.2 288L175.0 288L175.0 280.4L176.2 280.4L176.2 281.8Q176.5 281.1 177.0 280.7L177.0 280.7Q177.6 280.3 178.5 280.3L178.5 280.3Q179.3 280.3 179.9 280.6Q180.5 280.9 180.8 281.5Q181.1 282.2 181.1 283.1L181.1 283.1L181.1 288L179.9 288L179.9 283.2Q179.9 282.4 179.4 281.9Q178.9 281.4 178.1 281.4L178.1 281.4Q177.6 281.4 177.2 281.6Q176.7 281.8 176.5 282.3Q176.2 282.8 176.2 283.4ZM186.4 291.0L186.4 291.0Q185.5 291.0 184.9 290.8Q184.3 290.6 183.9 290.2Q183.5 289.9 183.2 289.5L183.2 289.5L184.2 288.8Q184.4 289.0 184.6 289.3Q184.9 289.6 185.3 289.8Q185.7 289.9 186.4 289.9L186.4 289.9Q187.3 289.9 187.9 289.5Q188.5 289.1 188.5 288.1L188.5 288.1L188.5 286.6L188.3 286.6Q188.2 286.8 188.0 287.1Q187.7 287.4 187.3 287.6Q186.9 287.9 186.1 287.9L186.1 287.9Q185.2 287.9 184.5 287.4Q183.7 287.0 183.3 286.2Q182.9 285.3 182.9 284.1L182.9 284.1Q182.9 283.0 183.3 282.1Q183.7 281.2 184.5 280.7Q185.2 280.3 186.1 280.3L186.1 280.3Q186.9 280.3 187.3 280.5Q187.8 280.7 188.0 281.1Q188.2 281.4 188.4 281.6L188.4 281.6L188.5 281.6L188.5 280.4L189.7 280.4L189.7 288.2Q189.7 289.2 189.2 289.8Q188.8 290.4 188.0 290.7Q187.3 291.0 186.4 291.0ZM186.3 286.8L186.3 286.8Q187.0 286.8 187.5 286.5Q188.0 286.1 188.2 285.5Q188.5 285.0 188.5 284.1L188.5 284.1Q188.5 283.3 188.2 282.7Q188.0 282.1 187.5 281.7Q187.0 281.4 186.3 281.4L186.3 281.4Q185.6 281.4 185.1 281.7Q184.6 282.1 184.4 282.7Q184.1 283.4 184.1 284.1L184.1 284.1Q184.1 284.9 184.4 285.5Q184.6 286.1 185.1 286.4Q185.6 286.8 186.3 286.8Z M197.0 283.4L197.0 283.4L197.0 288L195.8 288L195.8 280.4L197.0 280.4L197.0 281.8Q197.3 281.1 197.8 280.7L197.8 280.7Q198.4 280.3 199.3 280.3L199.3 280.3Q200.1 280.3 200.7 280.6Q201.2 280.9 201.6 281.5Q201.9 282.2 201.9 283.1L201.9 283.1L201.9 288L200.7 288L200.7 283.2Q200.7 282.4 200.2 281.9Q199.7 281.4 198.9 281.4L198.9 281.4Q198.4 281.4 198.0 281.6Q197.5 281.8 197.3 282.3Q197.0 282.8 197.0 283.4ZM207.3 288.2L207.3 288.2Q206.2 288.2 205.4 287.7Q204.6 287.2 204.1 286.3Q203.7 285.4 203.7 284.2Q203.7 283.1 204.1 282.2Q204.5 281.3 205.3 280.8Q206.1 280.3 207.1 280.3L207.1 280.3Q207.7 280.3 208.3 280.5Q208.9 280.7 209.4 281.1Q209.9 281.6 210.2 282.3Q210.5 283.0 210.5 284.1L210.5 284.1L210.5 284.6L204.9 284.6Q205.0 285.3 205.2 285.9L205.2 285.9Q205.5 286.5 206.0 286.8Q206.6 287.1 207.3 287.1L207.3 287.1Q207.7 287.1 208.1 286.9Q208.5 286.8 208.7 286.5Q209.0 286.3 209.1 285.9L209.1 285.9L210.3 286.2Q210.2 286.8 209.7 287.2Q209.3 287.7 208.7 287.9Q208.1 288.2 207.3 288.2ZM204.9 283.6L204.9 283.6L209.2 283.6Q209.2 283.0 209.0 282.6L209.0 282.6Q208.7 282.0 208.3 281.7Q207.8 281.4 207.1 281.4Q206.4 281.4 205.9 281.7Q205.5 282.0 205.2 282.6L205.2 282.6Q205.0 283.0 204.9 283.6ZM215.2 288L213.9 288L211.6 280.4L212.9 280.4L213.9 283.7Q214.0 284.4 214.3 285.2L214.3 285.2Q214.4 285.9 214.6 286.7L214.6 286.7Q214.7 285.9 214.9 285.3L214.9 285.3Q215.1 284.4 215.3 283.7L215.3 283.7L216.2 280.4L217.5 280.4L218.4 283.7Q218.6 284.4 218.8 285.3L218.8 285.3Q219.0 285.9 219.2 286.7L219.2 286.7Q219.3 285.9 219.5 285.3L219.5 285.3Q219.7 284.4 219.9 283.7L219.9 283.7L220.8 280.4L222.1 280.4L219.8 288L218.6 288L217.6 284.5Q217.4 284.0 217.3 283.5Q217.1 282.9 217.0 282.3L217.0 282.3Q216.9 282.1 216.9 281.8L216.9 281.8Q216.8 282.0 216.7 282.3L216.7 282.3Q216.6 282.9 216.4 283.5Q216.3 284.0 216.1 284.5L216.1 284.5L215.2 288Z M229.0 280.4L230.6 280.4L230.6 281.4L229.0 281.4L229.0 286.0Q229.0 286.5 229.3 286.8Q229.5 287.0 230.0 287.0L230.0 287.0Q230.1 287.0 230.2 287.0Q230.4 286.9 230.6 286.9L230.6 286.9L230.8 288.0Q230.6 288.0 230.4 288.1Q230.2 288.1 229.9 288.1L229.9 288.1Q228.9 288.1 228.4 287.6Q227.8 287.0 227.8 286.1L227.8 286.1L227.8 281.4L226.7 281.4L226.7 280.4L227.8 280.4L227.8 278.5L229.0 278.5L229.0 280.4ZM233.4 283.4L233.4 283.4L233.4 288L232.2 288L232.2 277.8L233.4 277.8L233.4 281.7Q233.7 281.0 234.2 280.7L234.2 280.7Q234.9 280.3 235.7 280.3L235.7 280.3Q236.5 280.3 237.1 280.6Q237.7 280.9 238.0 281.5Q238.3 282.2 238.3 283.1L238.3 283.1L238.3 288L237.1 288L237.1 283.2Q237.1 282.4 236.6 281.9Q236.2 281.4 235.4 281.4L235.4 281.4Q234.8 281.4 234.4 281.6Q233.9 281.8 233.7 282.3Q233.4 282.8 233.4 283.4ZM241.7 288L240.5 288L240.5 280.4L241.7 280.4L241.7 288ZM241.1 279.1L241.1 279.1Q240.7 279.1 240.5 278.9Q240.2 278.6 240.2 278.3L240.2 278.3Q240.2 278.0 240.5 277.7Q240.7 277.5 241.1 277.5L241.1 277.5Q241.4 277.5 241.7 277.7Q242.0 278.0 242.0 278.3L242.0 278.3Q242.0 278.6 241.7 278.9Q241.4 279.1 241.1 279.1ZM245.1 283.4L245.1 283.4L245.1 288L243.9 288L243.9 280.4L245.0 280.4L245.1 281.8Q245.4 281.1 245.9 280.7L245.9 280.7Q246.5 280.3 247.4 280.3L247.4 280.3Q248.2 280.3 248.7 280.6Q249.3 280.9 249.6 281.5Q250.0 282.2 250.0 283.1L250.0 283.1L250.0 288L248.7 288L248.7 283.2Q248.7 282.4 248.3 281.9Q247.8 281.4 247.0 281.4L247.0 281.4Q246.5 281.4 246.0 281.6Q245.6 281.8 245.3 282.3Q245.1 282.8 245.1 283.4ZM255.2 291.0L255.2 291.0Q254.4 291.0 253.8 290.8Q253.1 290.6 252.7 290.2Q252.3 289.9 252.1 289.5L252.1 289.5L253.1 288.8Q253.2 289.0 253.5 289.3Q253.7 289.6 254.1 289.8Q254.6 289.9 255.2 289.9L255.2 289.9Q256.1 289.9 256.7 289.5Q257.3 289.1 257.3 288.1L257.3 288.1L257.3 286.6L257.2 286.6Q257.1 286.8 256.8 287.1Q256.6 287.4 256.2 287.6Q255.7 287.9 255.0 287.9L255.0 287.9Q254.1 287.9 253.3 287.4Q252.6 287.0 252.2 286.2Q251.8 285.3 251.8 284.1L251.8 284.1Q251.8 283.0 252.2 282.1Q252.6 281.2 253.3 280.7Q254.1 280.3 255.0 280.3L255.0 280.3Q255.8 280.3 256.2 280.5Q256.6 280.7 256.9 281.1Q257.1 281.4 257.2 281.6L257.2 281.6L257.4 281.6L257.4 280.4L258.6 280.4L258.6 288.2Q258.6 289.2 258.1 289.8Q257.7 290.4 256.9 290.7Q256.2 291.0 255.2 291.0ZM255.2 286.8L255.2 286.8Q255.9 286.8 256.4 286.5Q256.9 286.1 257.1 285.5Q257.3 285.0 257.3 284.1L257.3 284.1Q257.3 283.3 257.1 282.7Q256.9 282.1 256.4 281.7Q255.9 281.4 255.2 281.4L255.2 281.4Q254.5 281.4 254.0 281.7Q253.5 282.1 253.3 282.7Q253.0 283.4 253.0 284.1L253.0 284.1Q253.0 284.9 253.3 285.5Q253.5 286.1 254.0 286.4Q254.5 286.8 255.2 286.8ZM263.3 288.2L263.3 288.2Q262.5 288.2 261.9 287.9Q261.3 287.7 260.9 287.3Q260.5 286.8 260.4 286.1L260.4 286.1L261.5 285.9Q261.7 286.5 262.2 286.8Q262.6 287.1 263.3 287.1L263.3 287.1Q264.1 287.1 264.6 286.7Q265.1 286.4 265.1 285.9L265.1 285.9Q265.1 285.5 264.8 285.3Q264.5 285.0 263.9 284.9L263.9 284.9L262.7 284.6Q261.6 284.3 261.1 283.8Q260.6 283.3 260.6 282.5L260.6 282.5Q260.6 281.8 261.0 281.3Q261.3 280.8 262.0 280.5Q262.6 280.3 263.4 280.3L263.4 280.3Q264.2 280.3 264.8 280.5Q265.3 280.7 265.7 281.1Q266.0 281.6 266.2 282.1L266.2 282.1L265.1 282.4Q264.9 282.0 264.6 281.6Q264.2 281.3 263.4 281.3L263.4 281.3Q262.8 281.3 262.3 281.6Q261.9 281.9 261.9 282.4L261.9 282.4Q261.9 282.8 262.2 283.1Q262.5 283.4 263.1 283.5L263.1 283.5L264.3 283.8Q265.3 284.0 265.8 284.5Q266.3 285.1 266.3 285.8L266.3 285.8Q266.3 286.5 266.0 287.0Q265.6 287.6 264.9 287.9Q264.2 288.2 263.3 288.2Z "/></g><mask id="satori_om-id-1-1-2-2"><rect x="277" y="274" width="8" height="18" fill="#fff" mask="url(#satori_om-id)"/></mask><rect x="277" y="274" width="8" height="18" fill="#5EEAD4" clip-path="url(#satori_cp-id)" mask="url(#satori_om-id)"/></svg>